<svg xmlns="http://www.w3.org/2000/svg" xmlns:xlink="http://www.w3.org/1999/xlink" viewBox="0 0 68.1 98.25"><defs><style>.cls-1{fill:url(#linear-gradient);}.cls-2{fill:url(#linear-gradient-2);}.cls-3{fill:url(#linear-gradient-3);}.cls-4{fill:url(#linear-gradient-4);}.cls-5{fill:url(#linear-gradient-5);}.cls-6{fill:url(#linear-gradient-6);}.cls-7{fill:url(#linear-gradient-7);}.cls-8{fill:url(#linear-gradient-8);}.cls-9{fill:url(#linear-gradient-9);}.cls-10{fill:url(#linear-gradient-10);}.cls-11{fill:#59a86e;}.cls-12{fill:url(#linear-gradient-11);}.cls-13{fill:url(#linear-gradient-12);}.cls-14{fill:url(#linear-gradient-13);}.cls-15{fill:#2b704d;}.cls-16{fill:url(#linear-gradient-14);}.cls-17{fill:#495a78;}.cls-18{fill:#c3c8d4;}.cls-19{fill:#5a6880;}.cls-20{fill:#f5ebe4;}.cls-21{fill:#d9c2b2;}</style><linearGradient id="linear-gradient" x1="35.09" y1="35.75" x2="35.18" y2="24.95" gradientUnits="userSpaceOnUse"><stop offset="0" stop-color="#364359"/><stop offset="1" stop-color="#495a78"/></linearGradient><linearGradient id="linear-gradient-2" x1="35.01" y1="76.89" x2="35.46" y2="47.64" xlink:href="#linear-gradient"/><linearGradient id="linear-gradient-3" x1="52.18" y1="66.91" x2="59.94" y2="64.37" xlink:href="#linear-gradient"/><linearGradient id="linear-gradient-4" x1="51.99" y1="38.14" x2="51.4" y2="25.76" xlink:href="#linear-gradient"/><linearGradient id="linear-gradient-5" x1="42.85" y1="78.36" x2="41.43" y2="48.32" xlink:href="#linear-gradient"/><linearGradient id="linear-gradient-6" x1="12.48" y1="78.17" x2="11.53" y2="58.11" xlink:href="#linear-gradient"/><linearGradient id="linear-gradient-7" x1="17.56" y1="41.89" x2="26.54" y2="41.89" gradientTransform="translate(15.92 0.28) rotate(0.9)" gradientUnits="userSpaceOnUse"><stop offset="0" stop-color="#40784e"/><stop offset="1" stop-color="#59a86e"/></linearGradient><linearGradient id="linear-gradient-8" x1="33.04" y1="76.25" x2="44.61" y2="76.25" xlink:href="#linear-gradient-7"/><linearGradient id="linear-gradient-9" x1="19.57" y1="39.27" x2="32.74" y2="27.65" gradientUnits="userSpaceOnUse"><stop offset="0" stop-color="#a9aeb8"/><stop offset="1" stop-color="#c3c8d4"/></linearGradient><linearGradient id="linear-gradient-10" x1="37.93" y1="43.09" x2="43.32" y2="43.09" xlink:href="#linear-gradient-7"/><linearGradient id="linear-gradient-11" x1="29.26" y1="54.4" x2="30.7" y2="54.4" xlink:href="#linear-gradient-7"/><linearGradient id="linear-gradient-12" x1="21.49" y1="70.79" x2="26.09" y2="76.04" xlink:href="#linear-gradient-7"/><linearGradient id="linear-gradient-13" x1="27.08" y1="50.13" x2="30.81" y2="50.13" xlink:href="#linear-gradient-7"/><linearGradient id="linear-gradient-14" x1="55.23" y1="47.03" x2="54.5" y2="31.68" gradientTransform="translate(-30.91 -4.7) rotate(-1.94)" xlink:href="#linear-gradient"/></defs><g id="Layer_2" data-name="Layer 2"><g id="OBJECTS"><path class="cls-1" d="M42.66,32.75c0-.24-.2-1.93-.23-2.17a31.82,31.82,0,0,0-1.77-7.75A30.5,30.5,0,0,0,37.5,16.6,35.58,35.58,0,0,0,34,12.06C32.79,10.81,31.72,9.8,30.82,9s-1.64-1.39-2.14-1.8l-.77-.6-.12.13.64.74c.41.49,1,1.2,1.74,2.14s1.55,2.11,2.41,3.49a34.69,34.69,0,0,1,2.47,4.81,26.89,26.89,0,0,1,1.71,6A27.13,27.13,0,0,1,37,30.66a35.05,35.05,0,0,1-1.44,7.11,55.19,55.19,0,0,1-2.76,7.09c-.54,1.17-1.12,2.32-1.72,3.47l-.22.4h0C33.27,45.19,39.28,40.72,42.66,32.75Z"/><path class="cls-2" d="M45.59,79.45l-.23-.17-.26-.19c-.43-.33-1.05-.8-1.77-1.41A25.81,25.81,0,0,1,41,75.4a17.22,17.22,0,0,1-2.34-3.14A14,14,0,0,1,37,68a17.89,17.89,0,0,1-.19-5.59,28.19,28.19,0,0,1,.55-3.22c.13-.55.27-1.11.44-1.67.08-.28.16-.57.25-.85s.09-.28.14-.43l.07-.21,0-.11,0-.05v0l0,0,.66-2c.22-.68.43-1.35.64-2,.41-1.37.8-2.75,1.14-4.15a60.63,60.63,0,0,0,2-8.35,68.46,68.46,0,0,0,.42-9.87c-3.39,8-9.94,15.76-12.36,19.3h0c-.23.44-.47.87-.7,1.3l-1,1.71s0,0,0,0l0,0,0,.06-.06.12-.14.25-.26.49c-.17.33-.34.66-.5,1-.34.66-.65,1.34-1,2A41.45,41.45,0,0,0,25.66,60a30.59,30.59,0,0,0-1.34,9,27.44,27.44,0,0,0,1.42,8.54A31.35,31.35,0,0,0,28.2,83H42.71l3.08-3.39Z"/><path class="cls-3" d="M52.12,85.58C58.2,81.51,63.53,75.15,63.35,65s-1.76-14.83,1.81-21a15.59,15.59,0,0,0-7.82,12.45C57.23,61.4,57.11,69,52.87,74.3Z"/><path class="cls-4" d="M46.39,30c2.09-4.72,8.86-7.9,9.49-13.35,1.12,3.22.47,5.86-1.83,8.89C52.1,28.13,47,34,49.57,43,49.57,43,46,36.74,46.39,30Z"/><path class="cls-5" d="M41.46,89.92c6.43,0,22.39-8.14,17.49-26.44S46.3,41,48.19,26.43c0,0-7.48,7.18-4.12,22.89S48.46,85,25.7,84.31A26.3,26.3,0,0,0,41.46,89.92Z"/><path class="cls-6" d="M18.36,85.58C12.29,81.51,7,75.15,7.14,65S8.9,50.15,5.32,44a15.58,15.58,0,0,1,7.83,12.45c.11,4.95.23,12.52,4.47,17.85Z"/><path class="cls-7" d="M33.25,37.49s-.65.62-.24,2.15,3.48,5.1,4.65,6.11,3.35,2,4.06,1.73Z"/><path class="cls-8" d="M48.23,80.21c-1-1.88-.41-4.77,1.49-6.65s5.61-1.58,6.16,2.15a7,7,0,0,1,.57-1.56c.29-.42.47,0,.38.59,0,0,1.6-1.46,1.88-1.06S58.53,75.33,58,76c0,0,1.27-.49,1.38-.1s-1,1.35-1.86,1.56c0,0,.85.35.62.67s-1.28.06-2-.31C55.78,79.48,50.4,84.19,48.23,80.21Z"/><path class="cls-9" d="M48.48,11.78C50,5.29,49-.16,48.48,0s-4,14-10.84,19.76c-7,2.3-18.3,3.36-24.49,14.91l10.11,7.48s-.39-10.86,7.66-15.9c1.14-.26,2.74.25,3.75.35s2,.15,2,0a5.22,5.22,0,0,0-2.27-2A19,19,0,0,1,38,23.89a10.06,10.06,0,0,0,4.31,3.77c2.77,1.14,5.24.87,5.29.59a74.86,74.86,0,0,0-4.74-6.38A20.46,20.46,0,0,0,48.48,11.78Z"/><path class="cls-10" d="M54.73,42.34a4.33,4.33,0,0,0-.1,5.33,2.71,2.71,0,0,0,2.15,1c1.09-.16,3.22-4.34.25-6.37a2.73,2.73,0,0,0,.53-.81c.31-.8,0-1.72-.18-1.51a12.45,12.45,0,0,0-.58,1.2,3.19,3.19,0,0,0-.29-.92c-.34-.79-1.29-1.09-1.29-1a7.66,7.66,0,0,0,.44,1.33A4.3,4.3,0,0,0,54.5,40c-.59-.23-1.34-.14-1.27.09a6.09,6.09,0,0,0,1.45,1.4s-1.26-.27-1.1.06A1.55,1.55,0,0,0,54.73,42.34Z"/><path class="cls-11" d="M32.9,36.88c-.06,1.09,1.75,4.16,4,6.55s3.18,3.7,4.53,4.15c0,0,4.15,4.21,3.26,14.43s-9,16.67-21,15.39a11.62,11.62,0,0,0,5.05,6.53s15.57,1.3,24.46-7.7,7.75-27.58-.26-35.05c-5.28-4.92-9.7-5.26-10.73-5a20.12,20.12,0,0,1-4.41-2.82A2,2,0,0,0,36,32.6,4.71,4.71,0,0,0,32.9,36.88Z"/><path class="cls-12" d="M45.77,54.56l-1.44-.17c.09.47.17,1,.24,1.49A3,3,0,0,0,45.77,54.56Z"/><path class="cls-13" d="M39.16,75.76c4.26-2.51,4-7.9,4-7.9h0A16,16,0,0,1,31.26,77.1h0A11.81,11.81,0,0,0,39.16,75.76Z"/><path class="cls-14" d="M42.24,48.73A6.17,6.17,0,0,1,45.9,53l-2.08-.6A19.9,19.9,0,0,0,42.24,48.73Z"/><path class="cls-11" d="M56.56,43c0-.17-.27-.3-.7-.45a9.74,9.74,0,0,0-2.58-.8,1.36,1.36,0,0,0-1.53.66s.15.16.39.39.53.58.83.92c.15.18.28.36.41.53a5.14,5.14,0,0,1,.35.47l.32.48,1.33-.86C56,43.87,56.62,43.32,56.56,43Z"/><polygon class="cls-11" points="55.38 44.33 55.38 44.33 55.39 44.33 55.38 44.33"/><path class="cls-11" d="M58.64,46.81c0-.18-.29-.34-.72-.47a5.89,5.89,0,0,0-.72-.17c-.26,0-.54-.08-.81-.1.68-.4,1.33-.88,1.31-1.21,0-.09-.09-.17-.22-.24a2.57,2.57,0,0,0-.55-.17,7.16,7.16,0,0,0-.73-.1,7.36,7.36,0,0,0-.82,0l-1.33.86.09.13.22.36.3.51.32.61.16.31c0,.1.1.2.14.3s.18.39.26.55.12.3.16.39l.06.15,1.47-.6C57.94,47.56,58.64,47.14,58.64,46.81Z"/><path class="cls-11" d="M60,50.87c0-.17-.22-.38-.63-.57a8.7,8.7,0,0,0-1.47-.51c.74-.28,1.47-.65,1.49-1s-.26-.36-.67-.53a9.2,9.2,0,0,0-1.51-.39h0l-1.47.6.22.55c.12.33.28.77.43,1.22s.29.91.37,1.26.14.57.14.57l1.55-.37C59.22,51.5,60,51.19,60,50.87Z"/><path class="cls-11" d="M60.81,55.05c0-.16-.19-.4-.55-.64a8.17,8.17,0,0,0-1.39-.71c.77-.17,1.54-.43,1.62-.75s-.21-.39-.6-.61a8.19,8.19,0,0,0-1.42-.61h0l-1.55.37s.07.23.14.58.18.82.25,1.29c0,.24.08.47.11.69l.08.61c0,.18,0,.33.06.43s0,.16,0,.16l1.58-.16C59.93,55.57,60.72,55.37,60.81,55.05Z"/><path class="cls-11" d="M61,59.3c.07-.16-.13-.43-.47-.72a8.26,8.26,0,0,0-1.27-.87c.78-.08,1.57-.23,1.69-.54s-.88-1-1.84-1.47l-1.58.16s0,.24.06.6c0,.18,0,.39,0,.61s0,.46,0,.7,0,.24,0,.36v1a3,3,0,0,1,0,.43v.16l1.58,0C60.1,59.7,60.91,59.59,61,59.3Z"/><polygon class="cls-11" points="59.15 55.7 59.15 55.7 59.16 55.7 59.15 55.7"/><path class="cls-11" d="M57.62,61.59c0,.48-.11.95-.14,1.31l-.1.58,1.57.25c.78.08,1.59.09,1.77-.19s-.07-.44-.37-.77a9.19,9.19,0,0,0-1.15-1c.79,0,1.6,0,1.75-.31s-.1-.43-.41-.74a9.23,9.23,0,0,0-1.23-1h0l-1.58,0,0,.6C57.7,60.64,57.65,61.12,57.62,61.59Z"/><polygon class="cls-11" points="58.95 63.73 58.95 63.73 58.95 63.73 58.95 63.73"/><path class="cls-11" d="M57,65.35c-.06.23-.11.46-.17.68s-.05.21-.07.31-.06.19-.09.27l-.17.57,1.52.47c.76.2,1.56.32,1.77.07s0-.45-.24-.82a9.29,9.29,0,0,0-1-1.19c.77.14,1.59.2,1.77-.07s-.56-1.19-1.39-1.91l-1.57-.25s0,.24-.09.59S57.13,64.89,57,65.35Z"/><path class="cls-11" d="M56.34,67.74c-.12.33-.27.78-.45,1.21l-.27.64-.26.54c-.07.16-.13.29-.18.38l-.07.14,1.41.73c.72.32,1.49.57,1.74.36s.07-.45-.11-.86a8,8,0,0,0-.79-1.33c.74.25,1.53.44,1.77.21s0-.45-.19-.84a7.4,7.4,0,0,0-.9-1.26h0l-1.52-.48,0,.15C56.45,67.43,56.4,67.57,56.34,67.74Z"/><path class="cls-11" d="M54.54,71.69l-.36.57c-.06.1-.12.2-.19.3l-.19.27-.34.48c-.1.14-.2.25-.26.33l-.1.12,1.24,1c.64.46,1.35.87,1.65.7.15-.08.15-.43,0-.87a7.24,7.24,0,0,0-.53-1.46c.69.39,1.43.72,1.7.52s.13-.43,0-.86a8.43,8.43,0,0,0-.67-1.4h0l-1.41-.73-.28.51C54.74,71.32,54.66,71.5,54.54,71.69Z"/><polygon class="cls-11" points="54.34 74.76 54.34 74.76 54.34 74.76 54.34 74.76"/><path class="cls-11" d="M52.34,74.64c-.14.16-.29.33-.46.49l-.49.48-.23.21L51,76l-.44.38,1,1.23c.53.57,1.14,1.12,1.46,1s.25-.38.24-.83a8.8,8.8,0,0,0-.2-1.54c.58.52,1.24,1,1.54.86s.21-.41.16-.85a4.34,4.34,0,0,0-.13-.73c-.07-.26-.15-.53-.24-.78l-1.24-1-.36.45C52.63,74.34,52.49,74.48,52.34,74.64Z"/><path class="cls-11" d="M50.05,76.74l-.48.36c-.17.13-.37.26-.56.39-.38.28-.79.51-1.09.7l-.37.21-.14.08.78,1.39c.42.66.92,1.3,1.25,1.27.17,0,.3-.34.38-.78,0-.22.06-.47.08-.73s0-.55,0-.82c.47.62,1,1.22,1.36,1.15.17,0,.27-.35.31-.8a6,6,0,0,0,0-.74,7.59,7.59,0,0,0-.07-.81h0l-1-1.23-.13.1C50.31,76.55,50.19,76.63,50.05,76.74Z"/><path class="cls-11" d="M46.35,79c-.2.09-.4.21-.62.3-.44.19-.87.39-1.2.52l-.56.22.57,1.48c.32.72.71,1.43,1,1.44s.35-.28.49-.7a9,9,0,0,0,.32-1.52c.37.69.82,1.38,1.15,1.36.17,0,.33-.31.44-.73a9.71,9.71,0,0,0,.21-1.54h0l-.78-1.39-.52.28C46.74,78.85,46.55,78.94,46.35,79Z"/><path class="cls-11" d="M42.16,80.7l-1.27.36-.58.15.38,1.54c.23.75.54,1.5.86,1.56s.8-1,1.08-2.1c.27.74.62,1.47.95,1.51s.74-1.1,1-2.16h0L44,80.08l-.56.2C43.08,80.41,42.62,80.55,42.16,80.7Z"/><path class="cls-11" d="M39.12,81.48l-.7.14c-1,.18-1.91.31-1.91.31l.22,1.58c.15.77.38,1.54.69,1.63s.9-1,1.29-2c.2.76.46,1.53.78,1.6.17,0,.38-.21.6-.6a9.21,9.21,0,0,0,.59-1.43h0l-.38-1.54-.59.14Z"/><path class="cls-11" d="M32.64,82.29l.07,1.58c.08.78.24,1.58.54,1.7s1-.87,1.47-1.83c.12.77.31,1.56.62,1.66.16.06.4-.17.65-.53a9.54,9.54,0,0,0,.73-1.36h0l-.22-1.58s-1,.14-1.93.22S32.64,82.29,32.64,82.29Z"/><path class="cls-11" d="M30.7,82.33c-1,0-1.93-.06-1.88-.06l-.14,1.58c0,.79.06,1.6.36,1.75s1.08-.77,1.66-1.68c0,.78.16,1.59.45,1.72s1-.82,1.56-1.77h0l-.07-1.59-.61,0Z"/><path class="cls-15" d="M39.39,41a3.11,3.11,0,0,1,3.27,1.83C41.6,43.37,40,42.49,39.39,41Z"/><path class="cls-11" d="M40.88,50.08a4.32,4.32,0,0,1,4.83,2.26,2.68,2.68,0,0,1,0,2.38c-.62.91-5.31,1-5.82-2.59a2.6,2.6,0,0,1-1,.12c-.85-.07-1.53-.79-1.28-.83s1.26,0,1.33,0a3.36,3.36,0,0,1-.69-.67c-.55-.65-.41-1.63-.3-1.59a7.76,7.76,0,0,1,1,1,4.36,4.36,0,0,1,0-1.31c.06-.64.48-1.27.64-1.1a5.83,5.83,0,0,1,.62,1.93s.31-1.26.54-1A1.55,1.55,0,0,1,40.88,50.08Z"/><path class="cls-11" d="M37.25,76.54c2.14-.12,4.27-2.16,4.87-4.77s-1.61-5.6-5.07-4.1a7.11,7.11,0,0,0,1-1.31c.22-.47-.26-.38-.69,0,0,0,.4-2.14-.09-2.16s-1.31,1-1.62,1.88c0,0-.25-1.34-.64-1.23s-.63,1.54-.35,2.41c0,0-.74-.55-.89-.18s.63,1.12,1.3,1.51C33.9,69.74,32.72,76.79,37.25,76.54Z"/><path class="cls-15" d="M34.26,36.4c-.17-.17-.52.24-.36.54s.46.49.5.38A1.45,1.45,0,0,0,34.26,36.4Z"/><path class="cls-16" d="M31.63,29.78A21.59,21.59,0,0,0,21.54,14.34c7.18,8.44,5.73,21.46-1.77,32.49h0C23.12,42.84,30.35,37.55,31.63,29.78Z"/><path class="cls-17" d="M24.81,59.24c1.57-5.21,7.68-15.13,7.62-26a25.52,25.52,0,0,0-.57-5.88C30.31,35.1,23.25,43,19.77,46.83h0c-.1.12-.19.24-.28.37-7.67,10.26-9.41,22.3-5.63,32.28s15,10.44,27.6,10.44C23.42,85,21.37,70.65,24.81,59.24Z"/><path class="cls-18" d="M30.08,49.54C27.32,45.48,24.86,43.62,22.3,37s-3.56-18.36-3.76-18.52-1.4.33-3.06,5.19a60.42,60.42,0,0,0-2.33,11c-.63.89-2.91,6.91-1.32,13.34a18.85,18.85,0,0,1-5.37-.44c-2.07-.46-3.42-1-3.52-.89A12.44,12.44,0,0,0,8.43,52.9a21.36,21.36,0,0,0,7.17,2.35c7.58,8.66,18.74,7.62,19.61,7.06S32.67,53.34,30.08,49.54Z"/><path class="cls-19" d="M22.31,56.45a3.12,3.12,0,0,1,2.5,2.79C23.64,59.39,22.36,58,22.31,56.45Z"/><rect class="cls-20" x="7.72" y="86.56" width="52.66" height="11.7"/><rect class="cls-21" y="91.47" width="68.1" height="6.78"/></g></g></svg>