<svg xmlns="http://www.w3.org/2000/svg" viewBox="0 0 41.6 86.64"><defs><style>.cls-1{fill:#dde4eb;}.cls-2{fill:#cdd4dc;}.cls-3{fill:#f0f8ff;}.cls-4{fill:#ffc32b;}.cls-5{fill:#ffb52b;}.cls-6{fill:#ccd3d9;}</style></defs><g id="Layer_2" data-name="Layer 2"><g id="OBJECTS"><polygon class="cls-1" points="22.96 14.79 18.63 14.79 14.49 70.07 27.09 70.07 22.96 14.79"/><polygon class="cls-2" points="20.79 70.07 27.09 70.07 22.96 14.79 20.79 14.79 20.79 70.07"/><rect class="cls-3" x="9.45" y="77.02" width="22.7" height="2.81"/><rect class="cls-1" x="5.46" y="79.79" width="30.68" height="2.21"/><rect class="cls-3" x="2.09" y="82" width="37.41" height="2.21"/><rect class="cls-1" y="84.21" width="41.6" height="2.44"/><path class="cls-4" d="M19,12.26A6.1,6.1,0,0,1,17.81,9c0-1.66,3-9,3-9V12.26Z"/><path class="cls-5" d="M22.59,12.26A6.1,6.1,0,0,0,23.79,9c0-1.66-3-9-3-9V12.26Z"/><path class="cls-6" d="M19.15,69H2.09v2.1S7.6,73,9.45,77h22.7c1.85-4,7.35-5.9,7.35-5.9V69Z"/><rect class="cls-3" x="2.09" y="69.02" width="37.41" height="2.1"/><path class="cls-6" d="M20.28,11.79h-4v.93a4.75,4.75,0,0,1,2.24,2.61H23a4.79,4.79,0,0,1,2.25-2.61v-.93Z"/><rect class="cls-3" x="16.32" y="11.79" width="8.95" height="0.93"/></g></g></svg>