<svg xmlns="http://www.w3.org/2000/svg" xmlns:xlink="http://www.w3.org/1999/xlink" viewBox="0 0 99.91 94.82"><defs><style>.cls-1{fill:none;}.cls-2{isolation:isolate;}.cls-3{fill:#bababa;}.cls-4{fill:#787878;}.cls-5{fill:#a6a6a6;}.cls-6{fill:#999;}.cls-7{fill:#454545;}.cls-8{fill:#ebebeb;mix-blend-mode:multiply;}.cls-9{fill:#5c5c5c;}.cls-10{fill:gray;}.cls-11{clip-path:url(#clip-path);}</style><clipPath id="clip-path" transform="translate(9.99)"><rect class="cls-1" y="52.64" width="79.93" height="22.68"/></clipPath></defs><g class="cls-2"><g id="Layer_2" data-name="Layer 2"><g id="OBJECTS"><path class="cls-3" d="M57,42.79c-.78-12.91-7.52-17.66-9.08-17.66H32c-1.57,0-8.3,4.75-9.08,17.66a9.17,9.17,0,0,0-3.83,7.08H60.81A9.17,9.17,0,0,0,57,42.79Z" transform="translate(9.99)"/><path class="cls-4" d="M57.81,42.39a.7.7,0,0,1-.7.7H22.83a.7.7,0,0,1-.71-.7h0a.7.7,0,0,1,.71-.7H57.11a.7.7,0,0,1,.7.7Z" transform="translate(9.99)"/><rect class="cls-5" x="41.81" y="20.83" width="16.3" height="4.3"/><polygon class="cls-4" points="51.62 0 48.28 0 46.97 20.81 53.14 20.81 51.62 0"/><path class="cls-6" d="M64.14,54.78V53.16a3.71,3.71,0,0,0-3.7-3.71H19.5a3.71,3.71,0,0,0-3.71,3.71v1.62Z" transform="translate(9.99)"/><path class="cls-7" d="M68.18,60.55V58.66a4.32,4.32,0,0,0-4.32-4.33H16.08a4.33,4.33,0,0,0-4.33,4.33v1.89Z" transform="translate(9.99)"/><path class="cls-8" d="M64.14,54.36v-1.2a3.71,3.71,0,0,0-3.37-3.68A9.31,9.31,0,0,0,57,42.79c-.78-12.91-7.52-17.66-9.08-17.66h.22v-4.3h-5l0,0L41.62,0H40V60.55H68.18V58.66A4.31,4.31,0,0,0,64.14,54.36Z" transform="translate(9.99)"/><rect class="cls-7" x="9.99" y="61.08" width="79.93" height="33.74"/><rect class="cls-9" x="9.99" y="61.08" width="79.93" height="1.15"/><rect class="cls-9" x="9.99" y="72.14" width="79.93" height="22.68"/><rect class="cls-10" x="9.99" y="72.14" width="79.93" height="0.55"/><path class="cls-3" d="M16,55.46c-.28-4.57-2.66-6.26-3.22-6.26H7.18c-.55,0-2.94,1.69-3.21,6.26A3.23,3.23,0,0,0,2.61,58H17.37A3.24,3.24,0,0,0,16,55.46Z" transform="translate(9.99)"/><rect class="cls-5" x="17.1" y="47.68" width="5.78" height="1.52"/><polygon class="cls-4" points="20.57 43.41 19.39 43.41 18.92 47.67 21.11 47.67 20.57 43.41"/><path class="cls-5" d="M18.55,59.7v-.57a1.32,1.32,0,0,0-1.31-1.32H2.74a1.32,1.32,0,0,0-1.31,1.32v.57Z" transform="translate(9.99)"/><path class="cls-4" d="M20,61.74v-.66a1.53,1.53,0,0,0-1.53-1.54H1.53A1.54,1.54,0,0,0,0,61.08v.66Z" transform="translate(9.99)"/><rect class="cls-4" x="8.02" y="49.59" width="0.95" height="0.95" transform="translate(-22.95 20.7) rotate(-45.04)"/><rect class="cls-4" x="11.01" y="49.59" width="0.95" height="0.95" transform="translate(-22.07 22.82) rotate(-45.05)"/><rect class="cls-4" x="6.52" y="51.87" width="0.95" height="0.95" transform="translate(-25.07 20.4) rotate(-45.17)"/><polygon class="cls-4" points="19.31 52.35 19.98 53.02 20.66 52.35 19.98 51.67 19.31 52.35"/><rect class="cls-4" x="12.51" y="51.87" width="0.95" height="0.95" transform="translate(-23.26 24.58) rotate(-45.09)"/><rect class="cls-4" x="5.02" y="54.15" width="0.95" height="0.95" transform="translate(-27.07 19.95) rotate(-45.08)"/><rect class="cls-4" x="8.02" y="54.15" width="0.95" height="0.95" transform="translate(-26.14 22) rotate(-45)"/><rect class="cls-4" x="11.01" y="54.15" width="0.95" height="0.95" transform="translate(-25.27 24.13) rotate(-45)"/><rect class="cls-4" x="14.01" y="54.15" width="0.95" height="0.95" transform="translate(-24.43 26.31) rotate(-45.08)"/><rect class="cls-4" x="3.53" y="56.42" width="0.95" height="0.95" transform="translate(-29.07 19.5) rotate(-45)"/><rect class="cls-4" x="6.52" y="56.42" width="0.95" height="0.95" transform="translate(-28.24 21.68) rotate(-45.08)"/><rect class="cls-4" x="9.51" y="56.42" width="0.95" height="0.95" transform="translate(-27.27 23.66) rotate(-44.92)"/><rect class="cls-4" x="12.51" y="56.42" width="0.95" height="0.95" transform="translate(-26.44 25.85) rotate(-45)"/><rect class="cls-4" x="15.5" y="56.42" width="0.95" height="0.95" transform="translate(-25.5 27.85) rotate(-44.88)"/><path class="cls-8" d="M18.55,59.55v-.42a1.3,1.3,0,0,0-1.19-1.3A3.3,3.3,0,0,0,16,55.46c-.28-4.57-2.66-6.26-3.22-6.26h.08V47.68H11.12l-.54-4.26H10V61.74H20v-.66A1.53,1.53,0,0,0,18.55,59.55Z" transform="translate(9.99)"/><path class="cls-3" d="M36,55.46c-.28-4.57-2.66-6.26-3.21-6.26H27.16c-.55,0-2.94,1.69-3.21,6.26A3.23,3.23,0,0,0,22.59,58H37.36A3.23,3.23,0,0,0,36,55.46Z" transform="translate(9.99)"/><rect class="cls-5" x="37.08" y="47.68" width="5.77" height="1.52"/><polygon class="cls-4" points="40.55 43.41 39.37 43.41 38.91 47.67 41.09 47.67 40.55 43.41"/><path class="cls-5" d="M38.53,59.7v-.57a1.31,1.31,0,0,0-1.31-1.32H22.73a1.32,1.32,0,0,0-1.32,1.32v.57Z" transform="translate(9.99)"/><path class="cls-4" d="M40,61.74v-.66a1.53,1.53,0,0,0-1.52-1.54H21.51A1.54,1.54,0,0,0,20,61.08v.66Z" transform="translate(9.99)"/><rect class="cls-4" x="28" y="49.59" width="0.95" height="0.95" transform="translate(-17.08 34.84) rotate(-45.04)"/><rect class="cls-4" x="30.99" y="49.59" width="0.95" height="0.95" transform="translate(-16.2 36.96) rotate(-45.04)"/><rect class="cls-4" x="26.5" y="51.87" width="0.95" height="0.95" transform="translate(-19.14 34.49) rotate(-45.08)"/><polygon class="cls-4" points="39.29 52.35 39.97 53.02 40.64 52.35 39.97 51.67 39.29 52.35"/><polygon class="cls-4" points="42.29 52.35 42.96 53.02 43.63 52.35 42.96 51.67 42.29 52.35"/><rect class="cls-4" x="25.01" y="54.15" width="0.95" height="0.95" transform="translate(-21.2 34.1) rotate(-45.08)"/><rect class="cls-4" x="28" y="54.15" width="0.95" height="0.95" transform="translate(-20.29 36.14) rotate(-45)"/><rect class="cls-4" x="30.99" y="54.15" width="0.95" height="0.95" transform="translate(-19.41 38.25) rotate(-45)"/><rect class="cls-4" x="33.99" y="54.15" width="0.95" height="0.95" transform="translate(-18.52 40.28) rotate(-44.92)"/><rect class="cls-4" x="23.51" y="56.42" width="0.95" height="0.95" transform="translate(-23.25 33.71) rotate(-45.08)"/><rect class="cls-4" x="26.5" y="56.42" width="0.95" height="0.95" transform="translate(-22.34 35.74) rotate(-45)"/><rect class="cls-4" x="29.5" y="56.42" width="0.95" height="0.95" transform="translate(-21.43 37.77) rotate(-44.91)"/><rect class="cls-4" x="32.49" y="56.42" width="0.95" height="0.95" transform="translate(-20.56 39.89) rotate(-44.92)"/><rect class="cls-4" x="35.48" y="56.42" width="0.95" height="0.95" transform="translate(-19.7 42.05) rotate(-44.96)"/><path class="cls-8" d="M38.53,59.55v-.42a1.3,1.3,0,0,0-1.19-1.3A3.3,3.3,0,0,0,36,55.46c-.28-4.57-2.66-6.26-3.21-6.26h.07V47.68H31.1l-.54-4.26H30V61.74H40v-.66A1.53,1.53,0,0,0,38.53,59.55Z" transform="translate(9.99)"/><path class="cls-3" d="M56,55.46c-.27-4.57-2.66-6.26-3.21-6.26H47.14c-.55,0-2.93,1.69-3.21,6.26A3.24,3.24,0,0,0,42.58,58H57.34A3.23,3.23,0,0,0,56,55.46Z" transform="translate(9.99)"/><rect class="cls-5" x="57.06" y="47.68" width="5.77" height="1.52"/><polygon class="cls-4" points="60.53 43.41 59.35 43.41 58.89 47.67 61.08 47.67 60.53 43.41"/><path class="cls-5" d="M58.52,59.7v-.57a1.32,1.32,0,0,0-1.31-1.32H42.71a1.31,1.31,0,0,0-1.31,1.32v.57Z" transform="translate(9.99)"/><path class="cls-4" d="M60,61.74v-.66a1.54,1.54,0,0,0-1.53-1.54H41.5A1.54,1.54,0,0,0,40,61.08v.66Z" transform="translate(9.99)"/><rect class="cls-4" x="47.98" y="49.59" width="0.95" height="0.95" transform="translate(-11.22 48.98) rotate(-45.04)"/><rect class="cls-4" x="50.98" y="49.59" width="0.95" height="0.95" transform="translate(-10.34 51.1) rotate(-45.04)"/><polygon class="cls-4" points="56.28 52.35 56.96 53.02 57.63 52.35 56.96 51.67 56.28 52.35"/><rect class="cls-4" x="49.48" y="51.87" width="0.95" height="0.95" transform="translate(-12.39 50.76) rotate(-45.08)"/><polygon class="cls-4" points="62.27 52.35 62.94 53.02 63.62 52.35 62.94 51.67 62.27 52.35"/><rect class="cls-4" x="44.99" y="54.15" width="0.95" height="0.95" transform="translate(-15.32 48.25) rotate(-45.08)"/><rect class="cls-4" x="47.98" y="54.15" width="0.95" height="0.95" transform="translate(-14.44 50.27) rotate(-45)"/><rect class="cls-4" x="50.98" y="54.15" width="0.95" height="0.95" transform="translate(-13.56 52.38) rotate(-45)"/><rect class="cls-4" x="53.97" y="54.15" width="0.95" height="0.95" transform="translate(-12.68 54.5) rotate(-45)"/><rect class="cls-4" x="43.49" y="56.42" width="0.95" height="0.95" transform="translate(-17.36 47.76) rotate(-45)"/><rect class="cls-4" x="46.49" y="56.42" width="0.95" height="0.95" transform="translate(-16.5 49.98) rotate(-45.09)"/><rect class="cls-4" x="49.48" y="56.42" width="0.95" height="0.95" transform="translate(-15.61 51.99) rotate(-45)"/><rect class="cls-4" x="52.47" y="56.42" width="0.95" height="0.95" transform="translate(-14.73 54) rotate(-44.92)"/><rect class="cls-4" x="55.47" y="56.42" width="0.95" height="0.95" transform="translate(-13.86 56.17) rotate(-44.96)"/><path class="cls-8" d="M58.52,59.55v-.42a1.31,1.31,0,0,0-1.2-1.3A3.26,3.26,0,0,0,56,55.46c-.27-4.57-2.66-6.26-3.21-6.26h.07V47.68H51.08l-.54-4.26H50V61.74H60v-.66A1.54,1.54,0,0,0,58.52,59.55Z" transform="translate(9.99)"/><path class="cls-3" d="M76,55.46c-.27-4.57-2.66-6.26-3.21-6.26H67.13c-.55,0-2.94,1.69-3.21,6.26A3.23,3.23,0,0,0,62.56,58H77.32A3.23,3.23,0,0,0,76,55.46Z" transform="translate(9.99)"/><rect class="cls-5" x="77.04" y="47.68" width="5.78" height="1.52"/><polygon class="cls-4" points="80.52 43.41 79.34 43.41 78.87 47.67 81.06 47.67 80.52 43.41"/><path class="cls-5" d="M78.5,59.7v-.57a1.32,1.32,0,0,0-1.31-1.32H62.69a1.32,1.32,0,0,0-1.31,1.32v.57Z" transform="translate(9.99)"/><path class="cls-4" d="M79.93,61.74v-.66a1.54,1.54,0,0,0-1.53-1.54H61.48A1.53,1.53,0,0,0,60,61.08v.66Z" transform="translate(9.99)"/><rect class="cls-4" x="67.97" y="49.59" width="0.95" height="0.95" transform="translate(-5.36 63.12) rotate(-45.04)"/><rect class="cls-4" x="70.96" y="49.59" width="0.95" height="0.95" transform="translate(-4.48 65.24) rotate(-45.04)"/><rect class="cls-4" x="66.47" y="51.87" width="0.95" height="0.95" transform="translate(-7.4 62.79) rotate(-45.08)"/><rect class="cls-4" x="69.46" y="51.87" width="0.95" height="0.95" transform="translate(-6.52 64.91) rotate(-45.08)"/><rect class="cls-4" x="72.46" y="51.87" width="0.95" height="0.95" transform="translate(-5.64 67.04) rotate(-45.09)"/><rect class="cls-4" x="64.97" y="54.15" width="0.95" height="0.95" transform="translate(-9.45 62.4) rotate(-45.08)"/><rect class="cls-4" x="67.97" y="54.15" width="0.95" height="0.95" transform="translate(-8.59 64.4) rotate(-45)"/><rect class="cls-4" x="70.96" y="54.15" width="0.95" height="0.95" transform="translate(-7.71 66.51) rotate(-45)"/><rect class="cls-4" x="73.95" y="54.15" width="0.95" height="0.95" transform="translate(-6.83 68.64) rotate(-45)"/><rect class="cls-4" x="63.48" y="56.42" width="0.95" height="0.95" transform="translate(-11.51 61.89) rotate(-45)"/><rect class="cls-4" x="66.47" y="56.42" width="0.95" height="0.95" transform="translate(-10.63 64) rotate(-45)"/><rect class="cls-4" x="69.46" y="56.42" width="0.95" height="0.95" transform="translate(-9.76 66.12) rotate(-45)"/><rect class="cls-4" x="72.46" y="56.42" width="0.95" height="0.95" transform="translate(-8.88 68.24) rotate(-45)"/><rect class="cls-4" x="75.45" y="56.42" width="0.95" height="0.95" transform="translate(-8.01 70.28) rotate(-44.96)"/><path class="cls-8" d="M78.5,59.55v-.42a1.31,1.31,0,0,0-1.19-1.3A3.29,3.29,0,0,0,76,55.46c-.27-4.57-2.66-6.26-3.21-6.26h.08V47.68H71.07l-.54-4.26h-.59V61.74h10v-.66A1.53,1.53,0,0,0,78.5,59.55Z" transform="translate(9.99)"/><g class="cls-11"><path class="cls-3" d="M6,65.85c-.27-4.57-2.66-6.25-3.21-6.25H-2.81c-.56,0-2.94,1.68-3.22,6.25a3.27,3.27,0,0,0-1.35,2.51H7.38A3.26,3.26,0,0,0,6,65.85Z" transform="translate(9.99)"/><rect class="cls-5" x="7.1" y="58.08" width="5.78" height="1.52"/><polygon class="cls-4" points="10.58 53.8 9.4 53.8 8.93 58.07 11.12 58.07 10.58 53.8"/><path class="cls-5" d="M8.56,70.1v-.57a1.32,1.32,0,0,0-1.31-1.32H-7.25a1.32,1.32,0,0,0-1.31,1.32v.57Z" transform="translate(9.99)"/><path class="cls-4" d="M10,72.14v-.67a1.54,1.54,0,0,0-1.53-1.53H-8.46A1.53,1.53,0,0,0-10,71.47v.67Z" transform="translate(9.99)"/><rect class="cls-4" x="-1.97" y="59.99" width="0.95" height="0.95" transform="translate(-33.23 16.68) rotate(-45.04)"/><rect class="cls-4" x="1.02" y="59.99" width="0.95" height="0.95" transform="translate(-32.36 18.8) rotate(-45.04)"/><rect class="cls-4" x="-3.47" y="62.27" width="0.95" height="0.95" transform="translate(-35.38 16.38) rotate(-45.16)"/><polygon class="cls-4" points="9.32 62.74 9.99 63.42 10.67 62.74 9.99 62.07 9.32 62.74"/><rect class="cls-4" x="2.52" y="62.27" width="0.95" height="0.95" transform="translate(-33.56 20.56) rotate(-45.09)"/><rect class="cls-4" x="-4.97" y="64.54" width="0.95" height="0.95" transform="translate(-37.37 15.93) rotate(-45.08)"/><rect class="cls-4" x="-1.97" y="64.54" width="0.95" height="0.95" transform="translate(-36.42 17.98) rotate(-45)"/><rect class="cls-4" x="1.02" y="64.54" width="0.95" height="0.95" transform="translate(-35.55 20.11) rotate(-45)"/><rect class="cls-4" x="4.01" y="64.54" width="0.95" height="0.95" transform="translate(-34.73 22.29) rotate(-45.08)"/><rect class="cls-4" x="-6.46" y="66.82" width="0.95" height="0.95" transform="translate(-39.35 15.48) rotate(-45)"/><rect class="cls-4" x="-3.47" y="66.82" width="0.95" height="0.95" transform="translate(-38.54 17.66) rotate(-45.08)"/><rect class="cls-4" x="-0.48" y="66.82" width="0.95" height="0.95" transform="translate(-37.52 19.64) rotate(-44.91)"/><rect class="cls-4" x="2.52" y="66.82" width="0.95" height="0.95" transform="translate(-36.72 21.83) rotate(-45)"/><rect class="cls-4" x="5.51" y="66.82" width="0.95" height="0.95" transform="translate(-35.74 23.83) rotate(-44.87)"/><path class="cls-8" d="M8.56,70v-.42a1.32,1.32,0,0,0-1.19-1.31A3.32,3.32,0,0,0,6,65.85c-.27-4.57-2.66-6.25-3.21-6.25h.08V58.08H1.13L.58,53.8H0V72.14H10v-.67A1.52,1.52,0,0,0,8.56,70Z" transform="translate(9.99)"/><path class="cls-3" d="M26,65.85c-.28-4.57-2.66-6.25-3.22-6.25H17.17c-.55,0-2.94,1.68-3.21,6.25a3.26,3.26,0,0,0-1.36,2.51H27.36A3.27,3.27,0,0,0,26,65.85Z" transform="translate(9.99)"/><rect class="cls-5" x="27.09" y="58.08" width="5.77" height="1.52"/><polygon class="cls-4" points="30.56 53.8 29.38 53.8 28.91 58.07 31.1 58.07 30.56 53.8"/><path class="cls-5" d="M28.54,70.1v-.57a1.32,1.32,0,0,0-1.31-1.32H12.73a1.32,1.32,0,0,0-1.31,1.32v.57Z" transform="translate(9.99)"/><path class="cls-4" d="M30,72.14v-.67a1.53,1.53,0,0,0-1.53-1.53H11.52A1.54,1.54,0,0,0,10,71.47v.67Z" transform="translate(9.99)"/><rect class="cls-4" x="18.01" y="59.99" width="0.95" height="0.95" transform="translate(-27.37 30.82) rotate(-45.04)"/><rect class="cls-4" x="21" y="59.99" width="0.95" height="0.95" transform="translate(-26.49 32.94) rotate(-45.04)"/><rect class="cls-4" x="16.51" y="62.27" width="0.95" height="0.95" transform="translate(-29.45 30.47) rotate(-45.09)"/><polygon class="cls-4" points="29.3 62.74 29.97 63.42 30.65 62.74 29.97 62.07 29.3 62.74"/><polygon class="cls-4" points="32.3 62.74 32.97 63.42 33.64 62.74 32.97 62.07 32.3 62.74"/><rect class="cls-4" x="15.01" y="64.54" width="0.95" height="0.95" transform="translate(-31.5 30.08) rotate(-45.08)"/><rect class="cls-4" x="18.01" y="64.54" width="0.95" height="0.95" transform="translate(-30.57 32.12) rotate(-45)"/><rect class="cls-4" x="21" y="64.54" width="0.95" height="0.95" transform="translate(-29.69 34.23) rotate(-45)"/><rect class="cls-4" x="24" y="64.54" width="0.95" height="0.95" transform="translate(-28.78 36.26) rotate(-44.92)"/><rect class="cls-4" x="13.52" y="66.82" width="0.95" height="0.95" transform="translate(-33.55 29.69) rotate(-45.08)"/><rect class="cls-4" x="16.51" y="66.82" width="0.95" height="0.95" transform="translate(-32.62 31.73) rotate(-45)"/><rect class="cls-4" x="19.51" y="66.82" width="0.95" height="0.95" transform="translate(-31.69 33.75) rotate(-44.91)"/><rect class="cls-4" x="22.5" y="66.82" width="0.95" height="0.95" transform="translate(-30.82 35.87) rotate(-44.92)"/><rect class="cls-4" x="25.49" y="66.82" width="0.95" height="0.95" transform="translate(-29.97 38.02) rotate(-44.96)"/><path class="cls-8" d="M28.54,70v-.42a1.31,1.31,0,0,0-1.19-1.31A3.32,3.32,0,0,0,26,65.85c-.28-4.57-2.66-6.25-3.22-6.25h.08V58.08H21.11l-.54-4.27H20V72.14H30v-.67A1.52,1.52,0,0,0,28.54,70Z" transform="translate(9.99)"/><path class="cls-3" d="M46,65.85c-.28-4.57-2.66-6.25-3.21-6.25H37.15c-.55,0-2.93,1.68-3.21,6.25a3.26,3.26,0,0,0-1.36,2.51H47.35A3.26,3.26,0,0,0,46,65.85Z" transform="translate(9.99)"/><rect class="cls-5" x="47.07" y="58.08" width="5.77" height="1.52"/><polygon class="cls-4" points="50.54 53.8 49.36 53.8 48.9 58.07 51.08 58.07 50.54 53.8"/><path class="cls-5" d="M48.53,70.1v-.57a1.32,1.32,0,0,0-1.32-1.32H32.72a1.31,1.31,0,0,0-1.31,1.32v.57Z" transform="translate(9.99)"/><path class="cls-4" d="M50,72.14v-.67a1.54,1.54,0,0,0-1.53-1.53H31.51A1.54,1.54,0,0,0,30,71.47v.67Z" transform="translate(9.99)"/><rect class="cls-4" x="37.99" y="59.99" width="0.95" height="0.95" transform="translate(-21.51 44.96) rotate(-45.04)"/><rect class="cls-4" x="40.98" y="59.99" width="0.95" height="0.95" transform="translate(-20.63 47.08) rotate(-45.04)"/><polygon class="cls-4" points="46.29 62.74 46.97 63.42 47.64 62.74 46.97 62.07 46.29 62.74"/><rect class="cls-4" x="39.49" y="62.27" width="0.95" height="0.95" transform="translate(-22.69 46.74) rotate(-45.08)"/><polygon class="cls-4" points="52.28 62.74 52.95 63.42 53.63 62.74 52.95 62.07 52.28 62.74"/><rect class="cls-4" x="35" y="64.54" width="0.95" height="0.95" transform="translate(-25.62 44.23) rotate(-45.08)"/><rect class="cls-4" x="37.99" y="64.54" width="0.95" height="0.95" transform="translate(-24.72 46.25) rotate(-45)"/><rect class="cls-4" x="40.98" y="64.54" width="0.95" height="0.95" transform="translate(-23.84 48.36) rotate(-45)"/><rect class="cls-4" x="43.98" y="64.54" width="0.95" height="0.95" transform="translate(-22.96 50.48) rotate(-45)"/><rect class="cls-4" x="33.5" y="66.82" width="0.95" height="0.95" transform="translate(-27.64 43.74) rotate(-45)"/><rect class="cls-4" x="36.5" y="66.82" width="0.95" height="0.95" transform="translate(-26.8 45.96) rotate(-45.08)"/><rect class="cls-4" x="39.49" y="66.82" width="0.95" height="0.95" transform="translate(-25.89 47.97) rotate(-45)"/><rect class="cls-4" x="42.48" y="66.82" width="0.95" height="0.95" transform="translate(-24.99 49.98) rotate(-44.92)"/><rect class="cls-4" x="45.48" y="66.82" width="0.95" height="0.95" transform="translate(-24.12 52.14) rotate(-44.95)"/><path class="cls-8" d="M48.53,70v-.42a1.32,1.32,0,0,0-1.2-1.31A3.32,3.32,0,0,0,46,65.85c-.28-4.57-2.66-6.25-3.21-6.25h.07V58.08H41.09l-.54-4.27H40V72.14H50v-.67A1.53,1.53,0,0,0,48.53,70Z" transform="translate(9.99)"/><path class="cls-3" d="M66,65.85c-.27-4.57-2.66-6.25-3.21-6.25H57.14c-.56,0-2.94,1.68-3.22,6.25a3.27,3.27,0,0,0-1.35,2.51H67.33A3.26,3.26,0,0,0,66,65.85Z" transform="translate(9.99)"/><rect class="cls-5" x="67.05" y="58.08" width="5.78" height="1.52"/><polygon class="cls-4" points="70.53 53.8 69.35 53.8 68.88 58.07 71.07 58.07 70.53 53.8"/><path class="cls-5" d="M68.51,70.1v-.57a1.32,1.32,0,0,0-1.31-1.32H52.7a1.31,1.31,0,0,0-1.31,1.32v.57Z" transform="translate(9.99)"/><path class="cls-4" d="M69.94,72.14v-.67a1.54,1.54,0,0,0-1.53-1.53H51.49A1.53,1.53,0,0,0,50,71.47v.67Z" transform="translate(9.99)"/><rect class="cls-4" x="57.97" y="59.99" width="0.95" height="0.95" transform="translate(-15.65 59.1) rotate(-45.04)"/><rect class="cls-4" x="60.97" y="59.99" width="0.95" height="0.95" transform="translate(-14.77 61.22) rotate(-45.04)"/><rect class="cls-4" x="56.48" y="62.27" width="0.95" height="0.95" transform="translate(-17.7 58.78) rotate(-45.09)"/><rect class="cls-4" x="59.47" y="62.27" width="0.95" height="0.95" transform="translate(-16.82 60.89) rotate(-45.08)"/><rect class="cls-4" x="62.47" y="62.27" width="0.95" height="0.95" transform="translate(-15.94 63.01) rotate(-45.08)"/><rect class="cls-4" x="54.98" y="64.54" width="0.95" height="0.95" transform="translate(-19.75 58.39) rotate(-45.08)"/><rect class="cls-4" x="57.97" y="64.54" width="0.95" height="0.95" transform="translate(-18.86 60.38) rotate(-45)"/><rect class="cls-4" x="60.97" y="64.54" width="0.95" height="0.95" transform="translate(-17.99 62.49) rotate(-45)"/><rect class="cls-4" x="63.96" y="64.54" width="0.95" height="0.95" transform="translate(-17.11 64.61) rotate(-45)"/><rect class="cls-4" x="53.48" y="66.82" width="0.95" height="0.95" transform="translate(-21.79 57.87) rotate(-45)"/><rect class="cls-4" x="56.48" y="66.82" width="0.95" height="0.95" transform="translate(-20.91 59.99) rotate(-45)"/><rect class="cls-4" x="59.47" y="66.82" width="0.95" height="0.95" transform="translate(-20.04 62.1) rotate(-45)"/><rect class="cls-4" x="62.47" y="66.82" width="0.95" height="0.95" transform="translate(-19.16 64.22) rotate(-45)"/><rect class="cls-4" x="65.46" y="66.82" width="0.95" height="0.95" transform="translate(-18.28 66.26) rotate(-44.95)"/><path class="cls-8" d="M68.51,70v-.42a1.32,1.32,0,0,0-1.2-1.31A3.29,3.29,0,0,0,66,65.85c-.27-4.57-2.66-6.25-3.21-6.25h.08V58.08H61.07l-.54-4.27H60V72.14h10v-.67A1.53,1.53,0,0,0,68.51,70Z" transform="translate(9.99)"/><path class="cls-3" d="M86,65.85c-.28-4.57-2.67-6.25-3.22-6.25H77.12c-.55,0-2.94,1.68-3.21,6.25a3.26,3.26,0,0,0-1.36,2.51H87.31A3.27,3.27,0,0,0,86,65.85Z" transform="translate(9.99)"/><rect class="cls-5" x="87.04" y="58.08" width="5.78" height="1.52"/><polygon class="cls-4" points="90.51 53.8 89.33 53.8 88.86 58.07 91.05 58.07 90.51 53.8"/><path class="cls-5" d="M88.49,70.1v-.57a1.32,1.32,0,0,0-1.31-1.32H72.68a1.32,1.32,0,0,0-1.31,1.32v.57Z" transform="translate(9.99)"/><path class="cls-4" d="M89.92,72.14v-.67a1.54,1.54,0,0,0-1.53-1.53H71.47a1.53,1.53,0,0,0-1.53,1.53v.67Z" transform="translate(9.99)"/><rect class="cls-4" x="77.96" y="59.99" width="0.95" height="0.95" transform="translate(-9.78 73.24) rotate(-45.04)"/><rect class="cls-4" x="80.95" y="59.99" width="0.95" height="0.95" transform="translate(-8.9 75.36) rotate(-45.04)"/><rect class="cls-4" x="76.46" y="62.27" width="0.95" height="0.95" transform="translate(-11.83 72.92) rotate(-45.08)"/><rect class="cls-4" x="79.45" y="62.27" width="0.95" height="0.95" transform="translate(-10.95 75.05) rotate(-45.08)"/><rect class="cls-4" x="82.45" y="62.27" width="0.95" height="0.95" transform="translate(-10.07 77.16) rotate(-45.08)"/><rect class="cls-4" x="74.96" y="64.54" width="0.95" height="0.95" transform="translate(-13.88 72.54) rotate(-45.08)"/><rect class="cls-4" x="77.96" y="64.54" width="0.95" height="0.95" transform="translate(-13.01 74.51) rotate(-45)"/><rect class="cls-4" x="80.95" y="64.54" width="0.95" height="0.95" transform="translate(-12.13 76.62) rotate(-45)"/><rect class="cls-4" x="83.94" y="64.54" width="0.95" height="0.95" transform="translate(-11.26 78.74) rotate(-45)"/><rect class="cls-4" x="73.47" y="66.82" width="0.95" height="0.95" transform="translate(-15.94 72) rotate(-45)"/><rect class="cls-4" x="76.46" y="66.82" width="0.95" height="0.95" transform="translate(-15.06 74.11) rotate(-45)"/><rect class="cls-4" x="79.45" y="66.82" width="0.95" height="0.95" transform="translate(-14.18 76.24) rotate(-45)"/><rect class="cls-4" x="82.45" y="66.82" width="0.95" height="0.95" transform="translate(-13.31 78.35) rotate(-45)"/><rect class="cls-4" x="85.44" y="66.82" width="0.95" height="0.95" transform="translate(-12.44 80.38) rotate(-44.96)"/><path class="cls-8" d="M88.49,70v-.42a1.32,1.32,0,0,0-1.19-1.31A3.32,3.32,0,0,0,86,65.85c-.28-4.57-2.67-6.25-3.22-6.25h.08V58.08H81.06l-.54-4.27h-.59V72.14h10v-.67A1.52,1.52,0,0,0,88.49,70Z" transform="translate(9.99)"/></g><path class="cls-7" d="M34.16,75.63A2.15,2.15,0,0,0,32,77.79v2.88h4.76V77.79a2.15,2.15,0,0,0-2.15-2.16Z" transform="translate(9.99)"/><path class="cls-7" d="M45.31,75.63a2.15,2.15,0,0,0-2.15,2.16v2.88h4.76V77.79a2.15,2.15,0,0,0-2.15-2.16Z" transform="translate(9.99)"/><path class="cls-7" d="M67.62,75.63a2.16,2.16,0,0,0-2.16,2.16v2.88h4.77V77.79a2.15,2.15,0,0,0-2.15-2.16Z" transform="translate(9.99)"/><path class="cls-7" d="M56.46,75.63a2.15,2.15,0,0,0-2.15,2.16v2.88h4.77V77.79a2.16,2.16,0,0,0-2.16-2.16Z" transform="translate(9.99)"/><path class="cls-7" d="M23,75.63a2.16,2.16,0,0,0-2.16,2.16v2.88h4.77V77.79a2.15,2.15,0,0,0-2.15-2.16Z" transform="translate(9.99)"/><path class="cls-7" d="M11.86,75.63A2.15,2.15,0,0,0,9.7,77.79v2.88h4.77V77.79a2.16,2.16,0,0,0-2.16-2.16Z" transform="translate(9.99)"/><path class="cls-7" d="M79.93,75.76a2,2,0,0,0-.7-.13h-.46a2.15,2.15,0,0,0-2.15,2.16v2.88h3.31Z" transform="translate(9.99)"/><path class="cls-7" d="M0,80.67H3.31V77.79a2.15,2.15,0,0,0-2.15-2.16H.7a2.07,2.07,0,0,0-.7.13Z" transform="translate(9.99)"/><path class="cls-7" d="M8.89,90.83V87.94a2.15,2.15,0,0,0-2.15-2.15H6.28a2.15,2.15,0,0,0-2.15,2.15v2.89Z" transform="translate(9.99)"/><path class="cls-7" d="M20,90.83V87.94a2.15,2.15,0,0,0-2.15-2.15h-.46a2.15,2.15,0,0,0-2.15,2.15v2.89Z" transform="translate(9.99)"/><path class="cls-7" d="M31.2,90.83V87.94A2.16,2.16,0,0,0,29,85.79h-.46a2.15,2.15,0,0,0-2.15,2.15v2.89Z" transform="translate(9.99)"/><path class="cls-7" d="M42.35,90.83V87.94a2.16,2.16,0,0,0-2.16-2.15h-.45a2.16,2.16,0,0,0-2.16,2.15v2.89Z" transform="translate(9.99)"/><path class="cls-7" d="M53.5,90.83V87.94a2.15,2.15,0,0,0-2.15-2.15h-.46a2.15,2.15,0,0,0-2.15,2.15v2.89Z" transform="translate(9.99)"/><path class="cls-7" d="M64.65,90.83V87.94a2.15,2.15,0,0,0-2.15-2.15H62a2.15,2.15,0,0,0-2.15,2.15v2.89Z" transform="translate(9.99)"/><path class="cls-7" d="M75.8,90.83V87.94a2.15,2.15,0,0,0-2.15-2.15h-.46A2.15,2.15,0,0,0,71,87.94v2.89Z" transform="translate(9.99)"/></g></g></g></svg>