<svg xmlns="http://www.w3.org/2000/svg" xmlns:xlink="http://www.w3.org/1999/xlink" viewBox="0 0 31.35 70.95"><defs><style>.cls-1{fill:none;}.cls-2{clip-path:url(#clip-path);}.cls-3{fill:#658f2e;}.cls-4{fill:#557626;}.cls-5{fill:#77a636;}.cls-6{fill:#806147;}</style><clipPath id="clip-path" transform="translate(13.39 -1.29)"><rect class="cls-1" width="20.48" height="72.24"/></clipPath></defs><g id="Layer_2" data-name="Layer 2"><g id="OBJECTS"><g class="cls-2"><path class="cls-3" d="M17.72,43.64c0-.22-.18-.35-.14-.56s.42-.39.37-.76-.26-.29-.33-.48c-.13-.37.21-.72.23-1.09s-.1-.61-.41-.67-.35.19-.59.31c-.11-.38-.06-.57.32-.73-.21-.36-.53-.52-.62-.87s0-.84-.26-1.21c0,0-.15-.08-.21-.17s0-.22,0-.29c-.05-.25-.13-.33-.07-.59s.64-2-.29-1.4c0-.07,0-.17,0-.23a2.46,2.46,0,0,0-1.13.33c-.2-.39.5-.6.4-1,0-.17-.35-.42-.46-.54-.31-.3-.33-.28-.32-.7a1.09,1.09,0,0,0-.08-.45.55.55,0,0,1,0-.31l0,0c-.06-.37-.55-1.91-1-1.72,0-.38.13-1.14-.21-1.4a2,2,0,0,0-1-.18,8.81,8.81,0,0,0-.68-1.29c-.15-.28-.11-.69-.45-.88s-.8,0-1-.55c-.12-.32,0-.68-.16-1-.42,0-.72.32-1,.06s-.1-.77-.29-1-.8-.15-1-.53c-.11-.22,0-.53,0-.75s-.3-.42-.38-.71c-.21-.74-.21-1.33-1-1.76-.16.23-.16.28-.38.39l-.51.2a.71.71,0,0,1-1-.48c-.2-.51-.15-1.07-.89-.62-.48.29-.42.81-.94,1.06a.45.45,0,0,0-.22-.5c-.08.63-.92.1-1.16-.12S.57,20,.34,20s-.76.52-.89.8,0,1.23-.39,1.47-1.22-.18-.94.55c-.15.15-.59.26-.67.36s.06.54-.32.76-.56,0-.77.1-.16.41-.18.67c-.59.1-.55.22-.66.69-.08.32-.31.57,0,.87-.3.12-.46.05-.55.34A.53.53,0,0,0-5,27l0,0a.37.37,0,0,0-.52.45c-.34,0-.43.46-.4.75,0,.57.22.44-.37.61a1.21,1.21,0,0,0,0,.19c-.46,0-.49.52-.38.84-.24,0-.63,0-.83.14a.65.65,0,0,0-.1.88s0-.1,0-.12,0,.24,0,.36L-7.67,31c-.09.38.33.43.42.68s-.25.51-.46.62c-.33-.59-.73-.09-.68.41-.31.13-.36.89-.13,1.11-.21.43-1,0-1.13.61s.33.56-.19,1c-.25.2-.57.22-.79.54a.8.8,0,0,0,0,1c-.24.17-.5.21-.42.58-.66,0-1.36.4-.94,1.13-.57-.08.08.6.14.71-.46,0-.58.57-.52.89s.1.2,0,.59-.15.37,0,.63c-.72.4-1.24.47-.91,1.38.11.31.23.78.62.81,0,.22-.15.57.17.63a.72.72,0,0,0-.12.65c.15.47.51.33.79.56s.2.78,0,1.1-.57.52-.61,1.12.47.94,1.09,1a.7.7,0,0,0,.92.55.84.84,0,0,0,.22.43c.11.18,0,.34.37.28-.46.42-.18,1.34.08,1.78a2,2,0,0,0,1.39,1c.51.14.7.52,1.14.74a3.11,3.11,0,0,0,.65.28c.24,0,.45-.13.71-.14s1.1.2,1.25-.24A3.21,3.21,0,0,0-3.56,53a.11.11,0,0,1,0,.08c0-.3.47-.71.79-.58s.24.56.65.31.17-.54.35-.67a.44.44,0,0,1,.69.42c.51.35.54-.44,1.07-.26.23.08.3.43.5.5s.57-.15.76-.36c-.51-.28-.36-.93.26-.79.25.06.17.25.3.32s.39,0,.57,0c1,.16-.08,1.25,1.1,1.18.09.45.64.12.92.24s.47.65.78.83a1.4,1.4,0,0,0,1.38-.13.79.79,0,0,1,0,.09,1.54,1.54,0,0,0,1.58,0c.29-.19.26-.27.61-.32.53-.07,1.13.23,1.08-.53a1.27,1.27,0,0,1,.75-.34c-.06.23,0,.39.24.33S11,53,11,52.92c.25-.25.22-.05.46-.08a4.38,4.38,0,0,0,1-.4c.6-.22,1.57-.12,2-.82a2.89,2.89,0,0,0,.1-1,.88.88,0,0,0,.79-.31c.14-.22,0-.26.22-.45a10.94,10.94,0,0,0,1.26-.95c.38-.42.08-.35,0-.74A3.65,3.65,0,0,1,17,47.5c.05-.28.28-.53.18-.81s-.41-.21-.32-.54c.44-.3.61-.38.58-.95S17.84,44.24,17.72,43.64Z" transform="translate(13.39 -1.29)"/><path class="cls-4" d="M15,34.36a.27.27,0,0,0,0-.15c0-.17-.35-.42-.46-.54-.31-.3-.33-.28-.32-.7a1.09,1.09,0,0,0-.08-.45.55.55,0,0,1,0-.31l0,0c-.06-.37-.55-1.91-1-1.72,0-.38.13-1.14-.21-1.4a2,2,0,0,0-1-.18,8.81,8.81,0,0,0-.68-1.29c-.15-.28-.11-.69-.45-.88s-.8,0-1-.55c-.12-.32,0-.68-.16-1-.42,0-.72.32-1,.06s-.1-.77-.29-1-.8-.15-1-.53c-.11-.22,0-.53,0-.75s-.3-.42-.38-.71c-.21-.74-.21-1.33-1-1.76-.16.23-.16.28-.38.39l-.51.2a.71.71,0,0,1-1-.48c-.2-.51-.15-1.07-.89-.62-.48.29-.42.81-.94,1.06a.45.45,0,0,0-.22-.5c-.08.63-.92.1-1.16-.12S.57,20,.34,20s-.76.52-.89.8,0,1.23-.39,1.47-1.22-.18-.94.55c-.15.15-.59.26-.67.36s.06.54-.32.76-.56,0-.77.1-.16.41-.18.67c-.59.1-.55.22-.66.69-.08.32-.31.57,0,.87-.3.12-.46.05-.55.34A.53.53,0,0,0-5,27l0,0a.37.37,0,0,0-.52.45c-.34,0-.43.46-.4.75,0,.57.22.44-.37.61a1.21,1.21,0,0,0,0,.19c-.46,0-.49.52-.38.84-.11,0-.26,0-.4,0-.14.21,0,.25,0,.44s-.18.47-.24.79a.75.75,0,0,0-.29-.21.76.76,0,0,0,0,.21L-7.67,31c-.09.38.33.43.42.68s-.25.51-.46.62c-.24-.43-.51-.28-.63,0h0a1.11,1.11,0,0,0,0,.37c-.31.13-.36.89-.13,1.11-.08.17-.25.2-.43.22a.19.19,0,0,1,0,.08,3.38,3.38,0,0,1,.09.84c0,.34.31.58.36.9s-.18.47-.15.75a1.23,1.23,0,0,0,.78.85c.27.05.59-.23.83,0s0,.47.09.67.46.17.56.4-.09.47.08.74.33.26.44.51c.24.54.39,1.09,1.06,1.28.39.11.45,0,.65-.28s.27-.68.61-.36c.18.17.07.48.18.68a1.26,1.26,0,0,0,.59.37,2.56,2.56,0,0,0,1.59.24c.45,0,1-.21,1.32.17a.65.65,0,0,1,.21-.41c.1.19.28.22.41.38s.14.38.23.52c.18.3.61.65.91.2a.58.58,0,0,0,.75.39c.17.18.21.1.48.1s.85.22,1.11,0,.09-.5.69-.32c.39.11.78.27,1-.21.29.14.57-.21.8-.38.46-.34.15-.42.17-.92.34,0,.68.1,1,.07a.46.46,0,0,1,.23-.48c.18,0,.63,0,.73-.16s-.24-.45-.23-.69c.09,0,.15-.08.24-.1-.28-.74.72-.32,1.07-.28.7.09,1.36,0,1.33-.79a.7.7,0,0,0,.75-.5.24.24,0,0,0,.36.06c.22-.2,0-.25,0-.35s-.28-.17-.17-.46a.29.29,0,0,1,.27-.23c.22,0,.59.31.89.09s.27-.73.26-1c.38,0,.44-.36.42-.67.36,0,.28-.28.16-.44s-.29,0-.37-.26a.68.68,0,0,1,.12-.57C14.22,34.23,14.64,34.34,15,34.36Z" transform="translate(13.39 -1.29)"/><path class="cls-4" d="M16.15,49.08c-.63.2-1.87.52-1.84-.5-.14.08-.3.18-.45.25a3.26,3.26,0,0,0-.39-.55c-.11-.11-.35-.41-.5-.46-.37-.12-.47,0-.68.21s-.84.78-1.13.13c-.21.45-1.35,1.32-1.46.43-.22.25-.35.56-.67.42s-.07-.4-.41-.3c-.06.67-.69,1.6-1.48,1.26-.22-.1-.34-.28-.57-.35s-.69-.12-1-.26c0-.27,0-.55,0-.82-.47-.24-.61,1.16-1.25.28-.25.25-.38.49-.63.52-.06,0-.27-.06-.38-.05s-.41.14-.65.17C2.14,49.5,2,49,1.56,49s-.68.35-1,.3c-.11-1-.23-.35-.78,0-.24.14-.45.24-.7.05C-1,49.24-1.07,49-1.18,49c-.41-.18-.48.36-.62.56-.3.44-1.15.76-1.56.29-.33.16-1.41.17-.8-.35a.72.72,0,0,0-.74.36c-.1.23.15.76-.33.69,0-.82-.68.56-.75.59s-.45-.27-.7-.12,0,.42-.36.38c0,.72-.86.1-1.16.12s-.74.57-1.25.62a2.12,2.12,0,0,0,1.06.55c.51.14.7.52,1.14.74a3.11,3.11,0,0,0,.65.28c.24,0,.45-.13.71-.14s1.1.2,1.25-.24A3.45,3.45,0,0,0-3.56,53a.08.08,0,0,1,0,.07c0-.3.47-.71.79-.58s.24.56.65.31.17-.54.35-.67a.44.44,0,0,1,.69.42c.51.35.54-.44,1.07-.26.23.08.3.43.5.51s.57-.16.76-.37c-.51-.28-.36-.93.26-.79.25.06.17.25.3.32s.39,0,.57,0c1,.16-.08,1.25,1.1,1.19.09.44.64.11.92.24s.47.64.78.83a1.4,1.4,0,0,0,1.38-.14s0,.06,0,.1a1.57,1.57,0,0,0,1.58,0c.29-.19.26-.27.61-.32.53-.07,1.13.23,1.08-.53a1.27,1.27,0,0,1,.75-.34c-.06.23,0,.39.24.33S11,53,11,52.92c.25-.25.22-.05.46-.07a4.91,4.91,0,0,0,1-.41c.6-.22,1.57-.11,2-.82a2.89,2.89,0,0,0,.1-1,.88.88,0,0,0,.79-.31c.14-.22,0-.26.22-.45a10.94,10.94,0,0,0,1.26-.95h0Z" transform="translate(13.39 -1.29)"/><path class="cls-5" d="M15.5,30.12c.05-.28,0-.57-.33-.44a1.42,1.42,0,0,0-.14-.79c-.08-.12-.24-.12-.31-.23s0-.22,0-.33a4.68,4.68,0,0,0-.22-.5c-.05-.08-.07-.14-.14-.24s-.19,0-.23-.13c-.21-.36.27-.28.42-.53,0,0,.12-.6.12-.63,0-.26-.11-.2-.22-.39a1.11,1.11,0,0,1-.15-.61c-.08-.65-.62-1-.81-1.61-.43.08-.36-.32-.7-.35.24-.23.24-.14.33-.39s.1-.43.16-.6l-.07,0a.89.89,0,0,0-.88-1.25,1.46,1.46,0,0,0-1-1.26,1.18,1.18,0,0,0-.09-.3c.07-.18.4-.46.24-.63s-.57,0-.74,0c0-.36-.32-1.61-.71-1.67.11-.26-.05-.43-.31-.4-.41.05-.09.23-.26.44a.32.32,0,0,1-.52,0c-.2-.21,0-.72,0-1s-.42-.72-.38-1.08.34-.63.4-1c.12-.61-.26-.51-.51,0-.45-.19-.53.52-.87.15s-.07-1.06-.53-1.35c.05-.06.07-.19.12-.25-.17-.09-.68-.41-.7-.55s.4-.39.19-.63-.35-.08-.49-.05a.86.86,0,0,1,0-.65c-.19,0-.43,0-.57-.19.16-.19.59-.55.54-.85s-.53-.23-.82-.32-.44-.48-.56-.79a3.37,3.37,0,0,0,0-.55c0-.31-.2-.36-.31-.62s0-.31,0-.52c0-.41-.24-.57-.71-.63.33-.25.19-.47,0-.68s-.25-.06-.33-.27a2.48,2.48,0,0,1,0-.77,1.89,1.89,0,0,0-.3-.9c-.1-.2-.13-.77-.36-.81,0,.2-.17.46-.4.34S2.2,3,2.15,2.81c-.11-.36-.45-.48-.71-.73S.89.94.53,1.46.42,2.61.14,3.11a3.86,3.86,0,0,0-.49.83c0,.19,0,.35,0,.53s-.22.46-.34.71-.1.37-.18.55-.36.4-.5.63-.16.65-.37,1S-2,7.73-2,7.9c-.46.08-1-.05-1.14.52-.09.37.11.65-.06,1s-.59.73-.68,1.19.11.23.43.54-.07.95-.56.92C-5.33,12-4,8.54-5.78,9.85c.5.26,0,1.05,0,1.5s.78.94.38,1c0,.57.22.7.49,1.1s0,.49-.39.77a4.15,4.15,0,0,0-.82,1,8.93,8.93,0,0,0-.79.84,1,1,0,0,0,.08,1.14c.13.19.57.4.58.65s-.25.22-.36.4,0,.23,0,.47,0,.15-.08.4-.16.24-.07.52.36.35.37.52c0,.35-.52.7-.67,1s-.44.65-.4.9a1.43,1.43,0,0,0-1.36.76,1,1,0,0,0,.28.9c.12.13.5.29.52.47s-.43.46-.41.76.16.3.27.43c.39.45.34.73-.11,1.1s-.31.52.23.71c0,.21-.51.91,0,1-.22.26,0,.29,0,.5s-.18.47-.25.78a.94.94,0,0,0-1.15-.17c-.51.32-.23,1.08.11,1.44-.33.12-.85.22-.42.71-.45.28-.31.65-.18,1.07a4.07,4.07,0,0,1,.09.84c0,.35.31.58.35.91s-.18.46-.14.75a1.21,1.21,0,0,0,.78.85c.26,0,.59-.23.82,0s0,.46.09.67.46.16.57.39-.1.48.07.74.34.27.45.52c.23.53.38,1.09,1.06,1.28.38.1.45,0,.65-.29s.26-.68.61-.36c.18.18.06.48.18.68a1.19,1.19,0,0,0,.58.37,2.53,2.53,0,0,0,1.6.25c.45-.06,1-.21,1.32.17a.69.69,0,0,1,.2-.41c.11.18.28.21.41.37a3.43,3.43,0,0,1,.23.52c.19.3.62.65.91.21a.57.57,0,0,0,.75.38c.18.18.21.1.49.1s.84.23,1.11,0,.08-.5.68-.33c.39.12.79.27,1-.2.29.14.56-.22.8-.39.46-.34.15-.41.16-.91.34,0,.69.1,1,.07a.45.45,0,0,1,.22-.49c.19,0,.63,0,.74-.15s-.24-.46-.23-.69c.09,0,.15-.08.24-.1-.29-.74.71-.32,1.07-.28.7.08,1.36,0,1.33-.79a.74.74,0,0,0,.75-.5c.1.11.23.16.35,0s0-.24,0-.35-.29-.16-.18-.45a.28.28,0,0,1,.27-.23c.22,0,.59.31.89.09s.27-.74.27-1c.37,0,.43-.35.42-.67.36,0,.28-.28.16-.43s-.29-.05-.38-.27a.73.73,0,0,1,.13-.57c.51-.47,1.7.45,1.47-.74.72.13.29-.69.39-1.05S15.42,30.49,15.5,30.12Z" transform="translate(13.39 -1.29)"/><path class="cls-3" d="M-.16,30l.06,0L0,30Z" transform="translate(13.39 -1.29)"/><path class="cls-3" d="M-4,35.12a.5.5,0,0,0-.31,0A1.06,1.06,0,0,0-4,35.12Z" transform="translate(13.39 -1.29)"/><path class="cls-3" d="M9.53,33.49a.32.32,0,0,0,0-.17A1,1,0,0,1,9.53,33.49Z" transform="translate(13.39 -1.29)"/><path class="cls-3" d="M-3,30.82c.31,0,.43-.21.65,0,0,0,0,.19.06.25s.24,0,.28,0c.05.41,0,.73.42.94a2,2,0,0,0,1,.28c.16,0,.54-.08.66,0s.09.3.18.38a.56.56,0,0,0,.75-.15c.19.1.24.31.39.45.5.47,1.28.09,1.77-.2a2.13,2.13,0,0,0,.83-.71c.17-.29.24-.74.55-.88a3.5,3.5,0,0,1,.48-.06,2.22,2.22,0,0,0,1.27-.46c.39-.31.58-.82,1-1.15s1.28-.54.61-1c.1-.09.07-.24.13-.31s.3-.17.44-.29.1-.35.13-.68c.48-.1.37-.17.39-.56,0-.21,0-.09.1-.26s.16-.12.22-.24c.19-.42-.27-.71-.14-1,0-.1.22-.18.28-.3s0-.38,0-.58a2.18,2.18,0,0,0-.22-.55c-.15-.34.13-.31.12-.57S9,23,9.16,22.53c.06-.15.19-.28.13-.45s-.18-.07-.23-.17.06-.49,0-.72-.11-.14-.14-.23a2.45,2.45,0,0,1,0-.39c-.41,0-.19-.21-.31-.44s-.38-.24-.51-.31a1.18,1.18,0,0,1,.13.86s0,0-.06,0,0,.1,0,.16-.05.24-.07.34l.07-.29c.06.33,0,.74-.42.7a2.83,2.83,0,0,0,0,.65H7.64a5.2,5.2,0,0,0,.37.92A2.08,2.08,0,0,1,7.9,24.7c-.19.41-.4.91-.91.69-.22-.1-.42-.12-.63-.21a1.36,1.36,0,0,1,0,.57.55.55,0,0,1-.15.2c0,.51-.07.7-.66.56a1.56,1.56,0,0,1-.79.75.78.78,0,0,1-.64.14c-.09,0-.22-.16-.29-.16-.42-.07-.19.83-.86.75-.07,1-.8.29-1.41.32,0,.4,0,.8-.47,1a2,2,0,0,1-1.2,0c-.21.08-.41.16-.63.22a1.2,1.2,0,0,0-.39.2c-.61.36-.93-.08-1.35-.42a1.77,1.77,0,0,0-1.22-.19c-.36.06-1,.28-1.08-.25l-.62.34a1.83,1.83,0,0,0,.84.17c0,.15,0,.51.12.6s.42-.16.6-.16C-3.73,30.27-3.55,30.86-3,30.82Z" transform="translate(13.39 -1.29)"/><path class="cls-3" d="M8.62,33.19c-.33.17-1,.58-1.15,0-.12.24-.38.74-.7.5a.64.64,0,0,1-.54.63,1.12,1.12,0,0,1-.31.05c-.18,0-.17,0-.33-.06-.34-.08-.24,0-.5.19s-.44,0-.59.09-.11.2-.21.27a.86.86,0,0,1-.59,0c-.39-.17-.13-.47-.56-.08-.63.58-.94-.61-1.42-.25-.17.14-.15.33-.39.31s-.26-.26-.39-.38-.42-.09-.65,0a5.42,5.42,0,0,1-1.08-.59c-.37.76-1.33.19-1.83.48-.15.08-.12.23-.37.21s-.2-.11-.31-.16A1.76,1.76,0,0,0-4,34.34a1.67,1.67,0,0,1,.35.26c.17.13.19.07.38.16s.25.28.43.4.72.09,1,.1c.05.83.7.46,1.17.3a.81.81,0,0,0,.82,1.12c.26,0,.93-.21,1-.54.2-.12.23.13.33.25a1,1,0,0,0,.94.37c.24-.06.31-.41.58-.35s.23.3.46.27.21-.25.38-.28.33.16.46.21a1.35,1.35,0,0,0,1.12-.21A8.22,8.22,0,0,1,7,35.47,1.83,1.83,0,0,1,7.29,35a.2.2,0,0,1,.06.07c0-.37-.29-.57.14-.65s.57.06.72-.34c.08-.22,0-.23.15-.37s.45-.24.63-.39a1.66,1.66,0,0,0,.54-.58C9.39,33,8.85,33.07,8.62,33.19Z" transform="translate(13.39 -1.29)"/><path class="cls-6" d="M2.79,71.06c-.17-1-.33-2.07-.47-3s-.17-1.85-.22-2.43A9.38,9.38,0,0,1,3,61.38a51.66,51.66,0,0,0,1.69-5.1c.46-1.8.91-3.61,1.27-5.36s.57-3.41.76-4.84a20.19,20.19,0,0,0,.18-2.38c-.13.68-.28,1.46-.45,2.31S6.15,47.79,6,48.76c-.21,1.2-.51,2.45-.84,3.71h0c-.09.26-.22.54-.33.86l-.33,1a11.53,11.53,0,0,1-.4,1.11c-.15.39-.3.8-.43,1.19-.08.19-.15.38-.22.57l-.26.53c-.19.35-.37.69-.55,1-.33.6-.64,1.14-.84,1.56a16.29,16.29,0,0,1,0-2c.06-2,.37-4.16.56-6.38l.24-3.33c.05-1.11.06-2.21.09-3.27,0-.37,0-.73,0-1.08s0-.35,0-.35h0c0-.46,0-.91,0-1.35s.31-.75.46-1.14a13.87,13.87,0,0,0,.5-1.41A8.7,8.7,0,0,0,4,38.62a16.61,16.61,0,0,1,.72-2.43c0-.24.37-1.45.23-1.27-.27.68-.64,1.55-1.07,2.52a8,8,0,0,0-.45,1.61,12,12,0,0,1-.55,1.59L2.68,41c0-.51,0-1,0-1.48s-.09-1.75-.14-2.47V34.94c0-1.19,0-2.32,0-3.37,0-.34-.08-1.49-.13-2.38,0-.22.07-.43.11-.64.08-.5.23-1,.3-1.5s.12-.95.15-1.38-.1-1.67-.17-1.43c0,.4-.07.87-.1,1.38s-.19,1.06-.31,1.63l-.24.86c-.07.31-.15.62-.22.93-.11.64-.13,1.29-.2,1.94s-.05,1.29-.07,1.92,0,1.23,0,1.81,0,1.1,0,1.59V37c-.26-.89-.6-1.78-.91-2.69a40.62,40.62,0,0,1-1.32-4c-.18-.65-.31-1.3-.46-1.91l-.39-1.75A12,12,0,0,0-2,24.88c.17,1.06.35,2.43.62,3.95A29,29,0,0,0-.16,33.61a39,39,0,0,1,1.33,4.6,14.3,14.3,0,0,1,.2,3.68c0,.61-.07,1.7-.13,2.84a8.16,8.16,0,0,0-.15,1.71v.81c0,.31-.07.61-.08.88a4,4,0,0,0,0,.63c-.25,1.73-.52,3.4-.78,5,0,0,0,.07,0,.11-.25-.24-.48-.47-.61-.62s-.45-.57-.7-.93a6.53,6.53,0,0,1-.62-1.18A11.3,11.3,0,0,0-2.77,48.8a25.61,25.61,0,0,1-1.11-3.72,4.5,4.5,0,0,1-.23-.95c-.07-.38-.14-.69-.16-.57,0,.46,0,1,.11,1.55,0,.28.09.57.14.88s.14.61.2.93a33.68,33.68,0,0,0,1.26,4c.27.66.52,1.33.84,2A8.93,8.93,0,0,1-1,54.62c.11.56.17,1.18.24,1.71s.12,1,.17,1.43c0,.22.06.51.09.83-.11.83-.18,1.61-.22,2.29-.05.84-.06,2.1-.15,3.48,0,.35-.06.7-.11,1,0,.18-.05.36-.07.54l-.1.52c0,.18-.07.36-.11.53l-.16.54c-.11.36-.22.71-.32,1.06-.21.69-.41,1.37-.59,2-.05.16-.09.31-.14.45s-.08.24-.14.36-.25.46-.37.69c0,.06,0,.11-.08.16H3.06C3,71.88,2.87,71.49,2.79,71.06Z" transform="translate(13.39 -1.29)"/></g></g></g></svg>