<svg xmlns="http://www.w3.org/2000/svg" viewBox="0 0 76.87 50.62"><defs><style>.cls-1{fill:#bdc1c4;}.cls-2{fill:#a33657;}.cls-3{fill:#2b3c5b;}.cls-4{fill:#f6faff;}.cls-5{fill:#d8dce0;}.cls-6{fill:#fff;}.cls-7{fill:#b09346;}</style></defs><g id="Layer_2" data-name="Layer 2"><g id="OBJECTS"><rect class="cls-1" x="14.48" y="35.7" width="47.91" height="14.92"/><rect class="cls-2" x="14.48" y="24.75" width="47.91" height="11.69"/><rect class="cls-3" x="25.52" y="35.23" width="25.84" height="15.39"/><path class="cls-3" d="M48.6,13.7c-1.73-4.09-6.84-5.26-8.82-7.44a5,5,0,0,1-1.15-2h-.38a5.09,5.09,0,0,1-1.16,2c-2,2.18-7.09,3.35-8.82,7.44A5.76,5.76,0,0,0,28.16,18H48.71A5.71,5.71,0,0,0,48.6,13.7Z"/><path class="cls-4" d="M36.19,7h4.5V6.61A5.17,5.17,0,0,1,40,6.09a6.49,6.49,0,0,1-1.36-2h-.45a6.49,6.49,0,0,1-1.36,2,5.82,5.82,0,0,1-.66.52Z"/><path class="cls-4" d="M39.32,3a.89.89,0,1,1-.88-.88A.89.89,0,0,1,39.32,3Z"/><polygon class="cls-4" points="38.48 0 38.44 0 38.44 0 38.4 0 38.23 4.3 38.44 4.3 38.44 4.3 38.64 4.3 38.48 0"/><rect class="cls-1" x="27.64" y="17.2" width="21.6" height="15.95"/><path class="cls-3" d="M43.92,23c-.2-.47-.79-.6-1-.85a.52.52,0,0,1-.13-.23h-.05a.52.52,0,0,1-.13.23c-.23.25-.81.38-1,.85a.66.66,0,0,0,0,.5v3.34h2.36V23.52A.64.64,0,0,0,43.92,23Z"/><path class="cls-3" d="M48,23c-.19-.47-.78-.6-1-.85a.68.68,0,0,1-.13-.23h0a.62.62,0,0,1-.14.23c-.22.25-.81.38-1,.85a.69.69,0,0,0,0,.5v3.34H48V23.52A.66.66,0,0,0,48,23Z"/><path class="cls-3" d="M31.21,23c-.19-.47-.78-.6-1-.85a.68.68,0,0,1-.13-.23H30a.52.52,0,0,1-.13.23c-.23.25-.81.38-1,.85a.69.69,0,0,0,0,.5v3.34h2.36V23.52A.66.66,0,0,0,31.21,23Z"/><path class="cls-3" d="M35.29,23c-.2-.47-.79-.6-1-.85a.62.62,0,0,1-.14-.23h0a.68.68,0,0,1-.13.23c-.23.25-.82.38-1,.85a.66.66,0,0,0,0,.5v3.34H35.3V23.52A.69.69,0,0,0,35.29,23Z"/><rect class="cls-5" x="24.85" y="25.61" width="27.18" height="2.5"/><path class="cls-6" d="M52.33,39.65V35.58H24.54v4.07a4.46,4.46,0,0,1-.29,2.05v.44s.51.06.51,1H26.5c0-.92.51-1,.51-1V41.7s-.58-.49-.3-2.05,2-1.28,3.19-2.39c1.15,1.11,2.9.83,3.18,2.39s-.29,2.05-.29,2.05v.44s.5.06.5,1H35c0-.92.5-1,.5-1V41.7s-.57-.49-.29-2.05,2-1.28,3.19-2.39c1.15,1.11,2.9.83,3.18,2.39s-.29,2.05-.29,2.05v.44s.51.06.51,1h1.74c0-.92.51-1,.51-1V41.7s-.58-.49-.3-2.05,2-1.28,3.19-2.39c1.15,1.11,2.9.83,3.18,2.39s-.29,2.05-.29,2.05v.44s.5.06.5,1h1.75c0-.92.5-1,.5-1V41.7A4.46,4.46,0,0,1,52.33,39.65Z"/><polygon class="cls-6" points="35.19 43.08 33.18 43.08 33.18 43.57 33.45 43.57 33.45 43.88 33.71 43.88 33.71 50.12 33.45 50.12 33.45 50.62 34.91 50.62 34.91 50.12 34.66 50.12 34.66 43.88 34.91 43.88 34.91 43.57 35.19 43.57 35.19 43.08"/><polygon class="cls-6" points="26.36 49.84 26.36 49.44 26.13 49.44 26.13 43.88 26.38 43.88 26.38 43.57 26.65 43.57 26.65 43.08 24.65 43.08 24.65 43.57 24.92 43.57 24.92 43.88 25.18 43.88 25.18 49.44 24.94 49.44 24.94 49.84 24.52 49.84 24.52 50.62 26.79 50.62 26.79 49.84 26.36 49.84"/><polygon class="cls-6" points="51.96 49.84 51.96 49.44 51.72 49.44 51.72 43.88 51.98 43.88 51.98 43.57 52.25 43.57 52.25 43.08 50.24 43.08 50.24 43.57 50.51 43.57 50.51 43.88 50.77 43.88 50.77 49.44 50.53 49.44 50.53 49.84 50.11 49.84 50.11 50.62 52.38 50.62 52.38 49.84 51.96 49.84"/><polygon class="cls-6" points="43.72 43.08 41.71 43.08 41.71 43.57 41.98 43.57 41.98 43.88 42.24 43.88 42.24 50.12 41.98 50.12 41.98 50.62 43.45 50.62 43.45 50.12 43.19 50.12 43.19 43.88 43.45 43.88 43.45 43.57 43.72 43.57 43.72 43.08"/><polygon class="cls-6" points="48.51 32.35 48.51 30.07 44.69 30.07 44.69 27.78 40.87 27.78 40.87 25.49 36 25.49 36 27.78 32.18 27.78 32.18 30.07 28.36 30.07 28.36 32.35 24.54 32.35 24.54 36.6 52.33 36.6 52.33 32.35 48.51 32.35"/><path class="cls-6" d="M40.72,21.89c-.39-.92-1.53-1.19-2-1.68a1,1,0,0,1-.26-.45h-.09a1,1,0,0,1-.26.45c-.44.49-1.59.76-2,1.68a1.33,1.33,0,0,0,0,1v3.45h4.63V22.86A1.27,1.27,0,0,0,40.72,21.89Z"/><path class="cls-6" d="M44.69,25.82c-.12-.28-.47-.36-.6-.5a.42.42,0,0,1-.08-.14h0a.27.27,0,0,1-.08.14c-.13.14-.48.22-.59.5a.38.38,0,0,0,0,.29V28h1.4V26.11A.44.44,0,0,0,44.69,25.82Z"/><path class="cls-6" d="M48.5,28.18c-.11-.27-.46-.35-.6-.5a.3.3,0,0,1-.07-.14h0a.27.27,0,0,1-.08.14c-.13.15-.48.23-.6.5a.44.44,0,0,0,0,.3v1.85h1.39V28.48A.41.41,0,0,0,48.5,28.18Z"/><path class="cls-6" d="M52.33,30.49c-.12-.28-.47-.36-.6-.51a.27.27,0,0,1-.08-.13h0a.27.27,0,0,1-.08.13c-.13.15-.48.23-.59.51a.38.38,0,0,0,0,.29v1.85h1.39V30.78A.4.4,0,0,0,52.33,30.49Z"/><path class="cls-6" d="M32.19,25.82c.11-.28.46-.36.6-.5a.42.42,0,0,0,.08-.14h0a.42.42,0,0,0,.08.14c.13.14.48.22.6.5a.44.44,0,0,1,0,.29V28h-1.4V26.11A.38.38,0,0,1,32.19,25.82Z"/><path class="cls-6" d="M28.37,28.18c.12-.27.47-.35.6-.5a.42.42,0,0,0,.08-.14h0a.42.42,0,0,0,.08.14c.14.15.48.23.6.5a.41.41,0,0,1,0,.3v1.85h-1.4V28.48A.41.41,0,0,1,28.37,28.18Z"/><path class="cls-6" d="M24.55,30.49c.12-.28.46-.36.6-.51a.3.3,0,0,0,.07-.13h0a.44.44,0,0,0,.08.13c.13.15.48.23.6.51a.38.38,0,0,1,0,.29v1.85h-1.4V30.78A.38.38,0,0,1,24.55,30.49Z"/><path class="cls-7" d="M38.44,28.68A2.56,2.56,0,1,0,41,31.24,2.56,2.56,0,0,0,38.44,28.68Zm0,4.26a1.7,1.7,0,1,1,1.7-1.7A1.71,1.71,0,0,1,38.44,32.94Z"/><rect class="cls-3" x="24.25" y="18.76" width="28.37" height="1.3"/><rect class="cls-5" x="24.85" y="20.05" width="27.18" height="1.1"/><path class="cls-7" d="M51.39,35.7q-12.93.42-25.86,0l0-1q12.9.41,25.8,0Z"/><rect class="cls-3" x="54.91" y="37.74" width="20.94" height="12.88"/><path class="cls-3" d="M73.61,20.65c-1.4-3.32-5.55-4.27-7.16-6A4.06,4.06,0,0,1,65.51,13H65.2a4.11,4.11,0,0,1-.93,1.62c-1.61,1.77-5.76,2.72-7.16,6a4.65,4.65,0,0,0-.09,3.5H73.7A4.65,4.65,0,0,0,73.61,20.65Z"/><path class="cls-4" d="M63.53,15.17h3.65v-.28a4.62,4.62,0,0,1-.53-.41,5.33,5.33,0,0,1-1.11-1.66h-.37a5.16,5.16,0,0,1-1.1,1.66,4.77,4.77,0,0,1-.54.41Z"/><path class="cls-4" d="M66.07,12a.72.72,0,1,1-1.43,0,.72.72,0,1,1,1.43,0Z"/><polygon class="cls-4" points="65.39 9.53 65.36 9.53 65.36 9.53 65.32 9.53 65.19 13.02 65.36 13.02 65.36 13.02 65.52 13.02 65.39 9.53"/><rect class="cls-1" x="56.59" y="23.5" width="17.53" height="12.95"/><path class="cls-3" d="M69.81,28.22c-.16-.39-.64-.49-.82-.7a.41.41,0,0,1-.11-.18h0a.45.45,0,0,1-.1.18c-.19.21-.66.31-.83.7a.54.54,0,0,0,0,.4v2.71h1.92V28.62A.54.54,0,0,0,69.81,28.22Z"/><path class="cls-3" d="M73.12,28.22c-.16-.39-.64-.49-.83-.7a.45.45,0,0,1-.1-.18h0a.41.41,0,0,1-.11.18c-.18.21-.66.31-.82.7a.54.54,0,0,0,0,.4v2.71h1.92V28.62A.54.54,0,0,0,73.12,28.22Z"/><path class="cls-3" d="M59.49,28.22c-.16-.39-.63-.49-.82-.7a.58.58,0,0,1-.11-.18h0a.41.41,0,0,1-.11.18c-.18.21-.66.31-.82.7a.54.54,0,0,0,0,.4v2.71h1.92V28.62A.52.52,0,0,0,59.49,28.22Z"/><path class="cls-3" d="M62.8,28.22c-.16-.39-.63-.49-.82-.7a.41.41,0,0,1-.11-.18h0a.58.58,0,0,1-.11.18c-.19.21-.66.31-.82.7a.49.49,0,0,0,0,.4v2.71h1.91V28.62A.54.54,0,0,0,62.8,28.22Z"/><rect class="cls-5" x="54.32" y="30.32" width="22.07" height="2.03"/><path class="cls-6" d="M76.64,41.71v-3.3H54.08v3.3a3.57,3.57,0,0,1-.24,1.67v.36s.41,0,.41.79h1.42c0-.74.41-.79.41-.79v-.36s-.47-.4-.24-1.67,1.65-1,2.59-1.93c.94.9,2.35.67,2.58,1.93s-.24,1.67-.24,1.67v.36s.42,0,.42.79H62.6c0-.74.41-.79.41-.79v-.36s-.47-.4-.24-1.67,1.65-1,2.59-1.93c.94.9,2.35.67,2.58,1.93s-.23,1.67-.23,1.67v.36s.41,0,.41.79h1.41c0-.74.41-.79.41-.79v-.36s-.46-.4-.23-1.67,1.64-1,2.58-1.93c.94.9,2.36.67,2.58,1.93s-.23,1.67-.23,1.67v.36s.41,0,.41.79h1.41c0-.74.41-.79.41-.79v-.36A3.71,3.71,0,0,1,76.64,41.71Z"/><polygon class="cls-6" points="62.72 44.5 61.09 44.5 61.09 44.9 61.31 44.9 61.31 45.15 61.52 45.15 61.52 50.22 61.31 50.22 61.31 50.62 62.5 50.62 62.5 50.22 62.29 50.22 62.29 45.15 62.5 45.15 62.5 44.9 62.72 44.9 62.72 44.5"/><polygon class="cls-6" points="55.56 49.98 55.56 49.66 55.37 49.66 55.37 45.15 55.57 45.15 55.57 44.9 55.79 44.9 55.79 44.5 54.16 44.5 54.16 44.9 54.39 44.9 54.39 45.15 54.59 45.15 54.59 49.66 54.4 49.66 54.4 49.98 54.06 49.98 54.06 50.62 55.9 50.62 55.9 49.98 55.56 49.98"/><polygon class="cls-6" points="76.33 49.98 76.33 49.66 76.14 49.66 76.14 45.15 76.35 45.15 76.35 44.9 76.57 44.9 76.57 44.5 74.94 44.5 74.94 44.9 75.16 44.9 75.16 45.15 75.37 45.15 75.37 49.66 75.18 49.66 75.18 49.98 74.83 49.98 74.83 50.62 76.68 50.62 76.68 49.98 76.33 49.98"/><polygon class="cls-6" points="69.64 44.5 68.02 44.5 68.02 44.9 68.24 44.9 68.24 45.15 68.44 45.15 68.44 50.22 68.24 50.22 68.24 50.62 69.42 50.62 69.42 50.22 69.22 50.22 69.22 45.15 69.42 45.15 69.42 44.9 69.64 44.9 69.64 44.5"/><polygon class="cls-6" points="73.54 35.79 73.54 33.94 70.44 33.94 70.44 32.08 67.34 32.08 67.34 30.22 63.38 30.22 63.38 32.08 60.28 32.08 60.28 33.94 57.18 33.94 57.18 35.79 54.08 35.79 54.08 39.24 76.64 39.24 76.64 35.79 73.54 35.79"/><path class="cls-6" d="M67.21,27.3c-.31-.75-1.25-1-1.61-1.36a1.1,1.1,0,0,1-.21-.37h-.07a.92.92,0,0,1-.21.37c-.36.4-1.29.61-1.61,1.36a1,1,0,0,0,0,.78v2.81h3.76V28.08A1,1,0,0,0,67.21,27.3Z"/><path class="cls-6" d="M70.43,30.49c-.09-.23-.38-.29-.48-.41a.24.24,0,0,1-.07-.11h0a.28.28,0,0,1-.06.11c-.11.12-.39.18-.49.41a.37.37,0,0,0,0,.24v1.5h1.14v-1.5A.31.31,0,0,0,70.43,30.49Z"/><path class="cls-6" d="M73.53,32.41c-.1-.23-.38-.29-.49-.41a.28.28,0,0,1-.06-.11h0a.24.24,0,0,1-.07.11c-.1.12-.39.18-.48.41a.28.28,0,0,0,0,.23v1.51h1.14V32.64A.34.34,0,0,0,73.53,32.41Z"/><path class="cls-6" d="M76.63,34.28c-.09-.23-.37-.29-.48-.41a.46.46,0,0,1-.07-.11h0a.28.28,0,0,1-.06.11c-.11.12-.39.18-.49.41a.3.3,0,0,0,0,.23V36h1.13V34.51A.28.28,0,0,0,76.63,34.28Z"/><path class="cls-6" d="M60.29,30.49c.09-.23.37-.29.48-.41a.46.46,0,0,0,.07-.11h0a.28.28,0,0,0,.06.11c.11.12.39.18.48.41a.31.31,0,0,1,0,.24v1.5H60.28v-1.5A.31.31,0,0,1,60.29,30.49Z"/><path class="cls-6" d="M57.19,32.41c.09-.23.37-.29.48-.41a.46.46,0,0,0,.07-.11h0a.28.28,0,0,0,.06.11c.11.12.39.18.49.41a.3.3,0,0,1,0,.23v1.51H57.18V32.64A.28.28,0,0,1,57.19,32.41Z"/><path class="cls-6" d="M54.08,34.28c.1-.23.38-.29.49-.41a.28.28,0,0,0,.06-.11h0a.46.46,0,0,0,.07.11c.11.12.39.18.49.41a.3.3,0,0,1,0,.23V36H54.08V34.51A.3.3,0,0,1,54.08,34.28Z"/><rect class="cls-3" x="53.84" y="24.75" width="23.03" height="1.05"/><rect class="cls-5" x="54.32" y="25.81" width="22.07" height="0.9"/><path class="cls-7" d="M75.87,38.51q-10.49.33-21,0l0-.77q10.46.33,20.94,0C75.85,38,75.86,38.25,75.87,38.51Z"/><rect class="cls-3" x="1.07" y="37.74" width="20.94" height="12.88"/><path class="cls-3" d="M19.77,20.65c-1.41-3.32-5.56-4.27-7.16-6A4.06,4.06,0,0,1,11.67,13h-.31a4.06,4.06,0,0,1-.94,1.62c-1.6,1.77-5.75,2.72-7.15,6a4.68,4.68,0,0,0-.1,3.5H19.86A4.65,4.65,0,0,0,19.77,20.65Z"/><path class="cls-4" d="M9.69,15.17h3.65v-.28a4.77,4.77,0,0,1-.54-.41,5.39,5.39,0,0,1-1.1-1.66h-.37a5.16,5.16,0,0,1-1.1,1.66,4.77,4.77,0,0,1-.54.41Z"/><path class="cls-4" d="M12.23,12a.72.72,0,1,1-1.43,0,.72.72,0,1,1,1.43,0Z"/><polygon class="cls-4" points="11.55 9.53 11.52 9.53 11.52 9.53 11.48 9.53 11.35 13.02 11.52 13.02 11.52 13.02 11.68 13.02 11.55 9.53"/><rect class="cls-1" x="2.75" y="23.5" width="17.53" height="12.95"/><path class="cls-3" d="M16,28.22c-.16-.39-.64-.49-.83-.7a.45.45,0,0,1-.1-.18h0a.41.41,0,0,1-.11.18c-.18.21-.66.31-.82.7a.54.54,0,0,0,0,.4v2.71H16V28.62A.54.54,0,0,0,16,28.22Z"/><path class="cls-3" d="M19.27,28.22c-.16-.39-.63-.49-.82-.7a.45.45,0,0,1-.1-.18h0a.41.41,0,0,1-.11.18c-.18.21-.66.31-.82.7a.54.54,0,0,0,0,.4v2.71h1.92V28.62A.52.52,0,0,0,19.27,28.22Z"/><path class="cls-3" d="M5.65,28.22c-.16-.39-.64-.49-.82-.7a.41.41,0,0,1-.11-.18h0a.41.41,0,0,1-.11.18c-.18.21-.66.31-.82.7a.54.54,0,0,0,0,.4v2.71H5.66V28.62A.54.54,0,0,0,5.65,28.22Z"/><path class="cls-3" d="M9,28.22c-.16-.39-.64-.49-.82-.7A.41.41,0,0,1,8,27.34H8a.58.58,0,0,1-.11.18c-.19.21-.66.31-.82.7a.52.52,0,0,0,0,.4v2.71H9V28.62A.54.54,0,0,0,9,28.22Z"/><rect class="cls-5" x="0.48" y="30.32" width="22.07" height="2.03"/><path class="cls-6" d="M22.79,41.71v-3.3H.24v3.3A3.57,3.57,0,0,1,0,43.38v.36s.41,0,.41.79H1.83c0-.74.41-.79.41-.79v-.36S1.77,43,2,41.71s1.65-1,2.58-1.93c.94.9,2.36.67,2.59,1.93s-.24,1.67-.24,1.67v.36s.41,0,.41.79H8.76c0-.74.41-.79.41-.79v-.36s-.47-.4-.24-1.67,1.65-1,2.59-1.93c.94.9,2.35.67,2.58,1.93s-.24,1.67-.24,1.67v.36s.41,0,.41.79h1.42c0-.74.41-.79.41-.79v-.36s-.47-.4-.24-1.67,1.65-1,2.59-1.93c.94.9,2.35.67,2.58,1.93s-.24,1.67-.24,1.67v.36s.42,0,.42.79h1.41c0-.74.41-.79.41-.79v-.36A3.57,3.57,0,0,1,22.79,41.71Z"/><polygon class="cls-6" points="8.88 44.5 7.25 44.5 7.25 44.9 7.47 44.9 7.47 45.15 7.68 45.15 7.68 50.22 7.47 50.22 7.47 50.62 8.66 50.62 8.66 50.22 8.45 50.22 8.45 45.15 8.66 45.15 8.66 44.9 8.88 44.9 8.88 44.5"/><polygon class="cls-6" points="1.72 49.98 1.72 49.66 1.52 49.66 1.52 45.15 1.73 45.15 1.73 44.9 1.95 44.9 1.95 44.5 0.32 44.5 0.32 44.9 0.54 44.9 0.54 45.15 0.75 45.15 0.75 49.66 0.56 49.66 0.56 49.98 0.22 49.98 0.22 50.62 2.06 50.62 2.06 49.98 1.72 49.98"/><polygon class="cls-6" points="22.49 49.98 22.49 49.66 22.3 49.66 22.3 45.15 22.51 45.15 22.51 44.9 22.73 44.9 22.73 44.5 21.1 44.5 21.1 44.9 21.32 44.9 21.32 45.15 21.53 45.15 21.53 49.66 21.34 49.66 21.34 49.98 20.99 49.98 20.99 50.62 22.83 50.62 22.83 49.98 22.49 49.98"/><polygon class="cls-6" points="15.8 44.5 14.17 44.5 14.17 44.9 14.39 44.9 14.39 45.15 14.6 45.15 14.6 50.22 14.39 50.22 14.39 50.62 15.58 50.62 15.58 50.22 15.37 50.22 15.37 45.15 15.58 45.15 15.58 44.9 15.8 44.9 15.8 44.5"/><polygon class="cls-6" points="19.7 35.79 19.7 33.94 16.59 33.94 16.59 32.08 13.49 32.08 13.49 30.22 9.54 30.22 9.54 32.08 6.44 32.08 6.44 33.94 3.34 33.94 3.34 35.79 0.24 35.79 0.24 39.24 22.8 39.24 22.8 35.79 19.7 35.79"/><path class="cls-6" d="M13.37,27.3c-.31-.75-1.25-1-1.61-1.36a.92.92,0,0,1-.21-.37h-.07a.92.92,0,0,1-.21.37c-.36.4-1.3.61-1.61,1.36a1,1,0,0,0,0,.78v2.81h3.75V28.08A1,1,0,0,0,13.37,27.3Z"/><path class="cls-6" d="M16.59,30.49c-.1-.23-.38-.29-.49-.41A.28.28,0,0,1,16,30h0a.28.28,0,0,1-.06.11c-.11.12-.4.18-.49.41a.31.31,0,0,0,0,.24v1.5H16.6v-1.5A.37.37,0,0,0,16.59,30.49Z"/><path class="cls-6" d="M19.69,32.41c-.1-.23-.38-.29-.49-.41a.28.28,0,0,1-.06-.11h0a.46.46,0,0,1-.07.11c-.1.12-.39.18-.48.41a.28.28,0,0,0,0,.23v1.51h1.13V32.64A.3.3,0,0,0,19.69,32.41Z"/><path class="cls-6" d="M22.79,34.28c-.09-.23-.38-.29-.49-.41a.28.28,0,0,1-.06-.11h0a.28.28,0,0,1-.06.11c-.11.12-.39.18-.49.41a.34.34,0,0,0,0,.23V36H22.8V34.51A.28.28,0,0,0,22.79,34.28Z"/><path class="cls-6" d="M6.44,30.49c.1-.23.38-.29.49-.41A.28.28,0,0,0,7,30H7a.46.46,0,0,0,.07.11c.11.12.39.18.48.41a.31.31,0,0,1,0,.24v1.5H6.44v-1.5A.33.33,0,0,1,6.44,30.49Z"/><path class="cls-6" d="M3.35,32.41c.09-.23.37-.29.48-.41a.28.28,0,0,0,.06-.11h0A.28.28,0,0,0,4,32c.11.12.39.18.48.41a.28.28,0,0,1,0,.23v1.51H3.34V32.64A.28.28,0,0,1,3.35,32.41Z"/><path class="cls-6" d="M.24,34.28c.1-.23.38-.29.49-.41a.28.28,0,0,0,.06-.11h0a.46.46,0,0,0,.07.11c.11.12.39.18.48.41a.28.28,0,0,1,0,.23V36H.24V34.51A.3.3,0,0,1,.24,34.28Z"/><rect class="cls-3" y="24.75" width="23.03" height="1.05"/><rect class="cls-5" x="0.48" y="25.81" width="22.07" height="0.9"/><path class="cls-7" d="M22,38.51q-10.49.33-21,0l0-.77C8,38,15,38,22,37.74Z"/></g></g></svg>