<svg xmlns="http://www.w3.org/2000/svg" viewBox="0 0 62.92 99.94"><defs><style>.cls-1{fill:#34495e;}.cls-2{fill:#44617d;}.cls-3{fill:#22303d;}</style></defs><g id="Layer_2" data-name="Layer 2"><g id="OBJECTS"><path class="cls-1" d="M32.33.28A4,4,0,0,0,31.46,0a4,4,0,0,0-.87.28c-.38.19-1.54,8.54-1.54,8.54h4.82S32.71.47,32.33.28Z"/><polygon class="cls-2" points="31.46 8.3 26.64 8.3 26.64 14.87 31.46 14.87 36.28 14.87 36.28 8.3 31.46 8.3"/><path class="cls-1" d="M38.26,17.64a2.31,2.31,0,0,0-2-3.1H26.64a2.31,2.31,0,0,0-2,3.1c.5,2.06.79,3.89-.1,5.07h13.8C37.47,21.53,37.76,19.7,38.26,17.64Z"/><path class="cls-3" d="M42.09,23.13c.68-1.5-.87-3.33-1.73-3.52.31.89-1.3,2-1.3,2H23.86s-1.61-1.13-1.3-2c-.86.19-2.41,2-1.73,3.52,0,0-1,12.24-1,13.13H43.08C43.08,35.37,42.09,23.13,42.09,23.13Z"/><polygon class="cls-2" points="20.18 27.18 19.92 27.18 19.67 27.18 19.42 29.24 19.92 29.24 20.43 29.24 20.18 27.18"/><path class="cls-1" d="M21,29.68a1.31,1.31,0,0,0-.61-.82h-1a1.31,1.31,0,0,0-.61.82c-.13.57-.21,1.14-.21,1.14h2.65S21.16,30.25,21,29.68Z"/><path class="cls-2" d="M21.9,31.21c-.11-.29-.68-.56-.68-.56h-2.6s-.57.27-.67.56a1.68,1.68,0,0,0-.11.55H22A1.83,1.83,0,0,0,21.9,31.21Z"/><rect class="cls-1" x="17.84" y="31.76" width="4.16" height="3.65"/><rect class="cls-2" x="18.34" y="32.51" width="0.73" height="0.73" transform="translate(-17.78 22.89) rotate(-45.05)"/><rect class="cls-2" x="19.56" y="32.51" width="0.73" height="0.73" transform="translate(-17.42 23.75) rotate(-45.06)"/><rect class="cls-2" x="20.77" y="32.51" width="0.73" height="0.73" transform="translate(-17.06 24.58) rotate(-45)"/><polygon class="cls-2" points="24.79 27.18 24.54 27.18 24.29 27.18 24.03 29.24 24.54 29.24 25.04 29.24 24.79 27.18"/><path class="cls-1" d="M25.65,29.68a1.31,1.31,0,0,0-.61-.82H24a1.31,1.31,0,0,0-.61.82c-.12.57-.21,1.14-.21,1.14h2.65S25.78,30.25,25.65,29.68Z"/><path class="cls-2" d="M26.51,31.21c-.1-.29-.67-.56-.67-.56h-2.6s-.57.27-.68.56a1.68,1.68,0,0,0-.11.55h4.17A1.68,1.68,0,0,0,26.51,31.21Z"/><rect class="cls-1" x="22.45" y="31.76" width="4.16" height="3.65"/><rect class="cls-2" x="22.96" y="32.51" width="0.73" height="0.73" transform="translate(-16.42 26.12) rotate(-45)"/><rect class="cls-2" x="24.17" y="32.51" width="0.73" height="0.73" transform="translate(-16.07 27.02) rotate(-45.06)"/><rect class="cls-2" x="25.39" y="32.51" width="0.73" height="0.73" transform="translate(-15.7 27.8) rotate(-44.95)"/><polygon class="cls-2" points="29.4 27.18 29.15 27.18 28.9 27.18 28.65 29.24 29.15 29.24 29.66 29.24 29.4 27.18"/><path class="cls-1" d="M30.27,29.68a1.31,1.31,0,0,0-.61-.82h-1a1.27,1.27,0,0,0-.61.82c-.13.57-.21,1.14-.21,1.14h2.65S30.39,30.25,30.27,29.68Z"/><path class="cls-2" d="M31.13,31.21c-.11-.29-.68-.56-.68-.56h-2.6s-.57.27-.68.56a1.83,1.83,0,0,0-.1.55h4.16A1.83,1.83,0,0,0,31.13,31.21Z"/><rect class="cls-1" x="27.07" y="31.76" width="4.16" height="3.65"/><rect class="cls-2" x="27.57" y="32.51" width="0.73" height="0.73" transform="translate(-15.06 29.34) rotate(-44.94)"/><rect class="cls-2" x="28.79" y="32.51" width="0.73" height="0.73" transform="translate(-14.71 30.28) rotate(-45.05)"/><rect class="cls-2" x="30" y="32.51" width="0.73" height="0.73" transform="translate(-14.36 31.14) rotate(-45.06)"/><polygon class="cls-2" points="34.02 27.18 33.77 27.18 33.52 27.18 33.26 29.24 33.77 29.24 34.27 29.24 34.02 27.18"/><path class="cls-1" d="M34.88,29.68a1.31,1.31,0,0,0-.61-.82h-1a1.31,1.31,0,0,0-.61.82c-.12.57-.21,1.14-.21,1.14h2.65S35,30.25,34.88,29.68Z"/><path class="cls-2" d="M35.74,31.21c-.1-.29-.68-.56-.68-.56H32.47s-.58.27-.68.56a1.68,1.68,0,0,0-.11.55h4.17A1.68,1.68,0,0,0,35.74,31.21Z"/><rect class="cls-1" x="31.68" y="31.76" width="4.16" height="3.65"/><rect class="cls-2" x="32.19" y="32.51" width="0.73" height="0.73" transform="translate(-13.71 32.6) rotate(-44.94)"/><rect class="cls-2" x="33.4" y="32.51" width="0.73" height="0.73" transform="translate(-13.36 33.51) rotate(-45)"/><rect class="cls-2" x="34.61" y="32.51" width="0.73" height="0.73" transform="translate(-13 34.41) rotate(-45.05)"/><polygon class="cls-2" points="38.63 27.18 38.38 27.18 38.13 27.18 37.88 29.24 38.38 29.24 38.88 29.24 38.63 27.18"/><path class="cls-1" d="M39.5,29.68a1.31,1.31,0,0,0-.62-.82h-1a1.28,1.28,0,0,0-.6.82c-.13.57-.21,1.14-.21,1.14H39.7S39.62,30.25,39.5,29.68Z"/><path class="cls-2" d="M40.36,31.21c-.11-.29-.68-.56-.68-.56h-2.6s-.57.27-.68.56a1.83,1.83,0,0,0-.1.55h4.16A1.83,1.83,0,0,0,40.36,31.21Z"/><rect class="cls-1" x="36.3" y="31.76" width="4.16" height="3.65"/><rect class="cls-2" x="36.8" y="32.51" width="0.73" height="0.73" transform="translate(-12.36 35.91) rotate(-45)"/><rect class="cls-2" x="38.01" y="32.51" width="0.73" height="0.73" transform="translate(-12 36.81) rotate(-45.05)"/><rect class="cls-2" x="39.23" y="32.51" width="0.73" height="0.73" transform="translate(-11.65 37.63) rotate(-45)"/><polygon class="cls-2" points="43.25 27.18 42.99 27.18 42.74 27.18 42.49 29.24 42.99 29.24 43.5 29.24 43.25 27.18"/><path class="cls-1" d="M44.11,29.68a1.31,1.31,0,0,0-.61-.82h-1a1.31,1.31,0,0,0-.61.82c-.13.57-.21,1.14-.21,1.14h2.65S44.24,30.25,44.11,29.68Z"/><path class="cls-2" d="M45,31.21c-.1-.29-.68-.56-.68-.56H41.7s-.58.27-.68.56a1.68,1.68,0,0,0-.11.55h4.17A1.68,1.68,0,0,0,45,31.21Z"/><rect class="cls-1" x="40.91" y="31.76" width="4.16" height="3.65"/><rect class="cls-2" x="41.41" y="32.51" width="0.73" height="0.73" transform="translate(-11.01 39.17) rotate(-45)"/><rect class="cls-2" x="42.63" y="32.51" width="0.73" height="0.73" transform="translate(-10.66 40.03) rotate(-45)"/><rect class="cls-2" x="43.84" y="32.51" width="0.73" height="0.73" transform="translate(-10.3 40.89) rotate(-45)"/><rect class="cls-3" x="17.2" y="35.18" width="28.52" height="14.69"/><rect class="cls-1" x="16.88" y="36.73" width="29.16" height="1"/><rect class="cls-1" x="20.22" y="24.06" width="22.48" height="1"/><polygon class="cls-2" points="15.87 37.46 15.52 37.46 15.17 37.46 14.83 40.31 15.52 40.31 16.22 40.31 15.87 37.46"/><path class="cls-1" d="M17.06,40.92a1.76,1.76,0,0,0-.84-1.13H14.83A1.79,1.79,0,0,0,14,40.92c-.17.78-.29,1.57-.29,1.57h3.66S17.24,41.7,17.06,40.92Z"/><path class="cls-2" d="M18.25,43c-.14-.39-.93-.77-.93-.77H13.73s-.79.38-.94.77a2.61,2.61,0,0,0-.14.77H18.4A2.45,2.45,0,0,0,18.25,43Z"/><rect class="cls-1" x="12.65" y="43.79" width="5.75" height="5.05"/><rect class="cls-2" x="13.34" y="44.83" width="1.01" height="1.01" transform="translate(-28.03 23.13) rotate(-45.08)"/><rect class="cls-2" x="15.02" y="44.83" width="1.01" height="1.01" transform="translate(-27.52 24.28) rotate(-45.04)"/><rect class="cls-2" x="16.69" y="44.83" width="1.01" height="1.01" transform="translate(-27.02 25.44) rotate(-45)"/><polygon class="cls-2" points="22.25 37.46 21.9 37.46 21.55 37.46 21.2 40.31 21.9 40.31 22.59 40.31 22.25 37.46"/><path class="cls-1" d="M23.44,40.92a1.79,1.79,0,0,0-.85-1.13H21.2a1.76,1.76,0,0,0-.84,1.13c-.18.78-.29,1.57-.29,1.57h3.66S23.61,41.7,23.44,40.92Z"/><path class="cls-2" d="M24.63,43c-.15-.39-.94-.77-.94-.77H20.1s-.79.38-.93.77a2.45,2.45,0,0,0-.15.77h5.75A2.61,2.61,0,0,0,24.63,43Z"/><rect class="cls-1" x="19.02" y="43.79" width="5.75" height="5.05"/><rect class="cls-2" x="19.71" y="44.83" width="1.01" height="1.01" transform="translate(-26.13 27.58) rotate(-45)"/><rect class="cls-2" x="21.39" y="44.83" width="1.01" height="1.01" transform="translate(-25.65 28.8) rotate(-45.04)"/><rect class="cls-2" x="23.07" y="44.83" width="1.01" height="1.01" transform="translate(-25.15 29.95) rotate(-45)"/><polygon class="cls-2" points="28.62 37.46 28.27 37.46 27.93 37.46 27.57 40.31 28.27 40.31 28.97 40.31 28.62 37.46"/><path class="cls-1" d="M29.81,40.92A1.76,1.76,0,0,0,29,39.79H27.58a1.79,1.79,0,0,0-.85,1.13c-.17.78-.29,1.57-.29,1.57H30.1S30,41.7,29.81,40.92Z"/><path class="cls-2" d="M31,43c-.14-.39-.93-.77-.93-.77H26.48s-.79.38-.94.77a2.61,2.61,0,0,0-.14.77h5.75A2.45,2.45,0,0,0,31,43Z"/><rect class="cls-1" x="25.4" y="43.79" width="5.75" height="5.05"/><rect class="cls-2" x="26.09" y="44.83" width="1.01" height="1.01" transform="translate(-24.26 32.05) rotate(-44.96)"/><rect class="cls-2" x="27.77" y="44.83" width="1.01" height="1.01" transform="translate(-23.79 33.31) rotate(-45.04)"/><rect class="cls-2" x="29.44" y="44.83" width="1.01" height="1.01" transform="translate(-23.29 34.5) rotate(-45.04)"/><polygon class="cls-2" points="34.99 37.46 34.65 37.46 34.3 37.46 33.95 40.31 34.65 40.31 35.34 40.31 34.99 37.46"/><path class="cls-1" d="M36.19,40.92a1.79,1.79,0,0,0-.85-1.13H34a1.76,1.76,0,0,0-.84,1.13c-.18.78-.29,1.57-.29,1.57h3.66S36.36,41.7,36.19,40.92Z"/><path class="cls-2" d="M37.38,43c-.15-.39-.94-.77-.94-.77H32.85s-.79.38-.93.77a2.45,2.45,0,0,0-.15.77h5.75A2.61,2.61,0,0,0,37.38,43Z"/><rect class="cls-1" x="31.77" y="43.79" width="5.75" height="5.05"/><rect class="cls-2" x="32.46" y="44.83" width="1.01" height="1.01" transform="translate(-22.39 36.55) rotate(-44.96)"/><rect class="cls-2" x="34.14" y="44.83" width="1.01" height="1.01" transform="translate(-21.92 37.86) rotate(-45.08)"/><rect class="cls-2" x="35.82" y="44.83" width="1.01" height="1.01" transform="translate(-21.42 39) rotate(-45.04)"/><polygon class="cls-2" points="41.37 37.46 41.02 37.46 40.67 37.46 40.32 40.31 41.02 40.31 41.72 40.31 41.37 37.46"/><path class="cls-1" d="M42.56,40.92a1.76,1.76,0,0,0-.84-1.13h-1.4a1.79,1.79,0,0,0-.84,1.13c-.17.78-.29,1.57-.29,1.57h3.66S42.73,41.7,42.56,40.92Z"/><path class="cls-2" d="M43.75,43c-.14-.39-.94-.77-.94-.77H39.23s-.79.38-.94.77a2.45,2.45,0,0,0-.15.77H43.9A2.45,2.45,0,0,0,43.75,43Z"/><rect class="cls-1" x="38.14" y="43.79" width="5.75" height="5.05"/><rect class="cls-2" x="38.84" y="44.83" width="1.01" height="1.01" transform="translate(-20.53 41.1) rotate(-45)"/><rect class="cls-2" x="40.52" y="44.83" width="1.01" height="1.01" transform="translate(-20.04 42.33) rotate(-45.04)"/><rect class="cls-2" x="42.19" y="44.83" width="1.01" height="1.01" transform="translate(-19.55 43.51) rotate(-45.04)"/><polygon class="cls-2" points="47.74 37.46 47.4 37.46 47.05 37.46 46.7 40.31 47.4 40.31 48.09 40.31 47.74 37.46"/><path class="cls-1" d="M48.94,40.92a1.79,1.79,0,0,0-.85-1.13H46.7a1.76,1.76,0,0,0-.84,1.13c-.18.78-.29,1.57-.29,1.57h3.65S49.11,41.7,48.94,40.92Z"/><path class="cls-2" d="M50.13,43c-.15-.39-.94-.77-.94-.77H45.6s-.79.38-.94.77a2.61,2.61,0,0,0-.14.77h5.75A2.61,2.61,0,0,0,50.13,43Z"/><rect class="cls-1" x="44.52" y="43.79" width="5.75" height="5.05"/><rect class="cls-2" x="45.21" y="44.83" width="1.01" height="1.01" transform="translate(-18.67 45.61) rotate(-45)"/><rect class="cls-2" x="46.89" y="44.83" width="1.01" height="1.01" transform="translate(-18.17 46.84) rotate(-45.04)"/><rect class="cls-2" x="48.57" y="44.83" width="1.01" height="1.01" transform="translate(-17.68 47.98) rotate(-45)"/><rect class="cls-3" x="11.76" y="48.51" width="39.39" height="12.38"/><rect class="cls-2" x="4.07" y="85.78" width="54.79" height="14.16"/><rect class="cls-2" x="7.35" y="75.25" width="48.23" height="11.27"/><path class="cls-2" d="M54.34,66.62V64.84s1.33-.65,1.33-1.45a1.62,1.62,0,0,0-.5-1.21H7.76a1.62,1.62,0,0,0-.5,1.21c0,.8,1.33,1.45,1.33,1.45v1.78s-3.36,1.66-3.36,3.67a4.09,4.09,0,0,0,1.27,3.06H56.43a4.09,4.09,0,0,0,1.27-3.06C57.7,68.28,54.34,66.62,54.34,66.62Z"/><rect class="cls-1" x="6.3" y="73.11" width="50.32" height="2.86"/><rect class="cls-1" y="90.7" width="62.92" height="9.24"/><path class="cls-1" d="M56.71,80.36V79H6.21v1.37s-3.44,1.69-3.44,3.76a4.17,4.17,0,0,0,1.3,3.13H58.85a4.17,4.17,0,0,0,1.3-3.13C60.15,82.05,56.71,80.36,56.71,80.36Z"/><rect class="cls-1" x="8.58" y="64.84" width="45.75" height="1.78"/><polygon class="cls-2" points="12.19 48.11 11.76 48.11 11.33 48.11 10.9 51.63 11.76 51.63 12.62 51.63 12.19 48.11"/><path class="cls-1" d="M13.66,52.38a2.2,2.2,0,0,0-1-1.4H10.9a2.2,2.2,0,0,0-1,1.4c-.22,1-.36,1.94-.36,1.94H14S13.88,53.35,13.66,52.38Z"/><path class="cls-2" d="M15.14,55C15,54.5,14,54,14,54H9.54s-1,.47-1.15,1a3,3,0,0,0-.18.95h7.11A3,3,0,0,0,15.14,55Z"/><rect class="cls-1" x="8.21" y="55.94" width="7.11" height="6.24"/><rect class="cls-2" x="9.06" y="57.22" width="1.25" height="1.25" transform="translate(-38.08 23.82) rotate(-45.03)"/><rect class="cls-2" x="11.14" y="57.22" width="1.25" height="1.25" transform="translate(-37.47 25.29) rotate(-45.03)"/><rect class="cls-2" x="13.21" y="57.22" width="1.25" height="1.25" transform="translate(-36.83 26.7) rotate(-44.97)"/><polygon class="cls-2" points="20.07 48.11 19.64 48.11 19.21 48.11 18.78 51.63 19.64 51.63 20.5 51.63 20.07 48.11"/><path class="cls-1" d="M21.54,52.38a2.2,2.2,0,0,0-1-1.4H18.78a2.2,2.2,0,0,0-1,1.4c-.22,1-.36,1.94-.36,1.94H21.9S21.76,53.35,21.54,52.38Z"/><path class="cls-2" d="M23,55c-.18-.49-1.16-1-1.16-1H17.42s-1,.47-1.15,1a3,3,0,0,0-.18.95H23.2A3,3,0,0,0,23,55Z"/><rect class="cls-1" x="16.09" y="55.94" width="7.11" height="6.24"/><rect class="cls-2" x="16.94" y="57.22" width="1.25" height="1.25" transform="translate(-35.77 29.39) rotate(-45.03)"/><rect class="cls-2" x="19.02" y="57.22" width="1.25" height="1.25" transform="translate(-35.16 30.86) rotate(-45.03)"/><rect class="cls-2" x="21.09" y="57.22" width="1.25" height="1.25" transform="translate(-34.53 32.27) rotate(-44.97)"/><polygon class="cls-2" points="27.95 48.11 27.52 48.11 27.09 48.11 26.66 51.63 27.52 51.63 28.38 51.63 27.95 48.11"/><path class="cls-1" d="M29.42,52.38a2.2,2.2,0,0,0-1-1.4H26.66a2.2,2.2,0,0,0-1,1.4c-.22,1-.36,1.94-.36,1.94h4.52S29.64,53.35,29.42,52.38Z"/><path class="cls-2" d="M30.89,55c-.18-.49-1.15-1-1.15-1H25.3s-1,.47-1.16,1a3,3,0,0,0-.18.95h7.11A3,3,0,0,0,30.89,55Z"/><rect class="cls-1" x="23.96" y="55.94" width="7.11" height="6.24"/><rect class="cls-2" x="24.82" y="57.22" width="1.25" height="1.25" transform="translate(-33.43 34.9) rotate(-44.97)"/><rect class="cls-2" x="26.89" y="57.22" width="1.25" height="1.25" transform="translate(-32.85 36.44) rotate(-45.03)"/><rect class="cls-2" x="28.97" y="57.22" width="1.25" height="1.25" transform="translate(-32.24 37.9) rotate(-45.03)"/><polygon class="cls-2" points="35.83 48.11 35.4 48.11 34.97 48.11 34.54 51.63 35.4 51.63 36.26 51.63 35.83 48.11"/><path class="cls-1" d="M37.3,52.38a2.2,2.2,0,0,0-1-1.4H34.54a2.2,2.2,0,0,0-1,1.4c-.22,1-.36,1.94-.36,1.94h4.52S37.52,53.35,37.3,52.38Z"/><path class="cls-2" d="M38.77,55c-.18-.49-1.15-1-1.15-1H33.18s-1,.47-1.16,1a3,3,0,0,0-.18.95H39A3,3,0,0,0,38.77,55Z"/><rect class="cls-1" x="31.84" y="55.94" width="7.11" height="6.24"/><rect class="cls-2" x="32.7" y="57.22" width="1.25" height="1.25" transform="translate(-31.13 40.47) rotate(-44.97)"/><rect class="cls-2" x="34.77" y="57.22" width="1.25" height="1.25" transform="translate(-30.54 42.01) rotate(-45.03)"/><rect class="cls-2" x="36.85" y="57.22" width="1.25" height="1.25" transform="translate(-29.93 43.47) rotate(-45.03)"/><polygon class="cls-2" points="43.71 48.11 43.28 48.11 42.85 48.11 42.42 51.63 43.28 51.63 44.14 51.63 43.71 48.11"/><path class="cls-1" d="M45.18,52.38a2.24,2.24,0,0,0-1-1.4H42.42a2.24,2.24,0,0,0-1.05,1.4c-.21,1-.35,1.94-.35,1.94h4.52S45.4,53.35,45.18,52.38Z"/><path class="cls-2" d="M46.65,55c-.18-.49-1.16-1-1.16-1H41.06s-1,.47-1.16,1a3,3,0,0,0-.18.95h7.11A3,3,0,0,0,46.65,55Z"/><rect class="cls-1" x="39.72" y="55.94" width="7.11" height="6.24"/><rect class="cls-2" x="40.58" y="57.22" width="1.25" height="1.25" transform="translate(-28.83 46.04) rotate(-44.97)"/><rect class="cls-2" x="42.65" y="57.22" width="1.25" height="1.25" transform="translate(-28.23 47.58) rotate(-45.03)"/><rect class="cls-2" x="44.73" y="57.22" width="1.25" height="1.25" transform="translate(-27.62 49.05) rotate(-45.03)"/><polygon class="cls-2" points="51.59 48.11 51.16 48.11 50.73 48.11 50.3 51.63 51.16 51.63 52.02 51.63 51.59 48.11"/><path class="cls-1" d="M53.06,52.38A2.24,2.24,0,0,0,52,51H50.29a2.24,2.24,0,0,0-1,1.4c-.21,1-.36,1.94-.36,1.94h4.53S53.28,53.35,53.06,52.38Z"/><path class="cls-2" d="M54.53,55c-.18-.49-1.16-1-1.16-1H48.94s-1,.47-1.16,1a3,3,0,0,0-.18.95h7.11A3,3,0,0,0,54.53,55Z"/><rect class="cls-1" x="47.6" y="55.94" width="7.11" height="6.24"/><rect class="cls-2" x="48.46" y="57.22" width="1.25" height="1.25" transform="translate(-26.52 51.61) rotate(-44.97)"/><rect class="cls-2" x="50.53" y="57.22" width="1.25" height="1.25" transform="translate(-25.92 53.15) rotate(-45.03)"/><rect class="cls-2" x="52.6" y="57.22" width="1.25" height="1.25" transform="translate(-25.31 54.62) rotate(-45.03)"/><path class="cls-3" d="M10.41,59.92a4,4,0,0,1-.66-.43,1.27,1.27,0,0,1-.23-.44H9.29a1.27,1.27,0,0,1-.23.44,4.41,4.41,0,0,1-.66.43,1.88,1.88,0,0,0-.63.92v1.34H11V60.84A1.88,1.88,0,0,0,10.41,59.92Z"/><path class="cls-3" d="M13.56,59.92a4.41,4.41,0,0,1-.66-.43,1.27,1.27,0,0,1-.23-.44h-.23a1.27,1.27,0,0,1-.23.44,4.41,4.41,0,0,1-.66.43,1.88,1.88,0,0,0-.63.92v1.34h3.27V60.84A1.88,1.88,0,0,0,13.56,59.92Z"/><path class="cls-3" d="M16.71,59.92a4.41,4.41,0,0,1-.66-.43,1.27,1.27,0,0,1-.23-.44h-.23a1.27,1.27,0,0,1-.23.44,4.41,4.41,0,0,1-.66.43,1.88,1.88,0,0,0-.63.92v1.34h3.27V60.84A1.88,1.88,0,0,0,16.71,59.92Z"/><path class="cls-3" d="M19.86,59.92a4.41,4.41,0,0,1-.66-.43,1.27,1.27,0,0,1-.23-.44h-.23a1.27,1.27,0,0,1-.23.44,4.41,4.41,0,0,1-.66.43,1.88,1.88,0,0,0-.63.92v1.34h3.27V60.84A1.88,1.88,0,0,0,19.86,59.92Z"/><path class="cls-3" d="M23,59.92a4.41,4.41,0,0,1-.66-.43,1.14,1.14,0,0,1-.22-.44h-.24a1.27,1.27,0,0,1-.23.44,4,4,0,0,1-.66.43,1.88,1.88,0,0,0-.63.92v1.34h3.28V60.84A1.92,1.92,0,0,0,23,59.92Z"/><path class="cls-3" d="M26.16,59.92a5,5,0,0,1-.66-.43,1.14,1.14,0,0,1-.22-.44H25a1.27,1.27,0,0,1-.23.44,4,4,0,0,1-.66.43,1.88,1.88,0,0,0-.63.92v1.34H26.8V60.84A1.92,1.92,0,0,0,26.16,59.92Z"/><path class="cls-3" d="M29.31,59.92a5,5,0,0,1-.66-.43,1.14,1.14,0,0,1-.22-.44h-.24a1.27,1.27,0,0,1-.23.44,4,4,0,0,1-.66.43,1.88,1.88,0,0,0-.63.92v1.34H30V60.84A1.92,1.92,0,0,0,29.31,59.92Z"/><path class="cls-3" d="M32.46,59.92a4.31,4.31,0,0,1-.65-.43,1.09,1.09,0,0,1-.23-.44h-.24a1.27,1.27,0,0,1-.23.44,4,4,0,0,1-.66.43,2,2,0,0,0-.63.92v1.34H33.1V60.84A1.92,1.92,0,0,0,32.46,59.92Z"/><path class="cls-3" d="M35.61,59.92a4.31,4.31,0,0,1-.65-.43,1.09,1.09,0,0,1-.23-.44h-.24a1.09,1.09,0,0,1-.23.44,4.31,4.31,0,0,1-.65.43,1.92,1.92,0,0,0-.64.92v1.34h3.28V60.84A1.92,1.92,0,0,0,35.61,59.92Z"/><path class="cls-3" d="M38.76,59.92a4.31,4.31,0,0,1-.65-.43,1.09,1.09,0,0,1-.23-.44h-.24a1.09,1.09,0,0,1-.23.44,4.31,4.31,0,0,1-.65.43,1.92,1.92,0,0,0-.64.92v1.34H39.4V60.84A1.92,1.92,0,0,0,38.76,59.92Z"/><path class="cls-3" d="M41.91,59.92a4.31,4.31,0,0,1-.65-.43,1.27,1.27,0,0,1-.23-.44h-.24a1.14,1.14,0,0,1-.22.44,5,5,0,0,1-.66.43,1.92,1.92,0,0,0-.64.92v1.34h3.28V60.84A1.85,1.85,0,0,0,41.91,59.92Z"/><path class="cls-3" d="M45.07,59.92a4,4,0,0,1-.66-.43,1.27,1.27,0,0,1-.23-.44h-.24a1.14,1.14,0,0,1-.22.44,5,5,0,0,1-.66.43,1.92,1.92,0,0,0-.64.92v1.34H45.7V60.84A1.88,1.88,0,0,0,45.07,59.92Z"/><path class="cls-3" d="M48.22,59.92a4,4,0,0,1-.66-.43,1.27,1.27,0,0,1-.23-.44h-.24a1.14,1.14,0,0,1-.22.44,5,5,0,0,1-.66.43,1.92,1.92,0,0,0-.64.92v1.34h3.28V60.84A1.88,1.88,0,0,0,48.22,59.92Z"/><path class="cls-3" d="M51.37,59.92a4,4,0,0,1-.66-.43,1.27,1.27,0,0,1-.23-.44h-.23a1.27,1.27,0,0,1-.23.44,4.41,4.41,0,0,1-.66.43,1.88,1.88,0,0,0-.63.92v1.34H52V60.84A1.88,1.88,0,0,0,51.37,59.92Z"/><path class="cls-3" d="M54.52,59.92a4.41,4.41,0,0,1-.66-.43,1.27,1.27,0,0,1-.23-.44H53.4a1.27,1.27,0,0,1-.23.44,4.41,4.41,0,0,1-.66.43,1.88,1.88,0,0,0-.63.92v1.34h3.27V60.84A1.88,1.88,0,0,0,54.52,59.92Z"/><rect class="cls-2" x="14.68" y="50.3" width="2.06" height="2.06" transform="translate(-31.69 26.14) rotate(-45)"/><rect class="cls-2" x="22.49" y="50.3" width="2.06" height="2.06" transform="translate(-29.4 31.66) rotate(-45)"/><rect class="cls-2" x="30.31" y="50.3" width="2.06" height="2.06" transform="translate(-27.11 37.19) rotate(-45)"/><rect class="cls-2" x="38.12" y="50.3" width="2.06" height="2.06" transform="translate(-24.83 42.71) rotate(-45)"/><rect class="cls-2" x="45.93" y="50.3" width="2.06" height="2.06" transform="translate(-22.54 48.24) rotate(-45)"/></g></g></svg>