<svg xmlns="http://www.w3.org/2000/svg" viewBox="0 0 29.33 93.16"><defs><style>.cls-1{isolation:isolate;}.cls-2{fill:#c3c8d4;}.cls-3{fill:#b0b4bf;}.cls-4{fill:#ffc32b;}.cls-5{fill:#d3d9e6;}.cls-6{fill:#fff;}.cls-7{fill:#ebebeb;mix-blend-mode:multiply;}</style></defs><g class="cls-1"><g id="Layer_2" data-name="Layer 2"><g id="OBJECTS"><rect class="cls-2" x="6.76" y="57.42" width="15.81" height="17.27"/><rect class="cls-3" x="6.76" y="57.42" width="15.81" height="1.89"/><rect class="cls-3" x="6.76" y="72.8" width="15.81" height="1.89"/><rect class="cls-2" x="6.05" y="76.93" width="17.22" height="8.19"/><rect class="cls-3" x="6.05" y="76.93" width="17.22" height="2.84"/><polygon class="cls-4" points="16.75 11.29 12.58 11.29 14.56 0 14.77 0 16.75 11.29"/><rect class="cls-4" x="10.44" y="10.16" width="8.45" height="2.21"/><polygon class="cls-2" points="22.19 50.43 7.13 50.43 10.85 16.67 18.48 16.67 22.19 50.43"/><rect class="cls-4" x="14.21" y="16.36" width="0.9" height="31.77"/><polygon class="cls-4" points="8.67 14.77 20.65 14.77 19.83 17.21 9.5 17.21 8.67 14.77"/><polygon class="cls-5" points="21.46 14.86 7.86 14.86 7.86 12.65 14.66 12.36 21.46 12.65 21.46 14.86"/><polygon class="cls-2" points="21.46 12.65 7.86 12.65 8.8 11.55 20.52 11.55 21.46 12.65"/><path class="cls-4" d="M20.93,49.26H17.8a3.26,3.26,0,0,0-6.27,0H8.39A3.27,3.27,0,0,0,5.26,46.9v3.27H24.07V46.9A3.28,3.28,0,0,0,20.93,49.26Z"/><polygon class="cls-5" points="4.83 50.08 4.83 51.48 4.83 51.48 6.49 58.45 22.84 58.45 24.5 51.48 24.5 51.48 24.5 50.08 4.83 50.08"/><path class="cls-4" d="M21,51.89c-.76,0-1.4,1.48-1.57,2.51-.17-1-.81-2.51-1.57-2.51s-1.4,1.48-1.58,2.51c-.17-1-.8-2.51-1.57-2.51s-1.4,1.48-1.57,2.51c-.17-1-.81-2.51-1.57-2.51S10.12,53.37,10,54.4c-.17-1-.81-2.51-1.57-2.51s-1.62,2-1.62,3H22.57C22.57,53.92,21.84,51.89,21,51.89Z"/><polygon class="cls-4" points="7.46 55.36 8.38 55.63 9.3 55.36 8.38 55.08 7.46 55.36"/><polygon class="cls-4" points="10.6 55.36 11.52 55.63 12.44 55.36 11.52 55.08 10.6 55.36"/><polygon class="cls-4" points="13.74 55.36 14.66 55.63 15.58 55.36 14.66 55.08 13.74 55.36"/><polygon class="cls-4" points="16.89 55.36 17.81 55.63 18.73 55.36 17.81 55.08 16.89 55.36"/><polygon class="cls-4" points="20.03 55.36 20.95 55.63 21.87 55.36 20.95 55.08 20.03 55.36"/><polygon class="cls-5" points="24.26 75.89 23.17 73.59 6.16 73.59 5.06 75.89 5.06 78.19 5.44 78.58 23.89 78.58 24.26 78.19 24.26 75.89"/><polygon class="cls-5" points="24.58 85.82 23.44 83.52 5.88 83.52 4.75 85.82 4.75 88.11 5.14 88.5 24.18 88.5 24.58 88.11 24.58 85.82"/><polygon class="cls-2" points="29.33 90.47 28.2 88.18 1.13 88.18 0 90.47 0 92.77 0.39 93.16 28.94 93.16 29.33 92.77 29.33 90.47"/><polygon class="cls-6" points="14.66 71.62 19.19 71.62 19.19 62.16 14.66 60.49 10.14 62.16 10.14 71.62 14.66 71.62"/><path class="cls-4" d="M19.89,72.32H9.44V61.67l5.22-1.93,5.23,1.93Zm-9-1.39h7.65V62.64l-3.83-1.41-3.82,1.41Z"/><path class="cls-7" d="M24.51,88.18l.07-.07V85.82l-1.14-2.3h-.17V78.58h.61l.38-.39v-2.3l-1.09-2.3h-.6V58.45h.27l1.66-7V50.08h-.43V46.9a3.23,3.23,0,0,0-2.17.84L18.54,17.21h1.29l.79-2.35h.84V12.65l-.94-1.1H18.89V10.16H16.55L14.77,0h-.11V93.16H28.94l.39-.39v-2.3L28.2,88.18Z"/></g></g></g></svg>