<svg xmlns="http://www.w3.org/2000/svg" viewBox="0 0 75.37 43.21"><defs><style>.cls-1{fill:#646575;}.cls-2{fill:#5b5c6b;}.cls-3{fill:#2b2d3d;}.cls-4{fill:#3d3e47;}.cls-5{fill:#464752;}.cls-6{fill:#535461;}.cls-7{fill:#4a4a57;}.cls-8{fill:#8b8da3;}.cls-9{fill:#717285;}.cls-10{fill:#50515e;}.cls-11{fill:#373740;}.cls-12{fill:#b0b1bd;}</style></defs><g id="Layer_2" data-name="Layer 2"><g id="OBJECTS"><rect class="cls-1" x="4.36" y="16.82" width="66.65" height="14.87"/><path class="cls-2" d="M5.06,33.18v10H5.5V38.84a2.83,2.83,0,0,1,5.65,0v4.37h.4v-10Z"/><path class="cls-2" d="M12.94,33.18v10h.47V38.84a3,3,0,0,1,5.94,0v4.37h.43v-10Z"/><path class="cls-2" d="M21.16,33.18v10h.68V38.84c0-1.56,1.91-2.82,4.27-2.82s4.27,1.26,4.27,2.82v4.37H31v-10Z"/><path class="cls-2" d="M70.32,33.18v10h-.45V38.84a2.82,2.82,0,0,0-5.64,0v4.37h-.4v-10Z"/><path class="cls-2" d="M62.44,33.18v10H62V38.84a3,3,0,0,0-5.95,0v4.37H55.6v-10Z"/><path class="cls-2" d="M54.21,33.18v10h-.67V38.84c0-1.56-1.91-2.82-4.27-2.82S45,37.28,45,38.84v4.37h-.61v-10Z"/><rect class="cls-3" x="3.67" y="16.07" width="1.39" height="27.15"/><rect class="cls-3" x="11.55" y="16.07" width="1.39" height="27.15"/><rect class="cls-3" x="70.32" y="16.07" width="1.39" height="27.15"/><rect class="cls-3" x="62.44" y="16.07" width="1.39" height="27.15"/><path class="cls-4" d="M22.75,11.58,14,11C13.15,11,7.25,7.94,6.88.88A54.52,54.52,0,0,0,0,17.85s8.73,2.63,22.75,2.64Z"/><path class="cls-4" d="M52.63,11.58,61.39,11C62.23,11,68.13,7.94,68.5.88a54.65,54.65,0,0,1,6.87,17s-8.72,2.63-22.74,2.64Z"/><path class="cls-5" d="M60.93,0c-1.12,9.53-9.36,13.11-10.5,13.11H24.94c-1.13,0-9.38-3.58-10.49-13.11,0,0-5.37,8.7-4.72,23.62,0,0,9,2.76,28,1.54,19,1.22,28-1.54,28-1.54C66.3,8.7,60.93,0,60.93,0Z"/><rect class="cls-3" x="19.78" y="16.07" width="1.39" height="27.15"/><rect class="cls-3" x="54.21" y="16.07" width="1.39" height="27.15"/><path class="cls-6" d="M51,0c2.72,9.12-6.74,13.13-7.78,13.13h-11c-1,0-10.51-4-7.78-13.13a38,38,0,0,0-6.17,22.77s5.52,1.41,19.45,1.41,19.45-1.41,19.45-1.41A38.13,38.13,0,0,0,51,0Z"/><path class="cls-7" d="M29.86,24a43.36,43.36,0,0,0,5.75-10.88H34.38A43.88,43.88,0,0,1,28.9,24Z"/><path class="cls-7" d="M41,13.13H39.76A43.36,43.36,0,0,0,45.52,24l1,0A43.94,43.94,0,0,1,41,13.13Z"/><rect class="cls-8" x="2.21" y="30.43" width="70.27" height="4.36"/><path class="cls-9" d="M37.69,4.67a37.54,37.54,0,0,1-6.19,16.8V34.11H43.87V21.47A37.61,37.61,0,0,1,37.69,4.67Z"/><rect class="cls-10" x="31.5" y="34.09" width="12.37" height="9.12"/><path class="cls-1" d="M37.69,4.67a37.54,37.54,0,0,1-6.19,16.8v6.74a37.54,37.54,0,0,0,6.19-16.8,37.61,37.61,0,0,0,6.18,16.8V21.47A37.61,37.61,0,0,1,37.69,4.67Z"/><path class="cls-2" d="M37.69,25.26a4.29,4.29,0,0,1-3.37,2v6.89h6.73V27.22A3.8,3.8,0,0,1,37.69,25.26Z"/><polygon class="cls-3" points="32.38 43.22 30.99 43.22 30.99 22.05 32.38 20.17 32.38 43.22"/><polygon class="cls-3" points="43 43.22 44.39 43.22 44.39 22.05 43 20.17 43 43.22"/><path class="cls-11" d="M38.26,3.85l-.57-.48-.57.48s-.56,13.64-10.41,22.53h.82S37.08,18,37.69,5.19C38.29,18,47.85,26.38,47.85,26.38h.81C38.82,17.49,38.26,3.85,38.26,3.85Z"/><path class="cls-12" d="M37.69,18.41a8,8,0,0,1-5-1.59c.86,2.36,5,2.93,5,2.93s4.16-.57,5-2.93A8,8,0,0,1,37.69,18.41Z"/><path class="cls-12" d="M37.69,17.85s3.74-.51,4.52-2.62a7.23,7.23,0,0,1-4.52,1.42,7.2,7.2,0,0,1-4.52-1.42C34,17.34,37.69,17.85,37.69,17.85Z"/><path class="cls-12" d="M37.69,16.07s3.31-.46,4-2.33a6.38,6.38,0,0,1-4,1.26,6.39,6.39,0,0,1-4-1.26C34.37,15.61,37.69,16.07,37.69,16.07Z"/><path class="cls-12" d="M37.69,14.4s2.89-.4,3.49-2a6.1,6.1,0,0,1-7,0C34.79,14,37.69,14.4,37.69,14.4Z"/><path class="cls-12" d="M37.69,12.84s2.47-.34,3-1.73a5.21,5.21,0,0,1-6,0C35.22,12.5,37.69,12.84,37.69,12.84Z"/><path class="cls-12" d="M37.69,11.41s2.05-.28,2.47-1.44a4.32,4.32,0,0,1-4.95,0C35.64,11.13,37.69,11.41,37.69,11.41Z"/><path class="cls-12" d="M37.69,10.1s1.62-.22,2-1.14a3.13,3.13,0,0,1-2,.62,3.1,3.1,0,0,1-2-.62C36.06,9.88,37.69,10.1,37.69,10.1Z"/></g></g></svg>