<svg xmlns="http://www.w3.org/2000/svg" viewBox="0 0 79.94 49.42"><defs><style>.cls-1{fill:#738494;}.cls-2{fill:#99b0c4;}.cls-3{fill:#77a650;}</style></defs><g id="Layer_2" data-name="Layer 2"><g id="OBJECTS"><path class="cls-1" d="M0,32.56H33.07V21.76s-15.63-3-25.54-15.12H6.65v0H5.77A39,39,0,0,1,0,12.31Z"/><path class="cls-1" d="M79.93,12.31a39,39,0,0,1-5.77-5.67h-.87v0h-.87c-9.92,12.1-25.55,15.12-25.55,15.12v10.8H79.93Z"/><path class="cls-2" d="M41.3,0H40V0H38.64C23.64,18.3,0,22.87,0,22.87V39.2H79.94V22.87S56.3,18.3,41.3,0Z"/><path class="cls-3" d="M79.93,32.13a11.2,11.2,0,0,1-1.71.12c-3.19,0-3.19-.92-6.38-.92s-3.19.92-6.38.92-3.19-.92-6.38-.92-3.19.92-6.38.92-3.18-.92-6.37-.92-3.19.92-6.37.92-3.19-.92-6.38-.92-3.19.92-6.37.92-3.19-.92-6.38-.92-3.19.92-6.38.92-3.19-.92-6.37-.92-3.19.92-6.38.92A11.06,11.06,0,0,1,0,32.13V49.42H79.93Z"/></g></g></svg>