<svg xmlns="http://www.w3.org/2000/svg" viewBox="0 0 40.74 90.74"><defs><style>.cls-1{fill:#6e4230;}.cls-2{fill:#4d2e21;}.cls-3{fill:#cf947c;}.cls-4{fill:#8a533c;}.cls-5{fill:#ffc32b;}.cls-6{fill:#404040;}</style></defs><g id="Layer_2" data-name="Layer 2"><g id="OBJECTS"><rect class="cls-1" x="18.32" y="8.49" width="4.09" height="2.74"/><rect class="cls-1" x="17.49" y="11.23" width="5.75" height="2.74"/><rect class="cls-1" x="16.35" y="14.81" width="8.04" height="2.74"/><rect class="cls-1" x="15.76" y="19.49" width="9.23" height="2.74"/><rect class="cls-1" x="14.72" y="25.28" width="11.29" height="2.74"/><rect class="cls-1" x="13.8" y="32.04" width="13.14" height="2.74"/><rect class="cls-1" x="12.66" y="39.49" width="15.43" height="2.74"/><rect class="cls-1" x="11.96" y="47.98" width="16.83" height="2.74"/><rect class="cls-1" x="11.14" y="57.36" width="18.45" height="2.74"/><rect class="cls-1" x="10" y="67.47" width="20.74" height="2.74"/><rect class="cls-1" x="4.87" y="78.3" width="31" height="12.43"/><rect class="cls-2" x="14.71" y="81.68" width="11.32" height="9.06"/><polygon class="cls-3" points="24.17 90.74 16.57 90.74 16.57 84.52 20.37 82.61 24.17 84.52 24.17 90.74"/><path class="cls-4" d="M23.05,7.7a2.21,2.21,0,0,0-1.94-1.94s-.22-1.58-.74-1.58-.74,1.58-.74,1.58A2.21,2.21,0,0,0,17.69,7.7a1.49,1.49,0,0,0-1.06,1.11h7.48A1.49,1.49,0,0,0,23.05,7.7Z"/><path class="cls-5" d="M20.37,0c-.21,0-.68,2.47-.68,5.44a1.12,1.12,0,0,0,.68.15,1.12,1.12,0,0,0,.68-.15C21.05,2.47,20.57,0,20.37,0Z"/><path class="cls-6" d="M20.37,8.81H16.63a1.35,1.35,0,0,0,1.23.79h5a1.35,1.35,0,0,0,1.23-.79Z"/><path class="cls-5" d="M21.09,4.26H19.64a.42.42,0,0,0-.42.43V5.81h2.3V4.69A.43.43,0,0,0,21.09,4.26Z"/><rect class="cls-3" x="16.5" y="11.72" width="7.74" height="0.69"/><path class="cls-4" d="M22.6,10.48H18.14c-.31,0-1.9.5-2.22,1.5h8.9C24.5,11,22.91,10.48,22.6,10.48Z"/><rect class="cls-3" x="14.96" y="14.81" width="10.81" height="0.96"/><path class="cls-4" d="M23.48,13.06H17.25c-.43,0-2.66.71-3.1,2.11H26.59C26.15,13.77,23.92,13.06,23.48,13.06Z"/><rect class="cls-3" x="13.42" y="19.02" width="13.89" height="1.23"/><path class="cls-4" d="M24.37,16.78h-8c-.57,0-3.42.9-4,2.71h16C27.79,17.68,24.93,16.78,24.37,16.78Z"/><rect class="cls-3" x="11.88" y="24.3" width="16.97" height="1.5"/><path class="cls-4" d="M25.26,21.56H15.48c-.69,0-4.18,1.11-4.87,3.31H30.12C29.44,22.67,25.94,21.56,25.26,21.56Z"/><rect class="cls-3" x="10.35" y="30.61" width="20.05" height="1.78"/><path class="cls-4" d="M26.14,27.37H14.6c-.81,0-4.94,1.3-5.75,3.91h23C31.08,28.67,27,27.37,26.14,27.37Z"/><rect class="cls-3" x="8.81" y="37.89" width="23.12" height="2.05"/><path class="cls-4" d="M27,34.15H13.71c-.94,0-5.69,1.51-6.64,4.51H33.66C32.72,35.66,28,34.15,27,34.15Z"/><rect class="cls-3" x="7.27" y="46.09" width="26.2" height="2.32"/><path class="cls-4" d="M27.91,41.86H12.83c-1.07,0-6.46,1.7-7.52,5.1H35.43C34.37,43.56,29,41.86,27.91,41.86Z"/><rect class="cls-3" x="5.73" y="55.16" width="29.28" height="2.59"/><path class="cls-4" d="M28.8,50.43H11.94c-1.19,0-7.21,1.91-8.4,5.71H37.2C36,52.34,30,50.43,28.8,50.43Z"/><rect class="cls-3" x="4.19" y="65.06" width="32.36" height="2.87"/><path class="cls-4" d="M29.69,59.83H11.05c-1.31,0-8,2.1-9.28,6.31H39C37.65,61.93,31,59.83,29.69,59.83Z"/><rect class="cls-3" x="2.65" y="75.72" width="35.43" height="3.14"/><path class="cls-4" d="M30.57,70H10.17C8.73,70,1.44,72.3,0,76.91H40.74C39.3,72.3,32,70,30.57,70Z"/></g></g></svg>