<svg width="360" height="574" viewBox="0 0 360 574" fill="none" xmlns="http://www.w3.org/2000/svg">
<path fill-rule="evenodd" clip-rule="evenodd" d="M310.733 0L314.682 22.5754H319.863V25.6638H323.476L325.559 28.108V33.0186H323.697L321.946 38.2402H319.086L326.52 106.063C326.672 105.927 326.83 105.797 326.994 105.673C328.248 104.728 329.774 104.215 331.343 104.211V111.277H332.296V114.388L328.617 129.875H328.019V131.786V161.76V163.516H329.348L331.764 168.626V173.737L330.944 174.604H329.57V177.248V185.58H329.947L332.473 190.691V195.779L332.314 195.935H340.496L343 201.023V202H360V462H0V202H278V201.023L280.504 195.935H288.682L288.527 195.779V190.691L291.031 185.58H291.408V177.248V174.604H290.056L289.214 173.737V168.626L291.652 163.516H292.981V161.76V131.786V129.875H292.383L288.704 114.388V111.277H289.657V104.211C291.223 104.216 292.745 104.73 293.996 105.675C294.156 105.797 294.311 105.924 294.46 106.058L301.913 38.2402H299.054L297.282 33.0186H295.419V28.108L297.502 25.6638H301.137V22.5754H306.319L310.267 0H310.733Z" fill="#1E140B"/>
<path fill-rule="evenodd" clip-rule="evenodd" d="M310.733 0L314.682 22.5754H319.863V25.6638H323.476L325.559 28.108V33.0186H323.697L321.946 38.2402H319.086L326.52 106.063C326.672 105.927 326.83 105.797 326.994 105.673C328.248 104.728 329.774 104.215 331.343 104.211V111.277H332.296V114.388L328.617 129.875H328.019V131.786V161.76V163.516H329.348L331.764 168.626V173.737L330.944 174.604H329.57V177.248V185.58H329.947L332.473 190.691V195.779L332.314 195.935H340.496L343 201.023V202H360V462H0V202H278V201.023L280.504 195.935H288.682L288.527 195.779V190.691L291.031 185.58H291.408V177.248V174.604H290.056L289.214 173.737V168.626L291.652 163.516H292.981V161.76V131.786V129.875H292.383L288.704 114.388V111.277H289.657V104.211C291.223 104.216 292.745 104.73 293.996 105.675C294.156 105.797 294.311 105.924 294.46 106.058L301.913 38.2402H299.054L297.282 33.0186H295.419V28.108L297.502 25.6638H301.137V22.5754H306.319L310.267 0H310.733Z" fill="url(#paint0_linear_25_8936)"/>
<path fill-rule="evenodd" clip-rule="evenodd" d="M69.0554 90.6408H69.1005V92.7423H69.0554C66.6882 94.0091 64.8764 96.1105 63.9718 98.6383L73.0323 219.913H101.255V219.959V224.659V224.704H101.129C99.8129 225.183 88.5797 229.487 84.6467 237.99H33.3535C29.4206 229.487 18.1673 225.183 16.8492 224.704H16.7227V224.659V219.959V219.913H44.9229L54.0052 98.6399H53.8482C52.9569 96.1107 51.1513 94.0068 48.7866 92.7423V90.6408H48.877H54.2185C53.0623 88.736 52.3817 86.5733 52.2438 84.3365C52.2438 80.7655 58.3878 65.5619 58.9773 64.1113V64L59 64.0556L59.0226 64V64.1113C59.6122 65.5619 65.7562 80.7655 65.7562 84.3365C65.6128 86.5748 64.9259 88.7377 63.7633 90.6408H69.0554ZM106 259H360V519H0V259H12V254.282H16.7227V249.288H24.3375V244.295H33.3534V238.036H84.6466V244.295H93.6625V249.288H101.255V254.282H106V259Z" fill="#1E140B"/>
<path fill-rule="evenodd" clip-rule="evenodd" d="M69.0554 90.6408H69.1005V92.7423H69.0554C66.6882 94.0091 64.8764 96.1105 63.9718 98.6383L73.0323 219.913H101.255V219.959V224.659V224.704H101.129C99.8129 225.183 88.5797 229.487 84.6467 237.99H33.3535C29.4206 229.487 18.1673 225.183 16.8492 224.704H16.7227V224.659V219.959V219.913H44.9229L54.0052 98.6399H53.8482C52.9569 96.1107 51.1513 94.0068 48.7866 92.7423V90.6408H48.877H54.2185C53.0623 88.736 52.3817 86.5733 52.2438 84.3365C52.2438 80.7655 58.3878 65.5619 58.9773 64.1113V64L59 64.0556L59.0226 64V64.1113C59.6122 65.5619 65.7562 80.7655 65.7562 84.3365C65.6128 86.5748 64.9259 88.7377 63.7633 90.6408H69.0554ZM106 259H360V519H0V259H12V254.282H16.7227V249.288H24.3375V244.295H33.3534V238.036H84.6466V244.295H93.6625V249.288H101.255V254.282H106V259Z" fill="url(#paint1_linear_25_8936)"/>
<mask id="mask0_25_8936" style="mask-type:alpha" maskUnits="userSpaceOnUse" x="0" y="146" width="360" height="428">
<mask id="mask1_25_8936" style="mask-type:alpha" maskUnits="userSpaceOnUse" x="0" y="146" width="360" height="428">
<rect y="146" width="360" height="428" fill="#D9D9D9"/>
</mask>
<g mask="url(#mask1_25_8936)">
<path d="M256.693 338.699C253.18 280.56 222.827 259.169 215.802 259.169H144.108C137.038 259.169 106.73 280.56 103.218 338.699C98.1069 342.352 93.897 347.122 90.9081 352.647C87.9192 358.172 86.2302 364.306 85.9696 370.583H273.851C273.6 364.314 271.925 358.185 268.952 352.66C265.979 347.136 261.787 342.361 256.693 338.699Z" fill="#BABABA"/>
<path d="M260.34 336.898C260.34 337.312 260.259 337.722 260.1 338.104C259.942 338.487 259.71 338.834 259.417 339.127C259.124 339.42 258.777 339.652 258.394 339.81C258.012 339.969 257.602 340.05 257.188 340.05H102.812C102.394 340.056 101.98 339.979 101.592 339.823C101.204 339.668 100.851 339.436 100.554 339.143C100.256 338.85 100.02 338.5 99.8589 338.115C99.6977 337.729 99.6147 337.316 99.6147 336.898C99.6147 336.48 99.6977 336.067 99.8589 335.681C100.02 335.296 100.256 334.946 100.554 334.653C100.851 334.36 101.204 334.128 101.592 333.973C101.98 333.817 102.394 333.74 102.812 333.746H257.188C258.024 333.746 258.826 334.078 259.417 334.669C260.008 335.26 260.34 336.062 260.34 336.898Z" fill="#787878"/>
<path d="M216.703 239.805H143.297V259.17H216.703V239.805Z" fill="#A6A6A6"/>
<path d="M187.475 146H172.434L166.535 239.715H194.321L187.475 146Z" fill="#787878"/>
<path d="M288.847 392.695V385.399C288.847 380.976 287.093 376.733 283.969 373.601C280.845 370.469 276.607 368.704 272.184 368.692H87.8158C85.6217 368.692 83.4492 369.124 81.4221 369.963C79.3951 370.803 77.5532 372.034 76.0018 373.585C74.4504 375.137 73.2197 376.978 72.3801 379.005C71.5404 381.033 71.1083 383.205 71.1083 385.399V392.695H288.847Z" fill="#999999"/>
<path d="M307.04 418.679V410.168C307.046 407.609 306.547 405.074 305.572 402.709C304.597 400.343 303.165 398.193 301.358 396.382C299.551 394.571 297.404 393.134 295.041 392.153C292.678 391.173 290.144 390.668 287.586 390.668H72.4143C67.2427 390.668 62.2829 392.723 58.626 396.379C54.9691 400.036 52.9147 404.996 52.9147 410.168V418.679H307.04Z" fill="#454545"/>
<g style="mix-blend-mode:multiply">
<path d="M288.847 390.803V385.399C288.831 381.245 287.267 377.245 284.461 374.181C281.655 371.116 277.808 369.208 273.67 368.827C273.146 362.887 271.36 357.127 268.432 351.931C265.505 346.736 261.502 342.225 256.693 338.699C253.18 280.561 222.827 259.17 215.802 259.17H216.793V239.805H194.276L187.431 146H180.135V418.679H307.04V410.168C307.039 405.232 305.156 400.482 301.776 396.885C298.397 393.287 293.773 391.113 288.847 390.803Z" fill="#EBEBEB"/>
</g>
<path d="M359.955 421.066H0V573.01H359.955V421.066Z" fill="#454545"/>
<path d="M359.955 421.066H0V426.245H359.955V421.066Z" fill="#5C5C5C"/>
<path d="M359.955 470.874H0V573.01H359.955V470.874Z" fill="#5C5C5C"/>
<path d="M359.955 470.874H0V473.351H359.955V470.874Z" fill="#808080"/>
<path d="M72.054 395.757C70.7931 375.176 60.075 367.566 57.5531 367.566H32.3342C29.8574 367.566 19.0943 375.176 17.8784 395.757C16.0419 397.059 14.5328 398.77 13.47 400.755C12.4072 402.74 11.8197 404.945 11.7538 407.195H78.2236C78.1491 404.942 77.5532 402.736 76.4827 400.751C75.4122 398.767 73.8963 397.057 72.054 395.757Z" fill="#BABABA"/>
<path d="M58.0486 360.721H32.019V367.566H58.0486V360.721Z" fill="#A6A6A6"/>
<path d="M47.6457 341.492H42.3317L40.2151 360.676H50.0775L47.6457 341.492Z" fill="#787878"/>
<path d="M83.5376 414.852V412.285C83.5377 410.716 82.9176 409.211 81.8125 408.097C80.7074 406.984 79.207 406.352 77.6382 406.34H12.3392C10.7705 406.352 9.27004 406.984 8.16496 408.097C7.05988 409.211 6.43977 410.716 6.43982 412.285V414.852H83.5376Z" fill="#A6A6A6"/>
<path d="M90.0676 424.039V421.066C90.0735 420.158 89.8997 419.257 89.5561 418.416C89.2124 417.575 88.7059 416.81 88.0655 416.165C87.425 415.52 86.6635 415.009 85.8246 414.66C84.9857 414.311 84.086 414.131 83.1774 414.131H6.89017C5.05865 414.143 3.3062 414.879 2.01533 416.178C0.724447 417.478 -3.86132e-05 419.235 1.54353e-09 421.066L1.54353e-09 424.039H90.0676Z" fill="#787878"/>
<path d="M38.2257 368.439L35.2026 371.466L38.2299 374.489L41.2529 371.462L38.2257 368.439Z" fill="#787878"/>
<path d="M51.724 368.424L48.7015 371.451L51.7293 374.474L54.7518 371.446L51.724 368.424Z" fill="#787878"/>
<path d="M31.4908 378.693L28.4746 381.727L31.5087 384.744L34.5249 381.709L31.4908 378.693Z" fill="#787878"/>
<path d="M41.9714 381.752L44.9887 384.769L48.051 381.752L44.9887 378.689L41.9714 381.752Z" fill="#787878"/>
<path d="M58.4894 378.678L55.469 381.708L58.4989 384.728L61.5193 381.698L58.4894 378.678Z" fill="#787878"/>
<path d="M24.7632 388.998L21.7423 392.027L24.7717 395.048L27.7926 392.019L24.7632 388.998Z" fill="#787878"/>
<path d="M38.2903 388.944L35.2651 391.969L38.2903 394.995L41.3154 391.969L38.2903 388.944Z" fill="#787878"/>
<path d="M51.7295 389.015L48.7043 392.04L51.7295 395.065L54.7546 392.04L51.7295 389.015Z" fill="#787878"/>
<path d="M65.2394 388.972L62.2185 392.001L65.2479 395.022L68.2688 391.993L65.2394 388.972Z" fill="#787878"/>
<path d="M18.0261 399.212L15.001 402.237L18.0261 405.262L21.0513 402.237L18.0261 399.212Z" fill="#787878"/>
<path d="M31.5026 399.224L28.4817 402.253L31.5111 405.274L34.532 402.245L31.5026 399.224Z" fill="#787878"/>
<path d="M44.97 399.2L41.9407 402.221L44.9616 405.251L47.991 402.23L44.97 399.2Z" fill="#787878"/>
<path d="M58.4656 399.213L55.4404 402.238L58.4656 405.263L61.4907 402.238L58.4656 399.213Z" fill="#787878"/>
<path d="M71.9529 399.184L68.9214 402.202L71.9402 405.234L74.9717 402.215L71.9529 399.184Z" fill="#787878"/>
<g style="mix-blend-mode:multiply">
<path d="M83.5377 414.176V412.285C83.543 410.814 82.9946 409.395 82.0017 408.311C81.0088 407.226 79.644 406.555 78.1787 406.43C77.9792 404.317 77.3294 402.271 76.273 400.43C75.2165 398.589 73.7779 396.996 72.0541 395.757C70.7931 375.177 60.0751 367.566 57.5532 367.566H57.9135V360.721H50.0776L47.6458 341.537H45.0338V424.038H90.0676V421.066C90.07 419.3 89.3937 417.599 88.1785 416.317C86.9633 415.035 85.3019 414.268 83.5377 414.176Z" fill="#EBEBEB"/>
</g>
<path d="M162.122 395.757C160.861 375.176 150.143 367.566 147.666 367.566H122.312C119.835 367.566 109.072 375.176 107.856 395.757C106.02 397.059 104.51 398.77 103.448 400.755C102.385 402.74 101.797 404.945 101.731 407.195H168.246C168.18 404.945 167.593 402.74 166.53 400.755C165.467 398.77 163.958 397.059 162.122 395.757Z" fill="#BABABA"/>
<path d="M147.981 360.721H121.997V367.566H147.981V360.721Z" fill="#A6A6A6"/>
<path d="M137.623 341.492H132.309L130.238 360.676H140.055L137.623 341.492Z" fill="#787878"/>
<path d="M173.515 414.852V412.285C173.521 411.506 173.373 410.734 173.079 410.013C172.785 409.292 172.352 408.637 171.803 408.084C171.255 407.532 170.602 407.093 169.884 406.794C169.165 406.494 168.394 406.34 167.616 406.34H102.362C100.785 406.34 99.2731 406.967 98.1583 408.081C97.0435 409.196 96.4172 410.708 96.4172 412.285V414.852H173.515Z" fill="#A6A6A6"/>
<path d="M180.135 424.039V421.066C180.141 420.161 179.969 419.264 179.628 418.426C179.287 417.588 178.784 416.825 178.149 416.181C177.513 415.537 176.757 415.024 175.923 414.673C175.09 414.321 174.195 414.137 173.29 414.131H96.8676C95.0518 414.166 93.3223 414.913 92.0508 416.21C90.7793 417.506 90.0672 419.25 90.0675 421.066V424.039H180.135Z" fill="#787878"/>
<path d="M128.24 368.448L125.217 371.476L128.244 374.499L131.267 371.471L128.24 368.448Z" fill="#787878"/>
<path d="M141.717 368.468L138.694 371.495L141.722 374.518L144.745 371.491L141.717 368.468Z" fill="#787878"/>
<path d="M121.509 378.731L118.488 381.76L121.518 384.781L124.539 381.752L121.509 378.731Z" fill="#787878"/>
<path d="M131.949 381.752L135.011 384.769L138.028 381.752L135.011 378.689L131.949 381.752Z" fill="#787878"/>
<path d="M145.459 381.752L148.476 384.769L151.494 381.752L148.476 378.689L145.459 381.752Z" fill="#787878"/>
<path d="M114.765 388.976L111.744 392.006L114.773 395.027L117.794 391.997L114.765 388.976Z" fill="#787878"/>
<path d="M128.259 388.998L125.234 392.023L128.259 395.048L131.284 392.023L128.259 388.998Z" fill="#787878"/>
<path d="M141.743 388.979L138.718 392.004L141.743 395.029L144.768 392.004L141.743 388.979Z" fill="#787878"/>
<path d="M155.218 388.964L152.189 391.985L155.21 395.014L158.239 391.993L155.218 388.964Z" fill="#787878"/>
<path d="M108.001 399.221L104.98 402.251L108.01 405.272L111.031 402.242L108.001 399.221Z" fill="#787878"/>
<path d="M121.479 399.202L118.454 402.227L121.479 405.252L124.504 402.227L121.479 399.202Z" fill="#787878"/>
<path d="M135 399.225L131.97 402.245L134.99 405.275L138.02 402.255L135 399.225Z" fill="#787878"/>
<path d="M148.467 399.216L145.437 402.237L148.458 405.266L151.488 402.245L148.467 399.216Z" fill="#787878"/>
<path d="M161.919 399.229L158.892 402.252L161.915 405.279L164.942 402.256L161.919 399.229Z" fill="#787878"/>
<g style="mix-blend-mode:multiply">
<path d="M173.515 414.176V412.285C173.52 410.814 172.972 409.395 171.979 408.311C170.986 407.226 169.621 406.555 168.156 406.43C167.967 404.324 167.331 402.283 166.291 400.442C165.25 398.602 163.829 397.005 162.122 395.757C160.861 375.177 150.143 367.566 147.666 367.566H147.981V360.721H140.055L137.623 341.537H135.101V424.038H180.135V421.066C180.136 419.285 179.448 417.572 178.213 416.287C176.979 415.003 175.295 414.246 173.515 414.176Z" fill="#EBEBEB"/>
</g>
<path d="M252.189 395.757C250.973 375.176 240.21 367.566 237.733 367.566H212.289C209.812 367.566 199.094 375.176 197.833 395.757C196.008 397.067 194.509 398.78 193.455 400.764C192.4 402.748 191.818 404.949 191.754 407.195H258.224C258.168 404.952 257.595 402.753 256.548 400.769C255.501 398.784 254.009 397.069 252.189 395.757Z" fill="#BABABA"/>
<path d="M237.958 360.721H211.974V367.566H237.958V360.721Z" fill="#A6A6A6"/>
<path d="M227.601 341.492H222.287L220.215 360.676H230.078L227.601 341.492Z" fill="#787878"/>
<path d="M263.538 414.852V412.285C263.538 410.716 262.918 409.211 261.812 408.097C260.707 406.984 259.207 406.352 257.638 406.34H192.339C191.561 406.34 190.79 406.494 190.071 406.794C189.352 407.093 188.7 407.532 188.152 408.084C187.603 408.637 187.17 409.292 186.876 410.013C186.582 410.734 186.434 411.506 186.44 412.285V414.852H263.538Z" fill="#A6A6A6"/>
<path d="M270.203 424.039V421.066C270.203 419.235 269.478 417.478 268.187 416.178C266.896 414.879 265.144 414.143 263.313 414.131H186.89C185.082 414.178 183.364 414.929 182.102 416.225C180.84 417.521 180.135 419.258 180.135 421.066V424.039H270.203Z" fill="#787878"/>
<path d="M218.209 368.458L215.186 371.485L218.213 374.508L221.236 371.481L218.209 368.458Z" fill="#787878"/>
<path d="M231.718 368.446L228.695 371.473L231.722 374.496L234.745 371.469L231.718 368.446Z" fill="#787878"/>
<path d="M208.461 381.752L211.523 384.769L214.541 381.752L211.523 378.689L208.461 381.752Z" fill="#787878"/>
<path d="M224.981 378.722L221.96 381.751L224.99 384.772L228.011 381.743L224.981 378.722Z" fill="#787878"/>
<path d="M235.437 381.752L238.454 384.769L241.516 381.752L238.454 378.689L235.437 381.752Z" fill="#787878"/>
<path d="M204.779 388.986L201.758 392.016L204.787 395.036L207.808 392.007L204.779 388.986Z" fill="#787878"/>
<path d="M218.227 389.007L215.202 392.032L218.227 395.057L221.252 392.032L218.227 389.007Z" fill="#787878"/>
<path d="M231.743 388.956L228.718 391.981L231.743 395.007L234.769 391.981L231.743 388.956Z" fill="#787878"/>
<path d="M245.228 388.982L242.202 392.007L245.228 395.032L248.253 392.007L245.228 388.982Z" fill="#787878"/>
<path d="M198.008 399.23L194.983 402.255L198.008 405.28L201.033 402.255L198.008 399.23Z" fill="#787878"/>
<path d="M211.479 399.154L208.458 402.184L211.488 405.205L214.509 402.175L211.479 399.154Z" fill="#787878"/>
<path d="M224.963 399.205L221.938 402.23L224.963 405.255L227.988 402.23L224.963 399.205Z" fill="#787878"/>
<path d="M238.434 399.224L235.405 402.245L238.425 405.274L241.455 402.253L238.434 399.224Z" fill="#787878"/>
<path d="M251.919 399.205L248.891 402.228L251.914 405.256L254.942 402.233L251.919 399.205Z" fill="#787878"/>
<g style="mix-blend-mode:multiply">
<path d="M263.538 414.176V412.285C263.532 410.81 262.974 409.391 261.973 408.307C260.973 407.224 259.603 406.554 258.134 406.43C257.967 404.329 257.35 402.288 256.324 400.446C255.299 398.604 253.888 397.005 252.189 395.757C250.973 375.177 240.21 367.566 237.733 367.566H238.049V360.721H230.033L227.601 341.537H225.169V424.038H270.203V421.066C270.192 419.281 269.494 417.568 268.252 416.284C267.011 415.001 265.322 414.246 263.538 414.176Z" fill="#EBEBEB"/>
</g>
<path d="M342.257 395.757C341.041 375.176 330.278 367.566 327.801 367.566H302.312C299.835 367.566 289.072 375.176 287.856 395.757C286.019 397.059 284.51 398.77 283.448 400.755C282.385 402.74 281.797 404.945 281.731 407.195H348.201C348.156 404.96 347.596 402.765 346.565 400.782C345.534 398.798 344.06 397.078 342.257 395.757Z" fill="#BABABA"/>
<path d="M327.981 360.721H301.951V367.566H327.981V360.721Z" fill="#A6A6A6"/>
<path d="M317.623 341.492H312.309L310.193 360.676H320.055L317.623 341.492Z" fill="#787878"/>
<path d="M353.515 414.852V412.285C353.515 410.716 352.895 409.211 351.79 408.097C350.685 406.984 349.184 406.352 347.616 406.34H282.317C280.748 406.352 279.247 406.984 278.142 408.097C277.037 409.211 276.417 410.716 276.417 412.285V414.852H353.515Z" fill="#A6A6A6"/>
<path d="M359.955 424.039V421.066C359.955 419.235 359.23 417.478 357.94 416.178C356.649 414.879 354.896 414.143 353.065 414.131H276.868C275.072 414.19 273.37 414.948 272.125 416.243C270.88 417.539 270.19 419.269 270.203 421.066V424.039H359.955Z" fill="#787878"/>
<path d="M308.21 368.436L305.187 371.463L308.214 374.486L311.237 371.459L308.21 368.436Z" fill="#787878"/>
<path d="M321.687 368.455L318.664 371.482L321.692 374.505L324.715 371.478L321.687 368.455Z" fill="#787878"/>
<path d="M301.48 378.719L298.459 381.749L301.489 384.77L304.51 381.74L301.48 378.719Z" fill="#787878"/>
<path d="M314.951 378.732L311.93 381.761L314.959 384.782L317.98 381.753L314.951 378.732Z" fill="#787878"/>
<path d="M328.442 378.689L325.421 381.719L328.451 384.739L331.472 381.709L328.442 378.689Z" fill="#787878"/>
<path d="M294.749 388.997L291.728 392.026L294.757 395.047L297.778 392.017L294.749 388.997Z" fill="#787878"/>
<path d="M308.227 388.984L305.202 392.01L308.227 395.035L311.253 392.01L308.227 388.984Z" fill="#787878"/>
<path d="M321.712 388.965L318.687 391.99L321.712 395.015L324.737 391.99L321.712 388.965Z" fill="#787878"/>
<path d="M335.196 389.036L332.171 392.061L335.196 395.086L338.221 392.061L335.196 389.036Z" fill="#787878"/>
<path d="M288.008 399.207L284.983 402.232L288.008 405.257L291.033 402.232L288.008 399.207Z" fill="#787878"/>
<path d="M301.493 399.188L298.468 402.213L301.493 405.238L304.518 402.213L301.493 399.188Z" fill="#787878"/>
<path d="M314.932 399.214L311.907 402.239L314.932 405.264L317.957 402.239L314.932 399.214Z" fill="#787878"/>
<path d="M328.448 399.208L325.423 402.233L328.448 405.258L331.473 402.233L328.448 399.208Z" fill="#787878"/>
<path d="M341.931 399.169L338.904 402.192L341.927 405.219L344.954 402.196L341.931 399.169Z" fill="#787878"/>
<g style="mix-blend-mode:multiply">
<path d="M353.515 414.176V412.285C353.51 410.817 352.958 409.404 351.967 408.322C350.976 407.239 349.617 406.565 348.156 406.43C347.986 404.334 347.373 402.299 346.355 400.459C345.338 398.618 343.941 397.016 342.257 395.757C341.041 375.177 330.278 367.566 327.801 367.566H328.161V360.721H320.055L317.623 341.537H314.966V424.038H360V421.066C360.003 419.307 359.333 417.613 358.127 416.332C356.921 415.051 355.271 414.28 353.515 414.176Z" fill="#EBEBEB"/>
</g>
<mask id="mask2_25_8936" style="mask-type:luminance" maskUnits="userSpaceOnUse" x="0" y="383" width="360" height="103">
<path d="M359.955 383.058H0V485.194H359.955V383.058Z" fill="white"/>
</mask>
<g mask="url(#mask2_25_8936)">
<path d="M27.0202 442.548C25.8043 421.967 15.0412 414.402 12.5644 414.402H-12.6545C-15.1764 414.402 -25.8945 421.967 -27.1554 442.548C-28.9562 443.851 -30.4386 445.545 -31.4914 447.502C-32.5443 449.46 -33.1404 451.63 -33.235 453.851H33.2349C33.1279 451.618 32.5125 449.439 31.4355 447.48C30.3585 445.521 28.8483 443.834 27.0202 442.548Z" fill="#BABABA"/>
<path d="M13.0146 407.556H-13.0149V414.402H13.0146V407.556Z" fill="#A6A6A6"/>
<path d="M2.65689 388.282H-2.6571L-4.77368 407.511H5.08871L2.65689 388.282Z" fill="#787878"/>
<path d="M38.5489 461.687V459.12C38.5489 457.551 37.9288 456.046 36.8237 454.933C35.7187 453.819 34.2182 453.187 32.6495 453.176H-32.6495C-34.2183 453.187 -35.7187 453.819 -36.8238 454.933C-37.9289 456.046 -38.549 457.551 -38.549 459.12V461.687H38.5489Z" fill="#A6A6A6"/>
<path d="M45.0337 470.874V467.857C45.0219 466.033 44.2922 464.287 43.0026 462.998C41.713 461.708 39.9673 460.978 38.1436 460.967H-38.0986C-39.0072 460.961 -39.908 461.134 -40.7492 461.478C-41.5904 461.822 -42.3552 462.328 -42.9998 462.969C-43.6444 463.609 -44.156 464.371 -44.5051 465.209C-44.8541 466.048 -45.0338 466.948 -45.0338 467.857V470.874H45.0337Z" fill="#787878"/>
<path d="M6.71444 415.283L3.69141 418.31L6.71866 421.333L9.7417 418.306L6.71444 415.283Z" fill="#787878"/>
<path d="M-3.01721 428.542L5.126e-05 431.604L3.06235 428.542L5.126e-05 425.525L-3.01721 428.542Z" fill="#787878"/>
<path d="M13.5121 425.501L10.4917 428.531L13.5216 431.552L16.542 428.522L13.5121 425.501Z" fill="#787878"/>
<path d="M6.70862 435.809L3.68347 438.834L6.70861 441.859L9.73376 438.834L6.70862 435.809Z" fill="#787878"/>
<path d="M20.1873 435.796L17.1664 438.826L20.1957 441.846L23.2167 438.817L20.1873 435.796Z" fill="#787878"/>
<path d="M-0.0114837 446.066L-3.04138 449.086L-0.0209971 452.116L3.0089 449.096L-0.0114837 446.066Z" fill="#787878"/>
<path d="M13.4764 446.039L10.4513 449.064L13.4764 452.089L16.5016 449.064L13.4764 446.039Z" fill="#787878"/>
<path d="M26.9743 446.053L23.9423 449.071L26.9605 452.103L29.9925 449.085L26.9743 446.053Z" fill="#787878"/>
<g style="mix-blend-mode:multiply">
<path d="M38.5489 461.237V459.345C38.5449 457.873 37.9946 456.454 37.0045 455.364C36.0145 454.274 34.6552 453.591 33.1899 453.446C33.0106 451.291 32.3662 449.201 31.3011 447.32C30.236 445.438 28.7755 443.81 27.0203 442.548C25.8044 421.967 15.0413 414.401 12.5644 414.401H12.9247V407.556H5.08882L2.61196 388.282H0V470.874H45.0338V467.857C44.9796 466.141 44.283 464.508 43.0819 463.282C41.8808 462.056 40.263 461.326 38.5489 461.237Z" fill="#EBEBEB"/>
</g>
<path d="M117.088 442.548C115.827 421.967 105.109 414.402 102.587 414.402H77.3229C74.846 414.402 64.0829 421.967 62.867 442.548C61.0556 443.844 59.5628 445.535 58.5017 447.493C57.4405 449.452 56.839 451.626 56.7424 453.851H123.212C123.112 451.627 122.509 449.454 121.449 447.496C120.388 445.538 118.897 443.846 117.088 442.548Z" fill="#BABABA"/>
<path d="M102.992 407.556H77.0076V414.402H102.992V407.556Z" fill="#A6A6A6"/>
<path d="M92.6343 388.282H87.3203L85.2037 407.511H95.0661L92.6343 388.282Z" fill="#787878"/>
<path d="M128.526 461.687V459.12C128.526 457.551 127.906 456.046 126.801 454.933C125.696 453.819 124.196 453.187 122.627 453.176H57.3279C55.7591 453.187 54.2587 453.819 53.1536 454.933C52.0485 456.046 51.4284 457.551 51.4285 459.12V461.687H128.526Z" fill="#A6A6A6"/>
<path d="M135.101 470.874V467.857C135.101 466.952 134.923 466.056 134.577 465.22C134.23 464.384 133.723 463.624 133.083 462.984C132.443 462.345 131.684 461.837 130.848 461.491C130.012 461.145 129.116 460.966 128.211 460.966H51.8788C50.0629 460.99 48.3287 461.725 47.0488 463.013C45.7688 464.301 45.0453 466.041 45.0337 467.857V470.874H135.101Z" fill="#787878"/>
<path d="M83.2509 415.273L80.2279 418.3L83.2552 421.323L86.2782 418.296L83.2509 415.273Z" fill="#787878"/>
<path d="M96.7284 415.293L93.7053 418.32L96.7326 421.343L99.7556 418.316L96.7284 415.293Z" fill="#787878"/>
<path d="M76.5004 425.511L73.48 428.541L76.5099 431.561L79.5303 428.531L76.5004 425.511Z" fill="#787878"/>
<path d="M86.9601 428.542L89.9773 431.604L93.0396 428.542L89.9773 425.525L86.9601 428.542Z" fill="#787878"/>
<path d="M100.47 428.542L103.488 431.604L106.505 428.542L103.488 425.525L100.47 428.542Z" fill="#787878"/>
<path d="M69.7123 435.8L66.6914 438.829L69.7208 441.85L72.7417 438.821L69.7123 435.8Z" fill="#787878"/>
<path d="M83.2377 435.792L80.2125 438.817L83.2377 441.842L86.2628 438.817L83.2377 435.792Z" fill="#787878"/>
<path d="M96.7219 435.773L93.6968 438.798L96.7219 441.823L99.7471 438.798L96.7219 435.773Z" fill="#787878"/>
<path d="M110.197 435.76L107.167 438.781L110.188 441.81L113.218 438.789L110.197 435.76Z" fill="#787878"/>
<path d="M63.0127 446.045L59.9918 449.075L63.0212 452.096L66.0421 449.066L63.0127 446.045Z" fill="#787878"/>
<path d="M76.4897 446.073L73.4646 449.098L76.4897 452.123L79.5149 449.098L76.4897 446.073Z" fill="#787878"/>
<path d="M89.9985 446.053L86.9686 449.073L89.989 452.103L93.0189 449.082L89.9985 446.053Z" fill="#787878"/>
<path d="M103.477 446.043L100.448 449.064L103.468 452.094L106.498 449.073L103.477 446.043Z" fill="#787878"/>
<path d="M116.929 446.01L113.902 449.033L116.925 452.061L119.952 449.038L116.929 446.01Z" fill="#787878"/>
<g style="mix-blend-mode:multiply">
<path d="M128.526 461.237V459.345C128.533 457.87 127.986 456.446 126.994 455.354C126.002 454.262 124.636 453.581 123.167 453.446C122.999 451.298 122.368 449.213 121.319 447.332C120.27 445.451 118.826 443.819 117.088 442.547C115.827 421.967 105.109 414.401 102.587 414.401H102.947V407.556H95.0663L92.6344 388.327H90.0675V470.874H135.101V467.856C135.046 466.126 134.336 464.481 133.116 463.253C131.896 462.024 130.256 461.304 128.526 461.237Z" fill="#EBEBEB"/>
</g>
<path d="M207.155 442.548C205.894 421.967 195.176 414.402 192.7 414.402H167.301C164.824 414.402 154.106 421.967 152.845 442.548C151.033 443.844 149.54 445.535 148.479 447.493C147.418 449.452 146.817 451.626 146.72 453.851H213.235C213.144 451.63 212.549 449.458 211.496 447.5C210.443 445.542 208.959 443.848 207.155 442.548Z" fill="#BABABA"/>
<path d="M192.97 407.556H166.985V414.402H192.97V407.556Z" fill="#A6A6A6"/>
<path d="M182.612 388.282H177.298L175.226 407.511H185.044L182.612 388.282Z" fill="#787878"/>
<path d="M218.549 461.687V459.12C218.549 457.543 217.923 456.031 216.808 454.917C215.693 453.802 214.181 453.176 212.604 453.176H147.351C146.572 453.176 145.801 453.33 145.082 453.629C144.364 453.928 143.711 454.367 143.163 454.919C142.615 455.472 142.181 456.128 141.887 456.849C141.593 457.57 141.445 458.342 141.451 459.12V461.687H218.549Z" fill="#A6A6A6"/>
<path d="M225.169 470.874V467.857C225.157 466.033 224.427 464.287 223.138 462.997C221.848 461.708 220.102 460.978 218.279 460.966H141.901C140.093 461.002 138.371 461.742 137.1 463.029C135.83 464.316 135.113 466.048 135.101 467.857V470.874H225.169Z" fill="#787878"/>
<path d="M173.22 415.283L170.197 418.31L173.224 421.333L176.247 418.306L173.22 415.283Z" fill="#787878"/>
<path d="M186.697 415.302L183.674 418.329L186.702 421.352L189.725 418.325L186.697 415.302Z" fill="#787878"/>
<path d="M163.472 428.542L166.535 431.604L169.552 428.542L166.535 425.525L163.472 428.542Z" fill="#787878"/>
<path d="M179.993 425.546L176.972 428.575L180.001 431.596L183.022 428.567L179.993 425.546Z" fill="#787878"/>
<path d="M190.448 428.542L193.465 431.604L196.527 428.542L193.465 425.525L190.448 428.542Z" fill="#787878"/>
<path d="M159.759 435.779L156.738 438.808L159.767 441.829L162.788 438.799L159.759 435.779Z" fill="#787878"/>
<path d="M173.206 435.801L170.181 438.826L173.206 441.851L176.231 438.826L173.206 435.801Z" fill="#787878"/>
<path d="M186.691 435.782L183.665 438.807L186.691 441.833L189.716 438.807L186.691 435.782Z" fill="#787878"/>
<path d="M200.207 435.776L197.181 438.801L200.207 441.827L203.232 438.801L200.207 435.776Z" fill="#787878"/>
<path d="M153.019 446.056L149.994 449.081L153.019 452.106L156.044 449.081L153.019 446.056Z" fill="#787878"/>
<path d="M166.485 446.036L163.464 449.066L166.494 452.087L169.515 449.057L166.485 446.036Z" fill="#787878"/>
<path d="M179.974 446.031L176.949 449.056L179.974 452.081L182.999 449.056L179.974 446.031Z" fill="#787878"/>
<path d="M193.444 446.052L190.415 449.073L193.436 452.102L196.465 449.081L193.444 446.052Z" fill="#787878"/>
<path d="M206.963 446.05L203.935 449.073L206.957 452.1L209.985 449.078L206.963 446.05Z" fill="#787878"/>
<g style="mix-blend-mode:multiply">
<path d="M218.549 461.237V459.345C218.544 457.866 217.987 456.441 216.988 455.35C215.988 454.259 214.618 453.58 213.145 453.446C212.987 451.306 212.37 449.225 211.337 447.344C210.303 445.464 208.877 443.828 207.155 442.547C205.894 421.967 195.176 414.401 192.699 414.401H193.015V407.556H185.044L182.612 388.327H180.135V470.874H225.169V467.856C225.102 466.122 224.383 464.477 223.156 463.249C221.928 462.022 220.283 461.303 218.549 461.237Z" fill="#EBEBEB"/>
</g>
<path d="M297.223 442.548C296.007 421.967 285.244 414.402 282.767 414.402H257.323C254.801 414.402 244.083 421.967 242.822 442.548C241.021 443.851 239.539 445.545 238.486 447.502C237.433 449.46 236.837 451.63 236.742 453.851H303.212C303.131 451.637 302.551 449.47 301.513 447.513C300.476 445.555 299.009 443.858 297.223 442.548Z" fill="#BABABA"/>
<path d="M282.992 407.556H256.963V414.402H282.992V407.556Z" fill="#A6A6A6"/>
<path d="M272.634 388.282H267.32L265.204 407.511H275.066L272.634 388.282Z" fill="#787878"/>
<path d="M308.526 461.687V459.12C308.526 457.551 307.906 456.046 306.801 454.933C305.696 453.819 304.196 453.187 302.627 453.176H237.328C236.549 453.176 235.778 453.33 235.06 453.629C234.341 453.928 233.689 454.367 233.14 454.919C232.592 455.472 232.158 456.128 231.864 456.849C231.571 457.57 231.422 458.342 231.428 459.12V461.687H308.526Z" fill="#A6A6A6"/>
<path d="M314.966 470.874V467.857C314.954 466.033 314.225 464.287 312.935 462.997C311.645 461.708 309.9 460.978 308.076 460.966H231.879C230.083 461.013 228.376 461.76 227.123 463.047C225.869 464.334 225.168 466.06 225.169 467.857V470.874H314.966Z" fill="#787878"/>
<path d="M263.189 415.293L260.166 418.32L263.193 421.343L266.216 418.316L263.189 415.293Z" fill="#787878"/>
<path d="M276.698 415.28L273.675 418.307L276.703 421.331L279.726 418.303L276.698 415.28Z" fill="#787878"/>
<path d="M256.494 425.522L253.474 428.552L256.504 431.573L259.524 428.543L256.494 425.522Z" fill="#787878"/>
<path d="M269.963 425.556L266.942 428.586L269.971 431.607L272.992 428.577L269.963 425.556Z" fill="#787878"/>
<path d="M283.465 425.537L280.444 428.566L283.474 431.587L286.495 428.558L283.465 425.537Z" fill="#787878"/>
<path d="M249.728 435.834L246.708 438.863L249.737 441.884L252.758 438.855L249.728 435.834Z" fill="#787878"/>
<path d="M263.22 435.81L260.194 438.836L263.22 441.861L266.245 438.836L263.22 435.81Z" fill="#787878"/>
<path d="M276.691 435.759L273.666 438.784L276.691 441.809L279.716 438.784L276.691 435.759Z" fill="#787878"/>
<path d="M290.175 435.785L287.15 438.81L290.175 441.835L293.2 438.81L290.175 435.785Z" fill="#787878"/>
<path d="M242.987 446.065L239.962 449.09L242.987 452.115L246.012 449.09L242.987 446.065Z" fill="#787878"/>
<path d="M256.503 446.059L253.478 449.084L256.503 452.109L259.529 449.084L256.503 446.059Z" fill="#787878"/>
<path d="M269.942 446.04L266.917 449.065L269.942 452.09L272.968 449.065L269.942 446.04Z" fill="#787878"/>
<path d="M283.459 446.034L280.434 449.059L283.459 452.084L286.484 449.059L283.459 446.034Z" fill="#787878"/>
<path d="M296.942 446.07L293.914 449.092L296.936 452.12L299.964 449.098L296.942 446.07Z" fill="#787878"/>
<g style="mix-blend-mode:multiply">
<path d="M308.526 461.237V459.345C308.521 457.866 307.965 456.441 306.965 455.35C305.966 454.259 304.596 453.58 303.122 453.446C302.984 451.311 302.385 449.231 301.367 447.35C300.348 445.469 298.935 443.83 297.223 442.547C296.007 421.967 285.244 414.401 282.767 414.401H283.127V407.556H275.021L272.589 388.327H270.203V470.874H315.236V467.856C315.168 466.107 314.437 464.449 313.191 463.22C311.944 461.99 310.277 461.281 308.526 461.237Z" fill="#EBEBEB"/>
</g>
<path d="M387.29 442.548C386.029 421.967 375.266 414.402 372.79 414.402H347.3C344.824 414.402 334.06 421.967 332.845 442.548C331.033 443.844 329.54 445.535 328.479 447.493C327.418 449.452 326.816 451.626 326.72 453.851H393.19C393.116 451.645 392.548 449.484 391.527 447.528C390.506 445.571 389.058 443.869 387.29 442.548Z" fill="#BABABA"/>
<path d="M373.015 407.556H346.985V414.402H373.015V407.556Z" fill="#A6A6A6"/>
<path d="M362.612 388.282H357.298L355.181 407.511H365.044L362.612 388.282Z" fill="#787878"/>
<path d="M398.504 461.687V459.12C398.504 457.551 397.884 456.046 396.779 454.933C395.674 453.819 394.173 453.187 392.604 453.176H327.305C325.737 453.187 324.236 453.819 323.131 454.933C322.026 456.046 321.406 457.551 321.406 459.12V461.687H398.504Z" fill="#A6A6A6"/>
<path d="M404.944 470.874V467.857C404.932 466.033 404.202 464.287 402.913 462.997C401.623 461.708 399.877 460.978 398.053 460.966H321.856C320.029 460.966 318.276 461.692 316.984 462.984C315.692 464.277 314.966 466.029 314.966 467.857V470.874H404.944Z" fill="#787878"/>
<path d="M353.235 415.27L350.212 418.298L353.239 421.321L356.262 418.293L353.235 415.27Z" fill="#787878"/>
<path d="M346.461 425.554L343.44 428.583L346.47 431.604L349.49 428.575L346.461 425.554Z" fill="#787878"/>
<path d="M359.932 425.612L356.911 428.641L359.94 431.662L362.961 428.633L359.932 425.612Z" fill="#787878"/>
<path d="M339.698 435.845L336.677 438.874L339.706 441.895L342.727 438.865L339.698 435.845Z" fill="#787878"/>
<path d="M353.22 435.787L350.195 438.812L353.22 441.838L356.245 438.812L353.22 435.787Z" fill="#787878"/>
<path d="M332.988 446.042L329.963 449.067L332.988 452.092L336.013 449.067L332.988 446.042Z" fill="#787878"/>
<path d="M346.472 446.023L343.447 449.048L346.472 452.073L349.497 449.048L346.472 446.023Z" fill="#787878"/>
<path d="M359.956 446.094L356.931 449.119L359.956 452.144L362.981 449.119L359.956 446.094Z" fill="#787878"/>
<g style="mix-blend-mode:multiply">
<path d="M398.504 461.237V459.345C398.5 457.873 397.949 456.454 396.959 455.364C395.969 454.274 394.61 453.591 393.145 453.446C393.003 451.317 392.407 449.242 391.398 447.363C390.388 445.483 388.987 443.841 387.29 442.547C386.029 421.967 375.266 414.401 372.789 414.401H373.15V407.556H365.044L362.612 388.327H359.955V470.874H404.989V467.856C404.934 466.141 404.238 464.508 403.037 463.282C401.836 462.056 400.218 461.326 398.504 461.237Z" fill="#EBEBEB"/>
</g>
</g>
<path d="M153.835 486.59C152.556 486.584 151.289 486.832 150.106 487.319C148.923 487.805 147.848 488.522 146.944 489.426C146.039 490.331 145.323 491.405 144.836 492.588C144.35 493.771 144.102 495.039 144.108 496.318V509.287H165.544V496.318C165.55 495.042 165.304 493.778 164.82 492.599C164.336 491.419 163.624 490.346 162.724 489.442C161.825 488.538 160.755 487.821 159.578 487.332C158.4 486.842 157.137 486.59 155.862 486.59H153.835Z" fill="#454545"/>
<path d="M204.048 486.59C202.773 486.59 201.51 486.842 200.332 487.332C199.155 487.821 198.085 488.538 197.186 489.442C196.286 490.346 195.574 491.419 195.09 492.598C194.606 493.778 194.36 495.042 194.366 496.318V509.287H215.802V496.318C215.808 495.042 215.562 493.778 215.078 492.598C214.594 491.419 213.882 490.346 212.982 489.442C212.082 488.538 211.013 487.821 209.835 487.332C208.658 486.842 207.395 486.59 206.12 486.59H204.048Z" fill="#454545"/>
<path d="M304.519 486.59C301.939 486.59 299.465 487.615 297.64 489.439C295.816 491.264 294.791 493.738 294.791 496.318V509.287H316.272V496.318C316.278 495.042 316.032 493.778 315.548 492.598C315.064 491.419 314.352 490.346 313.452 489.442C312.553 488.538 311.483 487.821 310.306 487.332C309.128 486.842 307.865 486.59 306.59 486.59H304.519Z" fill="#454545"/>
<path d="M254.261 486.59C252.985 486.59 251.723 486.842 250.545 487.332C249.367 487.821 248.298 488.538 247.398 489.442C246.499 490.346 245.786 491.419 245.303 492.598C244.819 493.778 244.573 495.042 244.578 496.318V509.287H266.06V496.318C266.06 493.738 265.035 491.264 263.211 489.439C261.386 487.615 258.912 486.59 256.332 486.59H254.261Z" fill="#454545"/>
<path d="M103.578 486.59C100.998 486.59 98.5237 487.615 96.6995 489.439C94.8753 491.264 93.8505 493.738 93.8505 496.318V509.287H115.332V496.318C115.338 495.042 115.091 493.778 114.608 492.598C114.124 491.419 113.411 490.346 112.512 489.442C111.612 488.538 110.543 487.821 109.365 487.332C108.187 486.842 106.925 486.59 105.649 486.59H103.578Z" fill="#454545"/>
<path d="M53.4099 486.59C52.1308 486.584 50.8632 486.832 49.6804 487.319C48.4975 487.805 47.4228 488.522 46.5184 489.426C45.6139 490.331 44.8976 491.405 44.4109 492.588C43.9242 493.771 43.6766 495.039 43.6826 496.318V509.287H65.1637V496.318C65.1637 493.738 64.1389 491.264 62.3147 489.439C60.4904 487.615 58.0163 486.59 55.4364 486.59H53.4099Z" fill="#454545"/>
<path d="M359.955 487.176C358.948 486.794 357.88 486.595 356.803 486.59H354.731C353.456 486.59 352.193 486.842 351.016 487.332C349.838 487.821 348.769 488.538 347.869 489.442C346.969 490.346 346.257 491.419 345.773 492.598C345.289 493.778 345.043 495.042 345.049 496.318V509.287H359.955V487.176Z" fill="#454545"/>
<path d="M0 509.287H14.9062V496.318C14.9121 495.042 14.666 493.778 14.1821 492.598C13.6982 491.419 12.986 490.346 12.0863 489.442C11.1866 488.538 10.1172 487.821 8.93959 487.332C7.76194 486.842 6.49921 486.59 5.22392 486.59H3.15236C2.07565 486.602 1.00909 486.8 0 487.176L0 509.287Z" fill="#454545"/>
<path d="M40.0351 555.042V542.027C40.0351 540.755 39.7846 539.496 39.2981 538.322C38.8115 537.147 38.0983 536.08 37.1992 535.181C36.3001 534.281 35.2328 533.568 34.0581 533.082C32.8833 532.595 31.6243 532.345 30.3528 532.345H28.2813C25.7134 532.345 23.2506 533.365 21.4349 535.181C19.6191 536.996 18.599 539.459 18.599 542.027V555.042H40.0351Z" fill="#454545"/>
<path d="M90.0675 555.042V542.027C90.0675 539.459 89.0475 536.996 87.2317 535.181C85.4159 533.365 82.9532 532.345 80.3853 532.345H78.3137C75.7458 532.345 73.2831 533.365 71.4673 535.181C69.6516 536.996 68.6315 539.459 68.6315 542.027V555.042H90.0675Z" fill="#454545"/>
<path d="M140.505 555.042V542.027C140.5 540.738 140.238 539.463 139.735 538.276C139.232 537.09 138.499 536.014 137.577 535.114C136.655 534.213 135.563 533.504 134.365 533.029C133.167 532.553 131.887 532.321 130.598 532.345H128.526C125.958 532.345 123.496 533.365 121.68 535.181C119.864 536.996 118.844 539.459 118.844 542.027V555.042H140.505Z" fill="#454545"/>
<path d="M190.718 555.042V542.027C190.706 539.455 189.676 536.992 187.853 535.178C186.03 533.363 183.563 532.345 180.991 532.345H178.964C176.392 532.345 173.925 533.363 172.102 535.178C170.279 536.992 169.249 539.455 169.237 542.027V555.042H190.718Z" fill="#454545"/>
<path d="M240.931 555.042V542.027C240.931 539.459 239.911 536.996 238.095 535.181C236.279 533.365 233.816 532.345 231.248 532.345H229.177C226.609 532.345 224.146 533.365 222.33 535.181C220.515 536.996 219.495 539.459 219.495 542.027V555.042H240.931Z" fill="#454545"/>
<path d="M291.143 555.042V542.027C291.143 539.459 290.123 536.996 288.307 535.181C286.492 533.365 284.029 532.345 281.461 532.345H279.209C276.641 532.345 274.179 533.365 272.363 535.181C270.547 536.996 269.527 539.459 269.527 542.027V555.042H291.143Z" fill="#454545"/>
<path d="M341.356 555.042V542.027C341.356 539.459 340.336 536.996 338.52 535.181C336.704 533.365 334.242 532.345 331.674 532.345H329.602C328.316 532.321 327.037 532.554 325.842 533.029C324.646 533.505 323.557 534.215 322.639 535.116C321.721 536.018 320.991 537.093 320.494 538.28C319.996 539.466 319.74 540.74 319.74 542.027V555.042H341.356Z" fill="#454545"/>
</g>
</mask>
<g mask="url(#mask0_25_8936)">
<rect y="129" width="360" height="445" fill="#1E140B"/>
</g>
<mask id="mask3_25_8936" style="mask-type:alpha" maskUnits="userSpaceOnUse" x="0" y="146" width="360" height="428">
<rect y="146" width="360" height="428" fill="url(#paint2_linear_25_8936)"/>
</mask>
<g mask="url(#mask3_25_8936)">
<path d="M256.693 338.699C253.18 280.56 222.827 259.169 215.802 259.169H144.108C137.038 259.169 106.73 280.56 103.218 338.699C98.1069 342.352 93.897 347.122 90.9081 352.647C87.9192 358.172 86.2302 364.306 85.9696 370.583H273.851C273.6 364.314 271.925 358.185 268.952 352.66C265.979 347.136 261.787 342.361 256.693 338.699Z" fill="#BABABA"/>
<path d="M260.34 336.898C260.34 337.312 260.259 337.722 260.1 338.104C259.942 338.487 259.71 338.834 259.417 339.127C259.124 339.42 258.777 339.652 258.394 339.81C258.012 339.969 257.602 340.05 257.188 340.05H102.812C102.394 340.056 101.98 339.979 101.592 339.823C101.204 339.668 100.851 339.436 100.554 339.143C100.256 338.85 100.02 338.5 99.8589 338.115C99.6977 337.729 99.6147 337.316 99.6147 336.898C99.6147 336.48 99.6977 336.067 99.8589 335.681C100.02 335.296 100.256 334.946 100.554 334.653C100.851 334.36 101.204 334.128 101.592 333.973C101.98 333.817 102.394 333.74 102.812 333.746H257.188C258.024 333.746 258.826 334.078 259.417 334.669C260.008 335.26 260.34 336.062 260.34 336.898Z" fill="#787878"/>
<path d="M216.703 239.805H143.297V259.17H216.703V239.805Z" fill="#A6A6A6"/>
<path d="M187.475 146H172.434L166.535 239.715H194.321L187.475 146Z" fill="#787878"/>
<path d="M288.847 392.695V385.399C288.847 380.976 287.093 376.733 283.969 373.601C280.845 370.469 276.607 368.704 272.184 368.692H87.8158C85.6217 368.692 83.4492 369.124 81.4221 369.963C79.3951 370.803 77.5532 372.034 76.0018 373.585C74.4504 375.137 73.2197 376.978 72.3801 379.005C71.5404 381.033 71.1083 383.205 71.1083 385.399V392.695H288.847Z" fill="#999999"/>
<path d="M307.04 418.679V410.168C307.046 407.609 306.547 405.074 305.572 402.709C304.597 400.343 303.165 398.193 301.358 396.382C299.551 394.571 297.404 393.134 295.041 392.153C292.678 391.173 290.144 390.668 287.586 390.668H72.4143C67.2427 390.668 62.2829 392.723 58.626 396.379C54.9691 400.036 52.9147 404.996 52.9147 410.168V418.679H307.04Z" fill="#454545"/>
<g style="mix-blend-mode:multiply">
<path d="M288.847 390.803V385.399C288.831 381.245 287.267 377.245 284.461 374.181C281.655 371.116 277.808 369.208 273.67 368.827C273.146 362.887 271.36 357.127 268.432 351.931C265.505 346.736 261.502 342.225 256.693 338.699C253.18 280.561 222.827 259.17 215.802 259.17H216.793V239.805H194.276L187.431 146H180.135V418.679H307.04V410.168C307.039 405.232 305.156 400.482 301.776 396.885C298.397 393.287 293.773 391.113 288.847 390.803Z" fill="#EBEBEB"/>
</g>
<path d="M359.955 421.066H0V573.01H359.955V421.066Z" fill="#454545"/>
<path d="M359.955 421.066H0V426.245H359.955V421.066Z" fill="#5C5C5C"/>
<path d="M359.955 470.874H0V573.01H359.955V470.874Z" fill="#5C5C5C"/>
<path d="M359.955 470.874H0V473.351H359.955V470.874Z" fill="#808080"/>
<path d="M72.054 395.757C70.7931 375.176 60.075 367.566 57.5531 367.566H32.3342C29.8574 367.566 19.0943 375.176 17.8784 395.757C16.0419 397.059 14.5328 398.77 13.47 400.755C12.4072 402.74 11.8197 404.945 11.7538 407.195H78.2236C78.1491 404.942 77.5532 402.736 76.4827 400.751C75.4122 398.767 73.8963 397.057 72.054 395.757Z" fill="#BABABA"/>
<path d="M58.0486 360.721H32.019V367.566H58.0486V360.721Z" fill="#A6A6A6"/>
<path d="M47.6457 341.492H42.3317L40.2151 360.676H50.0775L47.6457 341.492Z" fill="#787878"/>
<path d="M83.5376 414.852V412.285C83.5377 410.716 82.9176 409.211 81.8125 408.097C80.7074 406.984 79.207 406.352 77.6382 406.34H12.3392C10.7705 406.352 9.27004 406.984 8.16496 408.097C7.05988 409.211 6.43977 410.716 6.43982 412.285V414.852H83.5376Z" fill="#A6A6A6"/>
<path d="M90.0676 424.039V421.066C90.0735 420.158 89.8997 419.257 89.5561 418.416C89.2124 417.575 88.7059 416.81 88.0655 416.165C87.425 415.52 86.6635 415.009 85.8246 414.66C84.9857 414.311 84.086 414.131 83.1774 414.131H6.89017C5.05865 414.143 3.3062 414.879 2.01533 416.178C0.724447 417.478 -3.86132e-05 419.235 1.54353e-09 421.066L1.54353e-09 424.039H90.0676Z" fill="#787878"/>
<path d="M38.2257 368.439L35.2026 371.466L38.2299 374.489L41.2529 371.462L38.2257 368.439Z" fill="#787878"/>
<path d="M51.724 368.424L48.7015 371.451L51.7293 374.474L54.7518 371.446L51.724 368.424Z" fill="#787878"/>
<path d="M31.4908 378.693L28.4746 381.727L31.5087 384.744L34.5249 381.709L31.4908 378.693Z" fill="#787878"/>
<path d="M41.9714 381.752L44.9887 384.769L48.051 381.752L44.9887 378.689L41.9714 381.752Z" fill="#787878"/>
<path d="M58.4894 378.678L55.469 381.708L58.4989 384.728L61.5193 381.698L58.4894 378.678Z" fill="#787878"/>
<path d="M24.7632 388.998L21.7423 392.027L24.7717 395.048L27.7926 392.019L24.7632 388.998Z" fill="#787878"/>
<path d="M38.2903 388.944L35.2651 391.969L38.2903 394.995L41.3154 391.969L38.2903 388.944Z" fill="#787878"/>
<path d="M51.7295 389.015L48.7043 392.04L51.7295 395.065L54.7546 392.04L51.7295 389.015Z" fill="#787878"/>
<path d="M65.2394 388.972L62.2185 392.001L65.2479 395.022L68.2688 391.993L65.2394 388.972Z" fill="#787878"/>
<path d="M18.0261 399.212L15.001 402.237L18.0261 405.262L21.0513 402.237L18.0261 399.212Z" fill="#787878"/>
<path d="M31.5026 399.224L28.4817 402.253L31.5111 405.274L34.532 402.245L31.5026 399.224Z" fill="#787878"/>
<path d="M44.97 399.2L41.9407 402.221L44.9616 405.251L47.991 402.23L44.97 399.2Z" fill="#787878"/>
<path d="M58.4656 399.213L55.4404 402.238L58.4656 405.263L61.4907 402.238L58.4656 399.213Z" fill="#787878"/>
<path d="M71.9529 399.184L68.9214 402.202L71.9402 405.234L74.9717 402.215L71.9529 399.184Z" fill="#787878"/>
<g style="mix-blend-mode:multiply">
<path d="M83.5377 414.176V412.285C83.543 410.814 82.9946 409.395 82.0017 408.311C81.0088 407.226 79.644 406.555 78.1787 406.43C77.9792 404.317 77.3294 402.271 76.273 400.43C75.2165 398.589 73.7779 396.996 72.0541 395.757C70.7931 375.177 60.0751 367.566 57.5532 367.566H57.9135V360.721H50.0776L47.6458 341.537H45.0338V424.038H90.0676V421.066C90.07 419.3 89.3937 417.599 88.1785 416.317C86.9633 415.035 85.3019 414.268 83.5377 414.176Z" fill="#EBEBEB"/>
</g>
<path d="M162.122 395.757C160.861 375.176 150.143 367.566 147.666 367.566H122.312C119.835 367.566 109.072 375.176 107.856 395.757C106.02 397.059 104.51 398.77 103.448 400.755C102.385 402.74 101.797 404.945 101.731 407.195H168.246C168.18 404.945 167.593 402.74 166.53 400.755C165.467 398.77 163.958 397.059 162.122 395.757Z" fill="#BABABA"/>
<path d="M147.981 360.721H121.997V367.566H147.981V360.721Z" fill="#A6A6A6"/>
<path d="M137.623 341.492H132.309L130.238 360.676H140.055L137.623 341.492Z" fill="#787878"/>
<path d="M173.515 414.852V412.285C173.521 411.506 173.373 410.734 173.079 410.013C172.785 409.292 172.352 408.637 171.803 408.084C171.255 407.532 170.602 407.093 169.884 406.794C169.165 406.494 168.394 406.34 167.616 406.34H102.362C100.785 406.34 99.2731 406.967 98.1583 408.081C97.0435 409.196 96.4172 410.708 96.4172 412.285V414.852H173.515Z" fill="#A6A6A6"/>
<path d="M180.135 424.039V421.066C180.141 420.161 179.969 419.264 179.628 418.426C179.287 417.588 178.784 416.825 178.149 416.181C177.513 415.537 176.757 415.024 175.923 414.673C175.09 414.321 174.195 414.137 173.29 414.131H96.8676C95.0518 414.166 93.3223 414.913 92.0508 416.21C90.7793 417.506 90.0672 419.25 90.0675 421.066V424.039H180.135Z" fill="#787878"/>
<path d="M128.24 368.448L125.217 371.476L128.244 374.499L131.267 371.471L128.24 368.448Z" fill="#787878"/>
<path d="M141.717 368.468L138.694 371.495L141.722 374.518L144.745 371.491L141.717 368.468Z" fill="#787878"/>
<path d="M121.509 378.731L118.488 381.76L121.518 384.781L124.539 381.752L121.509 378.731Z" fill="#787878"/>
<path d="M131.949 381.752L135.011 384.769L138.028 381.752L135.011 378.689L131.949 381.752Z" fill="#787878"/>
<path d="M145.459 381.752L148.476 384.769L151.494 381.752L148.476 378.689L145.459 381.752Z" fill="#787878"/>
<path d="M114.765 388.976L111.744 392.006L114.773 395.027L117.794 391.997L114.765 388.976Z" fill="#787878"/>
<path d="M128.259 388.998L125.234 392.023L128.259 395.048L131.284 392.023L128.259 388.998Z" fill="#787878"/>
<path d="M141.743 388.979L138.718 392.004L141.743 395.029L144.768 392.004L141.743 388.979Z" fill="#787878"/>
<path d="M155.218 388.964L152.189 391.985L155.21 395.014L158.239 391.993L155.218 388.964Z" fill="#787878"/>
<path d="M108.001 399.221L104.98 402.251L108.01 405.272L111.031 402.242L108.001 399.221Z" fill="#787878"/>
<path d="M121.479 399.202L118.454 402.227L121.479 405.252L124.504 402.227L121.479 399.202Z" fill="#787878"/>
<path d="M135 399.225L131.97 402.245L134.99 405.275L138.02 402.255L135 399.225Z" fill="#787878"/>
<path d="M148.467 399.216L145.437 402.237L148.458 405.266L151.488 402.245L148.467 399.216Z" fill="#787878"/>
<path d="M161.919 399.229L158.892 402.252L161.915 405.279L164.942 402.256L161.919 399.229Z" fill="#787878"/>
<g style="mix-blend-mode:multiply">
<path d="M173.515 414.176V412.285C173.52 410.814 172.972 409.395 171.979 408.311C170.986 407.226 169.621 406.555 168.156 406.43C167.967 404.324 167.331 402.283 166.291 400.442C165.25 398.602 163.829 397.005 162.122 395.757C160.861 375.177 150.143 367.566 147.666 367.566H147.981V360.721H140.055L137.623 341.537H135.101V424.038H180.135V421.066C180.136 419.285 179.448 417.572 178.213 416.287C176.979 415.003 175.295 414.246 173.515 414.176Z" fill="#EBEBEB"/>
</g>
<path d="M252.189 395.757C250.973 375.176 240.21 367.566 237.733 367.566H212.289C209.812 367.566 199.094 375.176 197.833 395.757C196.008 397.067 194.509 398.78 193.455 400.764C192.4 402.748 191.818 404.949 191.754 407.195H258.224C258.168 404.952 257.595 402.753 256.548 400.769C255.501 398.784 254.009 397.069 252.189 395.757Z" fill="#BABABA"/>
<path d="M237.958 360.721H211.974V367.566H237.958V360.721Z" fill="#A6A6A6"/>
<path d="M227.601 341.492H222.287L220.215 360.676H230.078L227.601 341.492Z" fill="#787878"/>
<path d="M263.538 414.852V412.285C263.538 410.716 262.918 409.211 261.812 408.097C260.707 406.984 259.207 406.352 257.638 406.34H192.339C191.561 406.34 190.79 406.494 190.071 406.794C189.352 407.093 188.7 407.532 188.152 408.084C187.603 408.637 187.17 409.292 186.876 410.013C186.582 410.734 186.434 411.506 186.44 412.285V414.852H263.538Z" fill="#A6A6A6"/>
<path d="M270.203 424.039V421.066C270.203 419.235 269.478 417.478 268.187 416.178C266.896 414.879 265.144 414.143 263.313 414.131H186.89C185.082 414.178 183.364 414.929 182.102 416.225C180.84 417.521 180.135 419.258 180.135 421.066V424.039H270.203Z" fill="#787878"/>
<path d="M218.209 368.458L215.186 371.485L218.213 374.508L221.236 371.481L218.209 368.458Z" fill="#787878"/>
<path d="M231.718 368.446L228.695 371.473L231.722 374.496L234.745 371.469L231.718 368.446Z" fill="#787878"/>
<path d="M208.461 381.752L211.523 384.769L214.541 381.752L211.523 378.689L208.461 381.752Z" fill="#787878"/>
<path d="M224.981 378.722L221.96 381.751L224.99 384.772L228.011 381.743L224.981 378.722Z" fill="#787878"/>
<path d="M235.437 381.752L238.454 384.769L241.516 381.752L238.454 378.689L235.437 381.752Z" fill="#787878"/>
<path d="M204.779 388.986L201.758 392.016L204.787 395.036L207.808 392.007L204.779 388.986Z" fill="#787878"/>
<path d="M218.227 389.007L215.202 392.032L218.227 395.057L221.252 392.032L218.227 389.007Z" fill="#787878"/>
<path d="M231.743 388.956L228.718 391.981L231.743 395.007L234.769 391.981L231.743 388.956Z" fill="#787878"/>
<path d="M245.228 388.982L242.202 392.007L245.228 395.032L248.253 392.007L245.228 388.982Z" fill="#787878"/>
<path d="M198.008 399.23L194.983 402.255L198.008 405.28L201.033 402.255L198.008 399.23Z" fill="#787878"/>
<path d="M211.479 399.154L208.458 402.184L211.488 405.205L214.509 402.175L211.479 399.154Z" fill="#787878"/>
<path d="M224.963 399.205L221.938 402.23L224.963 405.255L227.988 402.23L224.963 399.205Z" fill="#787878"/>
<path d="M238.434 399.224L235.405 402.245L238.425 405.274L241.455 402.253L238.434 399.224Z" fill="#787878"/>
<path d="M251.919 399.205L248.891 402.228L251.914 405.256L254.942 402.233L251.919 399.205Z" fill="#787878"/>
<g style="mix-blend-mode:multiply">
<path d="M263.538 414.176V412.285C263.532 410.81 262.974 409.391 261.973 408.307C260.973 407.224 259.603 406.554 258.134 406.43C257.967 404.329 257.35 402.288 256.324 400.446C255.299 398.604 253.888 397.005 252.189 395.757C250.973 375.177 240.21 367.566 237.733 367.566H238.049V360.721H230.033L227.601 341.537H225.169V424.038H270.203V421.066C270.192 419.281 269.494 417.568 268.252 416.284C267.011 415.001 265.322 414.246 263.538 414.176Z" fill="#EBEBEB"/>
</g>
<path d="M342.257 395.757C341.041 375.176 330.278 367.566 327.801 367.566H302.312C299.835 367.566 289.072 375.176 287.856 395.757C286.019 397.059 284.51 398.77 283.448 400.755C282.385 402.74 281.797 404.945 281.731 407.195H348.201C348.156 404.96 347.596 402.765 346.565 400.782C345.534 398.798 344.06 397.078 342.257 395.757Z" fill="#BABABA"/>
<path d="M327.981 360.721H301.951V367.566H327.981V360.721Z" fill="#A6A6A6"/>
<path d="M317.623 341.492H312.309L310.193 360.676H320.055L317.623 341.492Z" fill="#787878"/>
<path d="M353.515 414.852V412.285C353.515 410.716 352.895 409.211 351.79 408.097C350.685 406.984 349.184 406.352 347.616 406.34H282.317C280.748 406.352 279.247 406.984 278.142 408.097C277.037 409.211 276.417 410.716 276.417 412.285V414.852H353.515Z" fill="#A6A6A6"/>
<path d="M359.955 424.039V421.066C359.955 419.235 359.23 417.478 357.94 416.178C356.649 414.879 354.896 414.143 353.065 414.131H276.868C275.072 414.19 273.37 414.948 272.125 416.243C270.88 417.539 270.19 419.269 270.203 421.066V424.039H359.955Z" fill="#787878"/>
<path d="M308.21 368.436L305.187 371.463L308.214 374.486L311.237 371.459L308.21 368.436Z" fill="#787878"/>
<path d="M321.687 368.455L318.664 371.482L321.692 374.505L324.715 371.478L321.687 368.455Z" fill="#787878"/>
<path d="M301.48 378.719L298.459 381.749L301.489 384.77L304.51 381.74L301.48 378.719Z" fill="#787878"/>
<path d="M314.951 378.732L311.93 381.761L314.959 384.782L317.98 381.753L314.951 378.732Z" fill="#787878"/>
<path d="M328.442 378.689L325.421 381.719L328.451 384.739L331.472 381.709L328.442 378.689Z" fill="#787878"/>
<path d="M294.749 388.997L291.728 392.026L294.757 395.047L297.778 392.017L294.749 388.997Z" fill="#787878"/>
<path d="M308.227 388.984L305.202 392.01L308.227 395.035L311.253 392.01L308.227 388.984Z" fill="#787878"/>
<path d="M321.712 388.965L318.687 391.99L321.712 395.015L324.737 391.99L321.712 388.965Z" fill="#787878"/>
<path d="M335.196 389.036L332.171 392.061L335.196 395.086L338.221 392.061L335.196 389.036Z" fill="#787878"/>
<path d="M288.008 399.207L284.983 402.232L288.008 405.257L291.033 402.232L288.008 399.207Z" fill="#787878"/>
<path d="M301.493 399.188L298.468 402.213L301.493 405.238L304.518 402.213L301.493 399.188Z" fill="#787878"/>
<path d="M314.932 399.214L311.907 402.239L314.932 405.264L317.957 402.239L314.932 399.214Z" fill="#787878"/>
<path d="M328.448 399.208L325.423 402.233L328.448 405.258L331.473 402.233L328.448 399.208Z" fill="#787878"/>
<path d="M341.931 399.169L338.904 402.192L341.927 405.219L344.954 402.196L341.931 399.169Z" fill="#787878"/>
<g style="mix-blend-mode:multiply">
<path d="M353.515 414.176V412.285C353.51 410.817 352.958 409.404 351.967 408.322C350.976 407.239 349.617 406.565 348.156 406.43C347.986 404.334 347.373 402.299 346.355 400.459C345.338 398.618 343.941 397.016 342.257 395.757C341.041 375.177 330.278 367.566 327.801 367.566H328.161V360.721H320.055L317.623 341.537H314.966V424.038H360V421.066C360.003 419.307 359.333 417.613 358.127 416.332C356.921 415.051 355.271 414.28 353.515 414.176Z" fill="#EBEBEB"/>
</g>
<mask id="mask4_25_8936" style="mask-type:luminance" maskUnits="userSpaceOnUse" x="0" y="383" width="360" height="103">
<path d="M359.955 383.058H0V485.194H359.955V383.058Z" fill="white"/>
</mask>
<g mask="url(#mask4_25_8936)">
<path d="M27.0202 442.548C25.8043 421.967 15.0412 414.402 12.5644 414.402H-12.6545C-15.1764 414.402 -25.8945 421.967 -27.1554 442.548C-28.9562 443.851 -30.4386 445.545 -31.4914 447.502C-32.5443 449.46 -33.1404 451.63 -33.235 453.851H33.2349C33.1279 451.618 32.5125 449.439 31.4355 447.48C30.3585 445.521 28.8483 443.834 27.0202 442.548Z" fill="#BABABA"/>
<path d="M13.0146 407.556H-13.0149V414.402H13.0146V407.556Z" fill="#A6A6A6"/>
<path d="M2.65689 388.282H-2.6571L-4.77368 407.511H5.08871L2.65689 388.282Z" fill="#787878"/>
<path d="M38.5489 461.687V459.12C38.5489 457.551 37.9288 456.046 36.8237 454.933C35.7187 453.819 34.2182 453.187 32.6495 453.176H-32.6495C-34.2183 453.187 -35.7187 453.819 -36.8238 454.933C-37.9289 456.046 -38.549 457.551 -38.549 459.12V461.687H38.5489Z" fill="#A6A6A6"/>
<path d="M45.0337 470.874V467.857C45.0219 466.033 44.2922 464.287 43.0026 462.998C41.713 461.708 39.9673 460.978 38.1436 460.967H-38.0986C-39.0072 460.961 -39.908 461.134 -40.7492 461.478C-41.5904 461.822 -42.3552 462.328 -42.9998 462.969C-43.6444 463.609 -44.156 464.371 -44.5051 465.209C-44.8541 466.048 -45.0338 466.948 -45.0338 467.857V470.874H45.0337Z" fill="#787878"/>
<path d="M6.71444 415.283L3.69141 418.31L6.71866 421.333L9.7417 418.306L6.71444 415.283Z" fill="#787878"/>
<path d="M-3.01721 428.542L5.126e-05 431.604L3.06235 428.542L5.126e-05 425.525L-3.01721 428.542Z" fill="#787878"/>
<path d="M13.5121 425.501L10.4917 428.531L13.5216 431.552L16.542 428.522L13.5121 425.501Z" fill="#787878"/>
<path d="M6.70862 435.809L3.68347 438.834L6.70861 441.859L9.73376 438.834L6.70862 435.809Z" fill="#787878"/>
<path d="M20.1873 435.796L17.1664 438.826L20.1957 441.846L23.2167 438.817L20.1873 435.796Z" fill="#787878"/>
<path d="M-0.0114837 446.066L-3.04138 449.086L-0.0209971 452.116L3.0089 449.096L-0.0114837 446.066Z" fill="#787878"/>
<path d="M13.4764 446.039L10.4513 449.064L13.4764 452.089L16.5016 449.064L13.4764 446.039Z" fill="#787878"/>
<path d="M26.9743 446.053L23.9423 449.071L26.9605 452.103L29.9925 449.085L26.9743 446.053Z" fill="#787878"/>
<g style="mix-blend-mode:multiply">
<path d="M38.5489 461.237V459.345C38.5449 457.873 37.9946 456.454 37.0045 455.364C36.0145 454.274 34.6552 453.591 33.1899 453.446C33.0106 451.291 32.3662 449.201 31.3011 447.32C30.236 445.438 28.7755 443.81 27.0203 442.548C25.8044 421.967 15.0413 414.401 12.5644 414.401H12.9247V407.556H5.08882L2.61196 388.282H0V470.874H45.0338V467.857C44.9796 466.141 44.283 464.508 43.0819 463.282C41.8808 462.056 40.263 461.326 38.5489 461.237Z" fill="#EBEBEB"/>
</g>
<path d="M117.088 442.548C115.827 421.967 105.109 414.402 102.587 414.402H77.3229C74.846 414.402 64.0829 421.967 62.867 442.548C61.0556 443.844 59.5628 445.535 58.5017 447.493C57.4405 449.452 56.839 451.626 56.7424 453.851H123.212C123.112 451.627 122.509 449.454 121.449 447.496C120.388 445.538 118.897 443.846 117.088 442.548Z" fill="#BABABA"/>
<path d="M102.992 407.556H77.0076V414.402H102.992V407.556Z" fill="#A6A6A6"/>
<path d="M92.6343 388.282H87.3203L85.2037 407.511H95.0661L92.6343 388.282Z" fill="#787878"/>
<path d="M128.526 461.687V459.12C128.526 457.551 127.906 456.046 126.801 454.933C125.696 453.819 124.196 453.187 122.627 453.176H57.3279C55.7591 453.187 54.2587 453.819 53.1536 454.933C52.0485 456.046 51.4284 457.551 51.4285 459.12V461.687H128.526Z" fill="#A6A6A6"/>
<path d="M135.101 470.874V467.857C135.101 466.952 134.923 466.056 134.577 465.22C134.23 464.384 133.723 463.624 133.083 462.984C132.443 462.345 131.684 461.837 130.848 461.491C130.012 461.145 129.116 460.966 128.211 460.966H51.8788C50.0629 460.99 48.3287 461.725 47.0488 463.013C45.7688 464.301 45.0453 466.041 45.0337 467.857V470.874H135.101Z" fill="#787878"/>
<path d="M83.2509 415.273L80.2279 418.3L83.2552 421.323L86.2782 418.296L83.2509 415.273Z" fill="#787878"/>
<path d="M96.7284 415.293L93.7053 418.32L96.7326 421.343L99.7556 418.316L96.7284 415.293Z" fill="#787878"/>
<path d="M76.5004 425.511L73.48 428.541L76.5099 431.561L79.5303 428.531L76.5004 425.511Z" fill="#787878"/>
<path d="M86.9601 428.542L89.9773 431.604L93.0396 428.542L89.9773 425.525L86.9601 428.542Z" fill="#787878"/>
<path d="M100.47 428.542L103.488 431.604L106.505 428.542L103.488 425.525L100.47 428.542Z" fill="#787878"/>
<path d="M69.7123 435.8L66.6914 438.829L69.7208 441.85L72.7417 438.821L69.7123 435.8Z" fill="#787878"/>
<path d="M83.2377 435.792L80.2125 438.817L83.2377 441.842L86.2628 438.817L83.2377 435.792Z" fill="#787878"/>
<path d="M96.7219 435.773L93.6968 438.798L96.7219 441.823L99.7471 438.798L96.7219 435.773Z" fill="#787878"/>
<path d="M110.197 435.76L107.167 438.781L110.188 441.81L113.218 438.789L110.197 435.76Z" fill="#787878"/>
<path d="M63.0127 446.045L59.9918 449.075L63.0212 452.096L66.0421 449.066L63.0127 446.045Z" fill="#787878"/>
<path d="M76.4897 446.073L73.4646 449.098L76.4897 452.123L79.5149 449.098L76.4897 446.073Z" fill="#787878"/>
<path d="M89.9985 446.053L86.9686 449.073L89.989 452.103L93.0189 449.082L89.9985 446.053Z" fill="#787878"/>
<path d="M103.477 446.043L100.448 449.064L103.468 452.094L106.498 449.073L103.477 446.043Z" fill="#787878"/>
<path d="M116.929 446.01L113.902 449.033L116.925 452.061L119.952 449.038L116.929 446.01Z" fill="#787878"/>
<g style="mix-blend-mode:multiply">
<path d="M128.526 461.237V459.345C128.533 457.87 127.986 456.446 126.994 455.354C126.002 454.262 124.636 453.581 123.167 453.446C122.999 451.298 122.368 449.213 121.319 447.332C120.27 445.451 118.826 443.819 117.088 442.547C115.827 421.967 105.109 414.401 102.587 414.401H102.947V407.556H95.0663L92.6344 388.327H90.0675V470.874H135.101V467.856C135.046 466.126 134.336 464.481 133.116 463.253C131.896 462.024 130.256 461.304 128.526 461.237Z" fill="#EBEBEB"/>
</g>
<path d="M207.155 442.548C205.894 421.967 195.176 414.402 192.7 414.402H167.301C164.824 414.402 154.106 421.967 152.845 442.548C151.033 443.844 149.54 445.535 148.479 447.493C147.418 449.452 146.817 451.626 146.72 453.851H213.235C213.144 451.63 212.549 449.458 211.496 447.5C210.443 445.542 208.959 443.848 207.155 442.548Z" fill="#BABABA"/>
<path d="M192.97 407.556H166.985V414.402H192.97V407.556Z" fill="#A6A6A6"/>
<path d="M182.612 388.282H177.298L175.226 407.511H185.044L182.612 388.282Z" fill="#787878"/>
<path d="M218.549 461.687V459.12C218.549 457.543 217.923 456.031 216.808 454.917C215.693 453.802 214.181 453.176 212.604 453.176H147.351C146.572 453.176 145.801 453.33 145.082 453.629C144.364 453.928 143.711 454.367 143.163 454.919C142.615 455.472 142.181 456.128 141.887 456.849C141.593 457.57 141.445 458.342 141.451 459.12V461.687H218.549Z" fill="#A6A6A6"/>
<path d="M225.169 470.874V467.857C225.157 466.033 224.427 464.287 223.138 462.997C221.848 461.708 220.102 460.978 218.279 460.966H141.901C140.093 461.002 138.371 461.742 137.1 463.029C135.83 464.316 135.113 466.048 135.101 467.857V470.874H225.169Z" fill="#787878"/>
<path d="M173.22 415.283L170.197 418.31L173.224 421.333L176.247 418.306L173.22 415.283Z" fill="#787878"/>
<path d="M186.697 415.302L183.674 418.329L186.702 421.352L189.725 418.325L186.697 415.302Z" fill="#787878"/>
<path d="M163.472 428.542L166.535 431.604L169.552 428.542L166.535 425.525L163.472 428.542Z" fill="#787878"/>
<path d="M179.993 425.546L176.972 428.575L180.001 431.596L183.022 428.567L179.993 425.546Z" fill="#787878"/>
<path d="M190.448 428.542L193.465 431.604L196.527 428.542L193.465 425.525L190.448 428.542Z" fill="#787878"/>
<path d="M159.759 435.779L156.738 438.808L159.767 441.829L162.788 438.799L159.759 435.779Z" fill="#787878"/>
<path d="M173.206 435.801L170.181 438.826L173.206 441.851L176.231 438.826L173.206 435.801Z" fill="#787878"/>
<path d="M186.691 435.782L183.665 438.807L186.691 441.833L189.716 438.807L186.691 435.782Z" fill="#787878"/>
<path d="M200.207 435.776L197.181 438.801L200.207 441.827L203.232 438.801L200.207 435.776Z" fill="#787878"/>
<path d="M153.019 446.056L149.994 449.081L153.019 452.106L156.044 449.081L153.019 446.056Z" fill="#787878"/>
<path d="M166.485 446.036L163.464 449.066L166.494 452.087L169.515 449.057L166.485 446.036Z" fill="#787878"/>
<path d="M179.974 446.031L176.949 449.056L179.974 452.081L182.999 449.056L179.974 446.031Z" fill="#787878"/>
<path d="M193.444 446.052L190.415 449.073L193.436 452.102L196.465 449.081L193.444 446.052Z" fill="#787878"/>
<path d="M206.963 446.05L203.935 449.073L206.957 452.1L209.985 449.078L206.963 446.05Z" fill="#787878"/>
<g style="mix-blend-mode:multiply">
<path d="M218.549 461.237V459.345C218.544 457.866 217.987 456.441 216.988 455.35C215.988 454.259 214.618 453.58 213.145 453.446C212.987 451.306 212.37 449.225 211.337 447.344C210.303 445.464 208.877 443.828 207.155 442.547C205.894 421.967 195.176 414.401 192.699 414.401H193.015V407.556H185.044L182.612 388.327H180.135V470.874H225.169V467.856C225.102 466.122 224.383 464.477 223.156 463.249C221.928 462.022 220.283 461.303 218.549 461.237Z" fill="#EBEBEB"/>
</g>
<path d="M297.223 442.548C296.007 421.967 285.244 414.402 282.767 414.402H257.323C254.801 414.402 244.083 421.967 242.822 442.548C241.021 443.851 239.539 445.545 238.486 447.502C237.433 449.46 236.837 451.63 236.742 453.851H303.212C303.131 451.637 302.551 449.47 301.513 447.513C300.476 445.555 299.009 443.858 297.223 442.548Z" fill="#BABABA"/>
<path d="M282.992 407.556H256.963V414.402H282.992V407.556Z" fill="#A6A6A6"/>
<path d="M272.634 388.282H267.32L265.204 407.511H275.066L272.634 388.282Z" fill="#787878"/>
<path d="M308.526 461.687V459.12C308.526 457.551 307.906 456.046 306.801 454.933C305.696 453.819 304.196 453.187 302.627 453.176H237.328C236.549 453.176 235.778 453.33 235.06 453.629C234.341 453.928 233.689 454.367 233.14 454.919C232.592 455.472 232.158 456.128 231.864 456.849C231.571 457.57 231.422 458.342 231.428 459.12V461.687H308.526Z" fill="#A6A6A6"/>
<path d="M314.966 470.874V467.857C314.954 466.033 314.225 464.287 312.935 462.997C311.645 461.708 309.9 460.978 308.076 460.966H231.879C230.083 461.013 228.376 461.76 227.123 463.047C225.869 464.334 225.168 466.06 225.169 467.857V470.874H314.966Z" fill="#787878"/>
<path d="M263.189 415.293L260.166 418.32L263.193 421.343L266.216 418.316L263.189 415.293Z" fill="#787878"/>
<path d="M276.698 415.28L273.675 418.307L276.703 421.331L279.726 418.303L276.698 415.28Z" fill="#787878"/>
<path d="M256.494 425.522L253.474 428.552L256.504 431.573L259.524 428.543L256.494 425.522Z" fill="#787878"/>
<path d="M269.963 425.556L266.942 428.586L269.971 431.607L272.992 428.577L269.963 425.556Z" fill="#787878"/>
<path d="M283.465 425.537L280.444 428.566L283.474 431.587L286.495 428.558L283.465 425.537Z" fill="#787878"/>
<path d="M249.728 435.834L246.708 438.863L249.737 441.884L252.758 438.855L249.728 435.834Z" fill="#787878"/>
<path d="M263.22 435.81L260.194 438.836L263.22 441.861L266.245 438.836L263.22 435.81Z" fill="#787878"/>
<path d="M276.691 435.759L273.666 438.784L276.691 441.809L279.716 438.784L276.691 435.759Z" fill="#787878"/>
<path d="M290.175 435.785L287.15 438.81L290.175 441.835L293.2 438.81L290.175 435.785Z" fill="#787878"/>
<path d="M242.987 446.065L239.962 449.09L242.987 452.115L246.012 449.09L242.987 446.065Z" fill="#787878"/>
<path d="M256.503 446.059L253.478 449.084L256.503 452.109L259.529 449.084L256.503 446.059Z" fill="#787878"/>
<path d="M269.942 446.04L266.917 449.065L269.942 452.09L272.968 449.065L269.942 446.04Z" fill="#787878"/>
<path d="M283.459 446.034L280.434 449.059L283.459 452.084L286.484 449.059L283.459 446.034Z" fill="#787878"/>
<path d="M296.942 446.07L293.914 449.092L296.936 452.12L299.964 449.098L296.942 446.07Z" fill="#787878"/>
<g style="mix-blend-mode:multiply">
<path d="M308.526 461.237V459.345C308.521 457.866 307.965 456.441 306.965 455.35C305.966 454.259 304.596 453.58 303.122 453.446C302.984 451.311 302.385 449.231 301.367 447.35C300.348 445.469 298.935 443.83 297.223 442.547C296.007 421.967 285.244 414.401 282.767 414.401H283.127V407.556H275.021L272.589 388.327H270.203V470.874H315.236V467.856C315.168 466.107 314.437 464.449 313.191 463.22C311.944 461.99 310.277 461.281 308.526 461.237Z" fill="#EBEBEB"/>
</g>
<path d="M387.29 442.548C386.029 421.967 375.266 414.402 372.79 414.402H347.3C344.824 414.402 334.06 421.967 332.845 442.548C331.033 443.844 329.54 445.535 328.479 447.493C327.418 449.452 326.816 451.626 326.72 453.851H393.19C393.116 451.645 392.548 449.484 391.527 447.528C390.506 445.571 389.058 443.869 387.29 442.548Z" fill="#BABABA"/>
<path d="M373.015 407.556H346.985V414.402H373.015V407.556Z" fill="#A6A6A6"/>
<path d="M362.612 388.282H357.298L355.181 407.511H365.044L362.612 388.282Z" fill="#787878"/>
<path d="M398.504 461.687V459.12C398.504 457.551 397.884 456.046 396.779 454.933C395.674 453.819 394.173 453.187 392.604 453.176H327.305C325.737 453.187 324.236 453.819 323.131 454.933C322.026 456.046 321.406 457.551 321.406 459.12V461.687H398.504Z" fill="#A6A6A6"/>
<path d="M404.944 470.874V467.857C404.932 466.033 404.202 464.287 402.913 462.997C401.623 461.708 399.877 460.978 398.053 460.966H321.856C320.029 460.966 318.276 461.692 316.984 462.984C315.692 464.277 314.966 466.029 314.966 467.857V470.874H404.944Z" fill="#787878"/>
<path d="M353.235 415.27L350.212 418.298L353.239 421.321L356.262 418.293L353.235 415.27Z" fill="#787878"/>
<path d="M346.461 425.554L343.44 428.583L346.47 431.604L349.49 428.575L346.461 425.554Z" fill="#787878"/>
<path d="M359.932 425.612L356.911 428.641L359.94 431.662L362.961 428.633L359.932 425.612Z" fill="#787878"/>
<path d="M339.698 435.845L336.677 438.874L339.706 441.895L342.727 438.865L339.698 435.845Z" fill="#787878"/>
<path d="M353.22 435.787L350.195 438.812L353.22 441.838L356.245 438.812L353.22 435.787Z" fill="#787878"/>
<path d="M332.988 446.042L329.963 449.067L332.988 452.092L336.013 449.067L332.988 446.042Z" fill="#787878"/>
<path d="M346.472 446.023L343.447 449.048L346.472 452.073L349.497 449.048L346.472 446.023Z" fill="#787878"/>
<path d="M359.956 446.094L356.931 449.119L359.956 452.144L362.981 449.119L359.956 446.094Z" fill="#787878"/>
<g style="mix-blend-mode:multiply">
<path d="M398.504 461.237V459.345C398.5 457.873 397.949 456.454 396.959 455.364C395.969 454.274 394.61 453.591 393.145 453.446C393.003 451.317 392.407 449.242 391.398 447.363C390.388 445.483 388.987 443.841 387.29 442.547C386.029 421.967 375.266 414.401 372.789 414.401H373.15V407.556H365.044L362.612 388.327H359.955V470.874H404.989V467.856C404.934 466.141 404.238 464.508 403.037 463.282C401.836 462.056 400.218 461.326 398.504 461.237Z" fill="#EBEBEB"/>
</g>
</g>
<path d="M153.835 486.59C152.556 486.584 151.289 486.832 150.106 487.319C148.923 487.805 147.848 488.522 146.944 489.426C146.039 490.331 145.323 491.405 144.836 492.588C144.35 493.771 144.102 495.039 144.108 496.318V509.287H165.544V496.318C165.55 495.042 165.304 493.778 164.82 492.599C164.336 491.419 163.624 490.346 162.724 489.442C161.825 488.538 160.755 487.821 159.578 487.332C158.4 486.842 157.137 486.59 155.862 486.59H153.835Z" fill="#454545"/>
<path d="M204.048 486.59C202.773 486.59 201.51 486.842 200.332 487.332C199.155 487.821 198.085 488.538 197.186 489.442C196.286 490.346 195.574 491.419 195.09 492.598C194.606 493.778 194.36 495.042 194.366 496.318V509.287H215.802V496.318C215.808 495.042 215.562 493.778 215.078 492.598C214.594 491.419 213.882 490.346 212.982 489.442C212.082 488.538 211.013 487.821 209.835 487.332C208.658 486.842 207.395 486.59 206.12 486.59H204.048Z" fill="#454545"/>
<path d="M304.519 486.59C301.939 486.59 299.465 487.615 297.64 489.439C295.816 491.264 294.791 493.738 294.791 496.318V509.287H316.272V496.318C316.278 495.042 316.032 493.778 315.548 492.598C315.064 491.419 314.352 490.346 313.452 489.442C312.553 488.538 311.483 487.821 310.306 487.332C309.128 486.842 307.865 486.59 306.59 486.59H304.519Z" fill="#454545"/>
<path d="M254.261 486.59C252.985 486.59 251.723 486.842 250.545 487.332C249.367 487.821 248.298 488.538 247.398 489.442C246.499 490.346 245.786 491.419 245.303 492.598C244.819 493.778 244.573 495.042 244.578 496.318V509.287H266.06V496.318C266.06 493.738 265.035 491.264 263.211 489.439C261.386 487.615 258.912 486.59 256.332 486.59H254.261Z" fill="#454545"/>
<path d="M103.578 486.59C100.998 486.59 98.5237 487.615 96.6995 489.439C94.8753 491.264 93.8505 493.738 93.8505 496.318V509.287H115.332V496.318C115.338 495.042 115.091 493.778 114.608 492.598C114.124 491.419 113.411 490.346 112.512 489.442C111.612 488.538 110.543 487.821 109.365 487.332C108.187 486.842 106.925 486.59 105.649 486.59H103.578Z" fill="#454545"/>
<path d="M53.4099 486.59C52.1308 486.584 50.8632 486.832 49.6804 487.319C48.4975 487.805 47.4228 488.522 46.5184 489.426C45.6139 490.331 44.8976 491.405 44.4109 492.588C43.9242 493.771 43.6766 495.039 43.6826 496.318V509.287H65.1637V496.318C65.1637 493.738 64.1389 491.264 62.3147 489.439C60.4904 487.615 58.0163 486.59 55.4364 486.59H53.4099Z" fill="#454545"/>
<path d="M359.955 487.176C358.948 486.794 357.88 486.595 356.803 486.59H354.731C353.456 486.59 352.193 486.842 351.016 487.332C349.838 487.821 348.769 488.538 347.869 489.442C346.969 490.346 346.257 491.419 345.773 492.598C345.289 493.778 345.043 495.042 345.049 496.318V509.287H359.955V487.176Z" fill="#454545"/>
<path d="M0 509.287H14.9062V496.318C14.9121 495.042 14.666 493.778 14.1821 492.598C13.6982 491.419 12.986 490.346 12.0863 489.442C11.1866 488.538 10.1172 487.821 8.93959 487.332C7.76194 486.842 6.49921 486.59 5.22392 486.59H3.15236C2.07565 486.602 1.00909 486.8 0 487.176L0 509.287Z" fill="#454545"/>
<path d="M40.0351 555.042V542.027C40.0351 540.755 39.7846 539.496 39.2981 538.322C38.8115 537.147 38.0983 536.08 37.1992 535.181C36.3001 534.281 35.2328 533.568 34.0581 533.082C32.8833 532.595 31.6243 532.345 30.3528 532.345H28.2813C25.7134 532.345 23.2506 533.365 21.4349 535.181C19.6191 536.996 18.599 539.459 18.599 542.027V555.042H40.0351Z" fill="#454545"/>
<path d="M90.0675 555.042V542.027C90.0675 539.459 89.0475 536.996 87.2317 535.181C85.4159 533.365 82.9532 532.345 80.3853 532.345H78.3137C75.7458 532.345 73.2831 533.365 71.4673 535.181C69.6516 536.996 68.6315 539.459 68.6315 542.027V555.042H90.0675Z" fill="#454545"/>
<path d="M140.505 555.042V542.027C140.5 540.738 140.238 539.463 139.735 538.276C139.232 537.09 138.499 536.014 137.577 535.114C136.655 534.213 135.563 533.504 134.365 533.029C133.167 532.553 131.887 532.321 130.598 532.345H128.526C125.958 532.345 123.496 533.365 121.68 535.181C119.864 536.996 118.844 539.459 118.844 542.027V555.042H140.505Z" fill="#454545"/>
<path d="M190.718 555.042V542.027C190.706 539.455 189.676 536.992 187.853 535.178C186.03 533.363 183.563 532.345 180.991 532.345H178.964C176.392 532.345 173.925 533.363 172.102 535.178C170.279 536.992 169.249 539.455 169.237 542.027V555.042H190.718Z" fill="#454545"/>
<path d="M240.931 555.042V542.027C240.931 539.459 239.911 536.996 238.095 535.181C236.279 533.365 233.816 532.345 231.248 532.345H229.177C226.609 532.345 224.146 533.365 222.33 535.181C220.515 536.996 219.495 539.459 219.495 542.027V555.042H240.931Z" fill="#454545"/>
<path d="M291.143 555.042V542.027C291.143 539.459 290.123 536.996 288.307 535.181C286.492 533.365 284.029 532.345 281.461 532.345H279.209C276.641 532.345 274.179 533.365 272.363 535.181C270.547 536.996 269.527 539.459 269.527 542.027V555.042H291.143Z" fill="#454545"/>
<path d="M341.356 555.042V542.027C341.356 539.459 340.336 536.996 338.52 535.181C336.704 533.365 334.242 532.345 331.674 532.345H329.602C328.316 532.321 327.037 532.554 325.842 533.029C324.646 533.505 323.557 534.215 322.639 535.116C321.721 536.018 320.991 537.093 320.494 538.28C319.996 539.466 319.74 540.74 319.74 542.027V555.042H341.356Z" fill="#454545"/>
</g>
<defs>
<linearGradient id="paint0_linear_25_8936" x1="180" y1="0" x2="180" y2="462" gradientUnits="userSpaceOnUse">
<stop stop-color="#614A25"/>
<stop offset="1" stop-color="#614A25" stop-opacity="0"/>
</linearGradient>
<linearGradient id="paint1_linear_25_8936" x1="180" y1="64" x2="180" y2="445" gradientUnits="userSpaceOnUse">
<stop stop-color="#937037"/>
<stop offset="1" stop-color="#937037" stop-opacity="0"/>
</linearGradient>
<linearGradient id="paint2_linear_25_8936" x1="180" y1="146" x2="180" y2="574" gradientUnits="userSpaceOnUse">
<stop stop-color="#D9D9D9" stop-opacity="0.63"/>
<stop offset="0.947672" stop-color="#D9D9D9" stop-opacity="0"/>
</linearGradient>
</defs>
</svg>
