<svg width="689" height="751" viewBox="0 0 689 751" fill="none" xmlns="http://www.w3.org/2000/svg">
<path fill-rule="evenodd" clip-rule="evenodd" d="M126.002 34.6598H126.06V37.3938H126.002C122.922 39.042 120.565 41.7759 119.388 45.0646L131.176 202.844H167.893V202.903V209.018V209.077H167.729C166.018 209.7 151.403 215.299 146.286 226.362H79.5531C74.4362 215.299 59.7951 209.7 58.0808 209.077H57.9163V209.018V202.903V202.844H94.605L106.421 45.0666H106.217C105.057 41.7762 102.708 39.039 99.6318 37.3938V34.6598H99.7493H106.699C105.194 32.1816 104.309 29.3679 104.13 26.4578C104.13 21.812 112.123 2.03232 112.89 0.14471V-0.00012207L112.919 0.0722139L112.949 -0.00012207V0.14471C113.716 2.03232 121.709 21.812 121.709 26.4578C121.523 29.3699 120.629 32.1838 119.116 34.6598H126.002ZM174.067 253.209H689V750.82H0V253.209H51.7722V247.558H57.9163V241.061L67.8234 241.061V234.564H79.5531V226.421H146.286V234.564H158.016V241.061L167.893 241.061V247.558H174.067V253.209Z" fill="#1E140B"/>
<path fill-rule="evenodd" clip-rule="evenodd" d="M126.002 34.6598H126.06V37.3938H126.002C122.922 39.042 120.565 41.7759 119.388 45.0646L131.176 202.844H167.893V202.903V209.018V209.077H167.729C166.018 209.7 151.403 215.299 146.286 226.362H79.5531C74.4362 215.299 59.7951 209.7 58.0808 209.077H57.9163V209.018V202.903V202.844H94.605L106.421 45.0666H106.217C105.057 41.7762 102.708 39.039 99.6318 37.3938V34.6598H99.7493H106.699C105.194 32.1816 104.309 29.3679 104.13 26.4578C104.13 21.812 112.123 2.03232 112.89 0.14471V-0.00012207L112.919 0.0722139L112.949 -0.00012207V0.14471C113.716 2.03232 121.709 21.812 121.709 26.4578C121.523 29.3699 120.629 32.1838 119.116 34.6598H126.002ZM174.067 253.209H689V750.82H0V253.209H51.7722V247.558H57.9163V241.061L67.8234 241.061V234.564H79.5531V226.421H146.286V234.564H158.016V241.061L167.893 241.061V247.558H174.067V253.209Z" fill="url(#paint0_linear_23_431)"/>
<defs>
<linearGradient id="paint0_linear_23_431" x1="344.5" y1="-120" x2="344.5" y2="609.192" gradientUnits="userSpaceOnUse">
<stop stop-color="#937037"/>
<stop offset="1" stop-color="#937037" stop-opacity="0"/>
</linearGradient>
</defs>
</svg>
