<svg width="689" height="731" viewBox="0 0 689 731" fill="none" xmlns="http://www.w3.org/2000/svg">
<path fill-rule="evenodd" clip-rule="evenodd" d="M594.535 0L599.155 26.4116H605.217V30.0249H609.443L611.88 32.8844V38.6293H609.702L607.654 44.7383H604.308L613.005 124.086C613.183 123.926 613.368 123.774 613.559 123.63C615.027 122.524 616.812 121.924 618.647 121.919V130.186H619.762V133.825L615.458 151.944H614.758V154.18V189.248V191.302H616.314L619.14 197.281V203.26L618.18 204.273H616.573V207.367V217.115H617.014L619.969 223.094V229.047L619.783 229.229H629.355L631.017 232.605H689V730.217H0V232.605H557.508L559.17 229.229H568.737L568.555 229.047V223.094L571.485 217.115H571.926V207.367V204.273H570.344L569.359 203.26V197.281L572.211 191.302H573.767V189.248V154.18V151.944H573.067L568.763 133.825V130.186H569.878V121.919C571.71 121.925 573.491 122.526 574.954 123.632C575.142 123.774 575.323 123.924 575.497 124.08L584.217 44.7383H580.871L578.798 38.6293H576.619V32.8843L579.056 30.0249H583.308V26.4116H589.371L593.99 0H594.535Z" fill="#1E140B"/>
<path fill-rule="evenodd" clip-rule="evenodd" d="M594.535 0L599.155 26.4116H605.217V30.0249H609.443L611.88 32.8844V38.6293H609.702L607.654 44.7383H604.308L613.005 124.086C613.183 123.926 613.368 123.774 613.559 123.63C615.027 122.524 616.812 121.924 618.647 121.919V130.186H619.762V133.825L615.458 151.944H614.758V154.18V189.248V191.302H616.314L619.14 197.281V203.26L618.18 204.273H616.573V207.367V217.115H617.014L619.969 223.094V229.047L619.783 229.229H629.355L631.017 232.605H689V730.217H0V232.605H557.508L559.17 229.229H568.737L568.555 229.047V223.094L571.485 217.115H571.926V207.367V204.273H570.344L569.359 203.26V197.281L572.211 191.302H573.767V189.248V154.18V151.944H573.067L568.763 133.825V130.186H569.878V121.919C571.71 121.925 573.491 122.526 574.954 123.632C575.142 123.774 575.323 123.924 575.497 124.08L584.217 44.7383H580.871L578.798 38.6293H576.619V32.8843L579.056 30.0249H583.308V26.4116H589.371L593.99 0H594.535Z" fill="url(#paint0_linear_23_462)"/>
<defs>
<linearGradient id="paint0_linear_23_462" x1="344.5" y1="-154" x2="344.5" y2="730.217" gradientUnits="userSpaceOnUse">
<stop stop-color="#614A25"/>
<stop offset="1" stop-color="#614A25" stop-opacity="0"/>
</linearGradient>
</defs>
</svg>
